<svg xmlns="http://www.w3.org/2000/svg" width="71.003" height="64"><defs><filter id="a" width="200%" height="200%" x="-50%" y="-50%"><feGaussianBlur stdDeviation=".5" result="SvgjsFeGaussianBlur1051Out" in="SourceGraphic"/></filter></defs><path d="M1349.33 8278.86c-3.44-.01-6.24-2.85-6.24-6.33 0-1.79.73-3.41 1.91-4.56l-1.45-1.38c-.26-.23-.58-.34-.91-.34-.35 0-.71.14-.98.42l-17.25 17.48c-.5.5-.55 1.3-.12 1.86l6.34 7.33c.13.17.22.37.26.58.26 1.2.7 2.47 1.29 3.8l.6-.61a5.445 5.445 0 0 1 3.9-1.63c1.47 0 2.85.58 3.89 1.63.01.01.01.02.02.02l.02.02c.72.73 1.2 1.63 1.44 2.6a5.466 5.466 0 0 1 6.62.9l.03.03a5.56 5.56 0 0 1 1.61 3.94c0 .69-.12 1.36-.36 1.99 1.19.16 2.29.7 3.15 1.58l.03.02c.76.78 1.25 1.73 1.47 2.73l12.51 12.66c.67.68 1.57 1.03 2.46 1.03.71 0 1.42-.22 2.01-.7 1.58-1.26 1.68-3.61.3-5.01l-12.11-12.25c-.62-.63-.62-1.66 0-2.29.32-.32.73-.48 1.15-.48.41 0 .83.16 1.14.48l15.4 15.58c.67.68 1.57 1.04 2.46 1.04.71 0 1.42-.23 2.01-.7 1.58-1.26 1.68-3.62.29-5.01l-15.46-15.66c-.64-.64-.64-1.68 0-2.32.31-.32.72-.47 1.13-.47.41 0 .82.15 1.13.47l12.03 12.18c.67.68 1.57 1.04 2.46 1.04.71 0 1.42-.23 2.01-.7a3.401 3.401 0 0 0 .3-5.02l-25.5-25.81zm26.01-13.45c-.27-.27-.63-.41-.99-.41-.32 0-.64.11-.9.34l-1.16.66v.01l-22.94 3.19c-1.81 0-3.28 1.5-3.28 3.33 0 1.82 1.47 3.32 3.28 3.32l12.23.16 23.18 23.46c3.31-4.27 6.26-8.74 7.1-12.63.05-.21.13-.4.26-.57l.59-1.51c.43-.57.38-1.36-.12-1.86zm-35.23 46.52c.65 0 1.3-.25 1.8-.75l4.69-4.74a2.59 2.59 0 0 0 0-3.63l-.03-.03c-.5-.5-1.14-.75-1.79-.75-.65 0-1.3.25-1.8.75l-4.69 4.75c-.99 1-.99 2.62 0 3.63l.03.02c.5.5 1.14.75 1.79.75zm4.29 5.12c.5.5 1.15.75 1.8.75.65 0 1.29-.25 1.79-.75l3.03-3.08c.99-1 .99-2.62 0-3.63l-.02-.02c-.5-.5-1.15-.75-1.79-.75-.65 0-1.3.25-1.8.75l-3.03 3.07c-.99 1-.99 2.63 0 3.63zm-11.47-12.15c.49.51 1.14.76 1.79.76.65 0 1.3-.25 1.79-.76l1.98-2c.99-1 .99-2.63 0-3.63l-.02-.03c-.5-.5-1.15-.75-1.79-.75-.65 0-1.3.25-1.8.75l-1.98 2.01c-.99 1-.99 2.63 0 3.63zm24.98 22.1c.97 0 1.95-.42 2.61-1.28 1.06-1.35.87-3.3-.33-4.52l-1.06-1.08a5.572 5.572 0 0 1-1.59 3.54l-1.38 1.4c-.27.26-.55.5-.85.7l.26.26c.64.65 1.49.98 2.34.98zm-3.86-4.07l1.38-1.4c.99-1 .99-2.62 0-3.63l-.02-.02c-.5-.5-1.15-.75-1.8-.75-.65 0-1.29.25-1.79.75l-1.38 1.4c-.99 1-.99 2.62 0 3.62l.03.03c.49.5 1.14.75 1.79.75.65 0 1.3-.25 1.79-.75z" fill-opacity=".24" filter="url(#a)" transform="translate(-1322.998 -8264)"/><path d="M26.332 13.86c-3.44-.01-6.24-2.85-6.24-6.33 0-1.79.73-3.41 1.91-4.56l-1.45-1.38c-.26-.23-.58-.34-.91-.34-.35 0-.71.14-.98.42L1.412 19.15c-.5.5-.55 1.3-.12 1.86l6.34 7.33c.13.17.22.37.26.58.26 1.2.7 2.47 1.29 3.8l.6-.61a5.445 5.445 0 0 1 3.9-1.63c1.47 0 2.85.58 3.89 1.63.01.01.01.02.02.02l.02.02c.72.73 1.2 1.63 1.44 2.6a5.466 5.466 0 0 1 6.62.9l.03.03a5.56 5.56 0 0 1 1.61 3.94c0 .69-.12 1.36-.36 1.99 1.19.16 2.29.7 3.15 1.58l.03.02c.76.78 1.25 1.73 1.47 2.73l12.51 12.66c.67.68 1.57 1.03 2.46 1.03.71 0 1.42-.22 2.01-.7 1.58-1.26 1.68-3.61.3-5.01l-12.11-12.25c-.62-.63-.62-1.66 0-2.29.32-.32.73-.48 1.15-.48.41 0 .83.16 1.14.48l15.4 15.58c.67.68 1.57 1.04 2.46 1.04.71 0 1.42-.23 2.01-.7 1.58-1.26 1.68-3.62.29-5.01l-15.46-15.66c-.64-.64-.64-1.68 0-2.32.31-.32.72-.47 1.13-.47.41 0 .82.15 1.13.47l12.03 12.18c.67.68 1.57 1.04 2.46 1.04.71 0 1.42-.23 2.01-.7a3.401 3.401 0 0 0 .3-5.02L37.322 14zM52.342.41c-.27-.27-.63-.41-.99-.41-.32 0-.64.11-.9.34l-1.16.66v.01L26.352 4.2c-1.81 0-3.28 1.5-3.28 3.33 0 1.82 1.47 3.32 3.28 3.32l12.23.16 23.18 23.46c3.31-4.27 6.26-8.74 7.1-12.63.05-.21.13-.4.26-.57l.59-1.51c.43-.57.38-1.36-.12-1.86zm-35.23 46.52c.65 0 1.3-.25 1.8-.75l4.69-4.74a2.59 2.59 0 0 0 0-3.63l-.03-.03c-.5-.5-1.14-.75-1.79-.75-.65 0-1.3.25-1.8.75l-4.69 4.75c-.99 1-.99 2.62 0 3.63l.03.02c.5.5 1.14.75 1.79.75zm4.29 5.12c.5.5 1.15.75 1.8.75.65 0 1.29-.25 1.79-.75l3.03-3.08c.99-1 .99-2.62 0-3.63l-.02-.02c-.5-.5-1.15-.75-1.79-.75-.65 0-1.3.25-1.8.75l-3.03 3.07c-.99 1-.99 2.63 0 3.63zM9.932 39.9c.49.51 1.14.76 1.79.76.65 0 1.3-.25 1.79-.76l1.98-2c.99-1 .99-2.63 0-3.63l-.02-.03c-.5-.5-1.15-.75-1.79-.75-.65 0-1.3.25-1.8.75l-1.98 2.01c-.99 1-.99 2.63 0 3.63zM34.912 62c.97 0 1.95-.42 2.61-1.28 1.06-1.35.87-3.3-.33-4.52l-1.06-1.08a5.572 5.572 0 0 1-1.59 3.54l-1.38 1.4c-.27.26-.55.5-.85.7l.26.26c.64.65 1.49.98 2.34.98zm-3.86-4.07l1.38-1.4c.99-1 .99-2.62 0-3.63l-.02-.02c-.5-.5-1.15-.75-1.8-.75-.65 0-1.29.25-1.79.75l-1.38 1.4c-.99 1-.99 2.62 0 3.62l.03.03c.49.5 1.14.75 1.79.75.65 0 1.3-.25 1.79-.75z" fill="#fff"/></svg>