<svg xmlns="http://www.w3.org/2000/svg" width="77.001" height="53.5"><defs><filter id="a" width="200%" height="200%" x="-50%" y="-50%"><feGaussianBlur stdDeviation=".5" result="SvgjsFeGaussianBlur1057Out" in="SourceGraphic"/></filter></defs><path d="M583.02 8614.92c-4.22 2.31-10.025 4.44-15.813 5.34-5.15.8-14.839-1.13-14.839-3.41 0-.86 8.498 2.13 13.637.77 3.942-1.04 3.383-4.7 1.239-5.18-2.132-.48-14.62-5.01-19.953-5.17-2.513-.07-8.716.87-11.718 1.35-1.028.17-1.673.15-1.737 1.12-.299 4.54-.888 13.81-1.209 18.65-.006.11.137 1.48 1.283.51 1.253-1.06 3.012-2.23 4.638-1.87 2.552.58 24.628 4.59 27.674 3.89 4.356-1.01 16.687-8.25 19.052-10.5 3.664-3.5.816-7.18-2.254-5.5zm-55.276-6.48l-11.565-.56c-.893-.04-1.805.62-2.027 1.48l-2.103 18.93c-.222.86.328 1.59 1.221 1.62h12.817c.894.04 1.68-.66 1.749-1.54l1.407-18.24a1.578 1.578 0 0 0-1.499-1.69zm-6.808 18.96c-1.767 0-3.198-1.42-3.198-3.17s1.432-3.17 3.198-3.17 3.197 1.42 3.197 3.17-1.432 3.17-3.197 3.17zm59.582-28.15l.821-2.74c.5-1.67-.456-3.42-2.136-3.92-1.68-.49-3.447.46-3.946 2.12l-.807 2.69s-.125.65-.86.43c-.504-.15-2.014-.59-2.014-.59s-.687-.11-.485-.78c.295-.99 1.181-3.94 1.181-3.94.5-1.67-.456-3.42-2.136-3.91a3.17 3.17 0 0 0-3.946 2.12s-.886 2.95-1.182 3.93c-.206.69-.888.38-.888.38l-8.9-2.63c-.625-.18-.635-1.12-.68-1.58a11.982 11.982 0 0 0-8.563-10.33c-6.372-1.88-13.099 1.73-14.996 8.04-1.895 6.32 1.747 12.99 8.119 14.87 5.064 1.5 10.349-.48 13.259-4.52.147-.21.443-.63 1.052-.45l25.123 7.41c1.679.5 3.446-.45 3.946-2.11a3.152 3.152 0 0 0-1.303-3.54c-.251-.16-.795-.5-.659-.95zm-40.212.14c-4.136-1.22-6.5-5.55-5.27-9.65 1.231-4.1 5.598-6.44 9.734-5.22 4.137 1.22 6.501 5.55 5.27 9.65-1.231 4.1-5.597 6.44-9.734 5.22z" fill-opacity=".24" filter="url(#a)" transform="translate(-511 -8579)"/><path d="M72.02 34.92c-4.22 2.31-10.025 4.44-15.813 5.34-5.15.8-14.839-1.13-14.839-3.41 0-.86 8.498 2.13 13.637.77 3.942-1.04 3.383-4.7 1.24-5.18-2.133-.48-14.62-5.01-19.954-5.17-2.513-.07-8.716.87-11.718 1.35-1.028.17-1.673.15-1.737 1.12-.299 4.54-.888 13.81-1.209 18.65-.006.11.137 1.48 1.283.51 1.253-1.06 3.012-2.23 4.638-1.87 2.552.58 24.628 4.59 27.674 3.89 4.356-1.01 16.687-8.25 19.052-10.5 3.664-3.5.816-7.18-2.254-5.5zm-55.276-6.48L5.18 27.88c-.893-.04-1.805.62-2.027 1.48L1.05 48.29c-.222.86.328 1.59 1.221 1.62h12.817c.894.04 1.68-.66 1.75-1.54l1.406-18.24a1.578 1.578 0 0 0-1.499-1.69zM9.936 47.4c-1.767 0-3.198-1.42-3.198-3.17s1.432-3.17 3.198-3.17 3.197 1.42 3.197 3.17-1.432 3.17-3.197 3.17zm59.582-28.15l.821-2.74c.5-1.67-.456-3.42-2.136-3.92-1.68-.49-3.447.46-3.946 2.12l-.807 2.69s-.125.65-.86.43c-.504-.15-2.014-.59-2.014-.59s-.687-.11-.485-.78c.295-.99 1.181-3.94 1.181-3.94.5-1.67-.456-3.42-2.136-3.91a3.17 3.17 0 0 0-3.946 2.12s-.886 2.95-1.182 3.93c-.206.69-.888.38-.888.38l-8.9-2.63c-.625-.18-.635-1.12-.68-1.58A11.982 11.982 0 0 0 34.977.5c-6.372-1.88-13.099 1.73-14.996 8.04-1.895 6.32 1.747 12.99 8.12 14.87 5.063 1.5 10.348-.48 13.258-4.52.147-.21.443-.63 1.052-.45l25.123 7.41c1.68.5 3.446-.45 3.946-2.11a3.152 3.152 0 0 0-1.303-3.54c-.25-.16-.795-.5-.659-.95zm-40.212.14c-4.136-1.22-6.5-5.55-5.27-9.65 1.231-4.1 5.598-6.44 9.734-5.22 4.137 1.22 6.501 5.55 5.27 9.65-1.23 4.1-5.597 6.44-9.734 5.22z" fill="#fff"/></svg>