<svg xmlns="http://www.w3.org/2000/svg" width="59.997" height="66.999"><defs><filter id="a" width="200%" height="200%" x="-50%" y="-50%"><feGaussianBlur stdDeviation=".5" result="SvgjsFeGaussianBlur1069Out" in="SourceGraphic"/></filter></defs><path d="M1102.27 8627.12c-4.21-2.66-4.93-6.17-4.77-8.68.12-1.98.72-3.72 1.78-5.18-1.94-1.09-3.37-1.8-3.94-2.08a.49.49 0 0 1-.29-.44v-10.64a4.935 4.935 0 0 0 2.25-4.14v-11.03c0-5.48-4.49-9.93-10.03-9.93h-2.39c-5.54 0-10.03 4.45-10.03 9.93v11.03c0 1.73.89 3.24 2.24 4.14v10.64c0 .18-.1.36-.28.44-1.52.74-8.95 4.46-15.85 10.06a5.345 5.345 0 0 0-1.96 4.13v7.56h23.52l2.33-10.54c-4.7-6.48.35-6.79 1.23-6.8.88.01 5.93.32 1.23 6.8l2.33 10.54h7.81l.11-.43c.23-.83.44-1.6.69-2.37.13-.45.35-1.02.77-1.57.7-.93 1.77-1.46 2.92-1.46.1 0 .22.01.33.02zm10.89-4.32c-1.24-.69-2.57-1.21-3.9-1.75-.75-.3-1.49-.68-2.13-1.19-1.28-1-1.03-2.62.46-3.27.41-.17.85-.24 1.31-.27 1.72-.09 3.35.22 4.91.97.77.37 1.03.25 1.3-.55.27-.84.51-1.7.76-2.56.16-.58-.04-.95-.58-1.19-1.01-.43-2.03-.75-3.1-.91-1.41-.22-1.41-.23-1.41-1.63-.01-1.98-.01-1.98-2-1.96-.29 0-.59-.02-.87 0-.93.02-1.1.18-1.12 1.11-.02.41 0 .83 0 1.26 0 1.23-.02 1.22-1.21 1.65-2.89 1.04-4.68 2.98-4.87 6.12-.18 2.76 1.29 4.64 3.59 5.99 1.42.84 2.97 1.34 4.48 1.98.58.26 1.13.55 1.63.95 1.45 1.18 1.18 3.14-.52 3.88-.92.4-1.89.49-2.87.37-1.53-.19-3.01-.59-4.37-1.3-.82-.41-1.05-.31-1.32.56-.24.75-.44 1.51-.65 2.27-.28 1.02-.17 1.26.8 1.73 1.25.6 2.59.91 3.94 1.12 1.07.16 1.1.22 1.11 1.32 0 .49.01.99.01 1.48.02.63.31 1 .96 1.01.75.01 1.48.01 2.22 0 .61-.01.92-.34.92-.95 0-.69.04-1.37 0-2.04-.02-.7.27-1.04.95-1.22 1.54-.41 2.86-1.23 3.87-2.46 2.76-3.38 1.69-8.34-2.3-10.52z" fill-opacity=".24" filter="url(#a)" transform="translate(-1058.001 -8574)"/><path d="M44.269 52.12c-4.21-2.66-4.93-6.17-4.77-8.68.12-1.98.72-3.72 1.78-5.18-1.94-1.09-3.37-1.8-3.94-2.08a.49.49 0 0 1-.29-.44V25.1a4.935 4.935 0 0 0 2.25-4.14V9.93c0-5.48-4.49-9.93-10.03-9.93h-2.39c-5.54 0-10.03 4.45-10.03 9.93v11.03c0 1.73.89 3.24 2.24 4.14v10.64c0 .18-.1.36-.28.44-1.52.74-8.95 4.46-15.85 10.06a5.345 5.345 0 0 0-1.96 4.13v7.56h23.52l2.33-10.54c-4.7-6.48.35-6.79 1.23-6.8.88.01 5.93.32 1.23 6.8l2.33 10.54h7.81l.11-.43c.23-.83.44-1.6.69-2.37.13-.45.35-1.02.77-1.57.7-.93 1.77-1.46 2.92-1.46.1 0 .22.01.33.02zm10.89-4.32c-1.24-.69-2.57-1.21-3.9-1.75-.75-.3-1.49-.68-2.13-1.19-1.28-1-1.03-2.62.46-3.27.41-.17.85-.24 1.31-.27 1.72-.09 3.35.22 4.91.97.77.37 1.03.25 1.3-.55.27-.84.51-1.7.76-2.56.16-.58-.04-.95-.58-1.19-1.01-.43-2.03-.75-3.1-.91-1.41-.22-1.41-.23-1.41-1.63-.01-1.98-.01-1.98-2-1.96-.29 0-.59-.02-.87 0-.93.02-1.1.18-1.12 1.11-.02.41 0 .83 0 1.26 0 1.23-.02 1.22-1.21 1.65-2.89 1.04-4.68 2.98-4.87 6.12-.18 2.76 1.29 4.64 3.59 5.99 1.42.84 2.97 1.34 4.48 1.98.58.26 1.13.55 1.63.95 1.45 1.18 1.18 3.14-.52 3.88-.92.4-1.89.49-2.87.37-1.53-.19-3.01-.59-4.37-1.3-.82-.41-1.05-.31-1.32.56-.24.75-.44 1.51-.65 2.27-.28 1.02-.17 1.26.8 1.73 1.25.6 2.59.91 3.94 1.12 1.07.16 1.1.22 1.11 1.32 0 .49.01.99.01 1.48.02.63.31 1 .96 1.01.75.01 1.48.01 2.22 0 .61-.01.92-.34.92-.95 0-.69.04-1.37 0-2.04-.02-.7.27-1.04.95-1.22 1.54-.41 2.86-1.23 3.87-2.46 2.76-3.38 1.69-8.34-2.3-10.52z" fill="#fff"/></svg>