<svg id="SvgjsSvg1113" xmlns="http://www.w3.org/2000/svg" version="1.1" xmlns:xlink="http://www.w3.org/1999/xlink" xmlns:svgjs="http://svgjs.com/svgjs" width="37" height="39"><defs id="SvgjsDefs1114"></defs><path id="SvgjsPath1115" d="M1122.49 3683.98L1119.48 3681.04C1119.06 3680.64 1118.6100000000001 3680.45 1118.09 3680.45C1117.6399999999999 3680.45 1117.23 3680.6299999999997 1116.87 3680.97L1114.4599999999998 3683.2799999999997L1104.85 3692.6499999999996C1104.6799999999998 3692.8599999999997 1104.59 3693.0299999999997 1104.56 3693.1299999999997L1102.95 3698.68C1102.92 3698.7999999999997 1102.89 3698.91 1102.89 3699.0299999999997C1102.89 3699.4999999999995 1103.3600000000001 3699.9999999999995 1103.97 3699.9999999999995C1104.1100000000001 3699.9999999999995 1104.21 3699.9799999999996 1104.28 3699.9599999999996L1109.94 3698.3599999999997C1110.13 3698.2999999999997 1110.29 3698.24 1110.41 3698.1299999999997L1120.0800000000002 3688.72L1122.45 3686.41C1122.76 3686.1 1122.94 3685.72 1123 3685.2599999999998C1123 3684.7499999999995 1122.82 3684.31 1122.49 3683.9799999999996ZM1109.1 3696.45L1105.54 3697.4199999999996L1106.58 3693.95L1115.23 3685.5099999999998L1117.79 3687.97ZM1107.69 3679.36L1090.8600000000001 3679.36C1090.2500000000002 3679.36 1089.7800000000002 3679.82 1089.7800000000002 3680.4100000000003C1089.7800000000002 3681.0000000000005 1090.2500000000002 3681.4800000000005 1090.8600000000001 3681.4800000000005L1107.69 3681.4800000000005C1108.3 3681.4800000000005 1108.77 3681.0000000000005 1108.77 3680.4100000000003C1108.77 3679.82 1108.3 3679.36 1107.69 3679.36ZM1108.77 3685.15C1108.77 3684.56 1108.3 3684.1 1107.69 3684.1L1090.8600000000001 3684.1C1090.2500000000002 3684.1 1089.7800000000002 3684.56 1089.7800000000002 3685.15C1089.7800000000002 3685.7400000000002 1090.2500000000002 3686.2200000000003 1090.8600000000001 3686.2200000000003L1107.69 3686.2200000000003C1108.3 3686.2200000000003 1108.77 3685.7400000000002 1108.77 3685.15ZM1098.67 3688.79L1090.8600000000001 3688.79C1090.2500000000002 3688.79 1089.7800000000002 3689.25 1089.7800000000002 3689.84C1089.7800000000002 3690.44 1090.2500000000002 3690.8900000000003 1090.8600000000001 3690.8900000000003L1098.67 3690.8900000000003C1099.27 3690.8900000000003 1099.76 3690.4400000000005 1099.76 3689.84C1099.76 3689.25 1099.27 3688.79 1098.67 3688.79ZM1098.67 3693.53L1090.8600000000001 3693.53C1090.2500000000002 3693.53 1089.7800000000002 3693.9900000000002 1089.7800000000002 3694.5800000000004C1089.7800000000002 3695.1700000000005 1090.2500000000002 3695.6300000000006 1090.8600000000001 3695.6300000000006L1098.67 3695.6300000000006C1099.27 3695.6300000000006 1099.76 3695.1700000000005 1099.76 3694.5800000000004C1099.76 3693.9900000000002 1099.27 3693.53 1098.67 3693.53ZM1119.32 3686.48L1116.75 3684.02L1118.13 3682.68L1120.65 3685.1499999999996ZM1088.17 3697.71L1088.17 3663.29C1088.17 3663.16 1088.23 3663.1 1088.3700000000001 3663.1L1096.4 3663.1L1096.4 3674.44C1096.4 3675.7400000000002 1097.41 3676.79 1098.74 3676.79L1110.3700000000001 3676.79L1110.3700000000001 3683.2L1112.5500000000002 3683.2L1112.5500000000002 3674.6699999999996L1112.5100000000002 3674.6699999999996L1098.5500000000002 3661.0399999999995L1098.5100000000002 3660.9999999999995L1088.3700000000001 3660.9999999999995C1087.7 3660.9999999999995 1087.14 3661.2299999999996 1086.69 3661.6699999999996C1086.23 3662.1099999999997 1086 3662.6599999999994 1086 3663.2899999999995L1086 3697.7099999999996C1086 3699.0099999999998 1087.04 3699.9999999999995 1088.37 3699.9999999999995L1101.1499999999999 3699.9999999999995L1101.1499999999999 3697.8999999999996L1088.37 3697.8999999999996C1088.2299999999998 3697.8999999999996 1088.1699999999998 3697.8399999999997 1088.1699999999998 3697.7099999999996ZM1109.45 3674.67L1098.74 3674.67C1098.61 3674.67 1098.55 3674.59 1098.55 3674.44L1098.55 3664.03Z " fill="#333333" transform="matrix(1,0,0,1,-1086,-3661)"></path></svg>