<svg id="SvgjsSvg1101" xmlns="http://www.w3.org/2000/svg" version="1.1" xmlns:xlink="http://www.w3.org/1999/xlink" xmlns:svgjs="http://svgjs.com/svgjs" width="34" height="53"><defs id="SvgjsDefs1102"></defs><path id="SvgjsPath1103" d="M959.758 3456.96C958.3720000000001 3456.96 957.244 3458.09 957.244 3459.48C957.244 3460.86 958.3720000000001 3461.9900000000002 959.758 3461.9900000000002C961.144 3461.9900000000002 962.272 3460.86 962.272 3459.48C962.272 3458.09 961.144 3456.96 959.758 3456.96ZM953.137 3456.14C952.6629999999999 3456.14 952.2779999999999 3456.52 952.2779999999999 3456.99L952.2779999999999 3461.1299999999997C952.2779999999999 3461.5999999999995 952.6629999999999 3461.99 953.137 3461.99C953.611 3461.99 953.996 3461.6 953.996 3461.1299999999997L953.996 3456.99C953.996 3456.52 953.611 3456.14 953.137 3456.14ZM959.758 3460.27C959.3190000000001 3460.27 958.962 3459.91 958.962 3459.48C958.962 3459.04 959.319 3458.68 959.758 3458.68C960.197 3458.68 960.5540000000001 3459.04 960.5540000000001 3459.48C960.5540000000001 3459.91 960.1970000000001 3460.27 959.758 3460.27ZM977.794 3471.72C977.529 3471.1 977.04 3470.62 976.417 3470.3799999999997L971.451 3468.39C970.4440000000001 3467.99 969.327 3468.29 968.642 3469.0499999999997L963.928 3467.1699999999996L963.928 3467.0099999999998C963.928 3466.0299999999997 963.131 3465.2299999999996 962.152 3465.2299999999996L959.7900000000001 3465.2299999999996L959.7900000000001 3464.4699999999993L964.724 3464.4699999999993C966.11 3464.4699999999993 967.238 3463.3399999999992 967.238 3461.959999999999L967.238 3456.169999999999C967.238 3454.7799999999993 966.11 3453.649999999999 964.724 3453.649999999999L964.427 3453.649999999999L964.2950000000001 3453.389999999999C963.8660000000001 3452.529999999999 963.004 3451.999999999999 962.0450000000001 3451.999999999999L957.4710000000001 3451.999999999999C956.5120000000002 3451.999999999999 955.6500000000001 3452.5299999999993 955.2220000000001 3453.389999999999L955.089 3453.649999999999L952.3090000000001 3453.649999999999C950.9230000000001 3453.649999999999 949.7950000000001 3454.7799999999993 949.7950000000001 3456.169999999999L949.7950000000001 3461.959999999999C949.7950000000001 3463.3399999999992 950.9230000000001 3464.4699999999993 952.3090000000001 3464.4699999999993L958.071 3464.4699999999993L958.071 3465.2299999999996L953.1370000000001 3465.2299999999996C951.7510000000001 3465.2299999999996 950.623 3466.3599999999997 950.623 3467.7499999999995C950.623 3469.1299999999997 951.7510000000001 3470.2599999999998 953.1370000000001 3470.2599999999998L958.071 3470.2599999999998L958.071 3471.02L954.792 3471.02C954.318 3471.02 953.933 3471.41 953.933 3471.88C953.933 3472.36 954.318 3472.7400000000002 954.792 3472.7400000000002L955.226 3472.7400000000002L944.052 3503.8500000000004C943.892 3504.3 944.124 3504.7900000000004 944.571 3504.9500000000003C944.666 3504.9800000000005 944.764 3505.0000000000005 944.861 3505.0000000000005C945.213 3505.0000000000005 945.543 3504.7800000000007 945.669 3504.4300000000003L950.813 3490.11L958.071 3490.11L958.071 3504.1400000000003C958.071 3504.61 958.456 3505.0000000000005 958.9300000000001 3505.0000000000005C959.4050000000001 3505.0000000000005 959.7900000000001 3504.6100000000006 959.7900000000001 3504.1400000000003L959.7900000000001 3490.11L967.0480000000001 3490.11L972.1920000000001 3504.4300000000003C972.3170000000001 3504.78 972.6480000000001 3505.0000000000005 973.0000000000001 3505.0000000000005C973.0960000000001 3505.0000000000005 973.1940000000001 3504.9800000000005 973.2900000000001 3504.9500000000003C973.7370000000001 3504.7900000000004 973.969 3504.3 973.8090000000001 3503.8500000000004L962.6340000000001 3472.7400000000002L963.0690000000001 3472.7400000000002C963.5430000000001 3472.7400000000002 963.927 3472.36 963.927 3471.88C963.927 3471.4100000000003 963.543 3471.02 963.0690000000001 3471.02L959.7890000000001 3471.02L959.7890000000001 3470.2599999999998L962.1520000000002 3470.2599999999998C962.9570000000001 3470.2599999999998 963.6380000000001 3469.72 963.8540000000002 3468.99L968.0060000000002 3470.64C967.9940000000003 3471.0099999999998 968.0590000000002 3471.37 968.2060000000002 3471.71C968.4710000000002 3472.33 968.9600000000003 3472.81 969.5830000000002 3473.06L974.5490000000002 3475.04C974.8470000000002 3475.16 975.1610000000002 3475.22 975.4820000000002 3475.22C976.5160000000002 3475.22 977.4330000000002 3474.6 977.8170000000002 3473.64C978.0670000000002 3473.02 978.0580000000002 3472.3399999999997 977.7940000000002 3471.72ZM951.513 3461.96L951.513 3456.17C951.513 3455.73 951.87 3455.37 952.3090000000001 3455.37L955.6200000000001 3455.37C955.9450000000002 3455.37 956.2430000000002 3455.19 956.3880000000001 3454.9L956.7580000000002 3454.1600000000003C956.8940000000001 3453.88 957.1670000000001 3453.7200000000003 957.4700000000001 3453.7200000000003L962.0450000000002 3453.7200000000003C962.3490000000002 3453.7200000000003 962.6220000000002 3453.88 962.7570000000002 3454.1600000000003L963.1280000000002 3454.9C963.2730000000001 3455.19 963.5700000000002 3455.37 963.8960000000002 3455.37L964.7240000000002 3455.37C965.1630000000001 3455.37 965.5200000000002 3455.73 965.5200000000002 3456.17L965.5200000000002 3461.96C965.5200000000002 3462.4 965.1630000000002 3462.75 964.7240000000002 3462.75L963.5240000000001 3462.75C964.2900000000001 3461.87 964.7550000000001 3460.73 964.7550000000001 3459.48C964.7550000000001 3456.72 962.5130000000001 3454.48 959.7580000000002 3454.48C957.0020000000002 3454.48 954.7610000000002 3456.72 954.7610000000002 3459.48C954.7610000000002 3460.73 955.2260000000002 3461.87 955.9920000000002 3462.75L952.3090000000002 3462.75C951.8700000000002 3462.75 951.5130000000001 3462.4 951.5130000000001 3461.96ZM966.431 3488.39L959.789 3488.39L959.789 3472.74L960.809 3472.74ZM951.43 3488.39L957.0519999999999 3472.74L958.0709999999999 3472.74L958.0709999999999 3488.39ZM959.758 3462.75C957.95 3462.75 956.479 3461.28 956.479 3459.48C956.479 3457.67 957.95 3456.2 959.758 3456.2C961.566 3456.2 963.037 3457.6699999999996 963.037 3459.48C963.037 3461.28 961.566 3462.75 959.758 3462.75ZM976.222 3473C976.1 3473.31 975.81 3473.51 975.482 3473.51C975.381 3473.51 975.2819999999999 3473.4900000000002 975.187 3473.4500000000003L970.221 3471.4600000000005C970.024 3471.3800000000006 969.869 3471.2300000000005 969.785 3471.0400000000004C969.701 3470.8400000000006 969.699 3470.6300000000006 969.778 3470.4300000000003C969.902 3470.1200000000003 970.202 3469.9300000000003 970.518 3469.9300000000003C970.616 3469.9300000000003 970.716 3469.9500000000003 970.813 3469.9900000000002L975.778 3471.9700000000003C975.976 3472.05 976.131 3472.2000000000003 976.215 3472.4C976.298 3472.59 976.301 3472.81 976.222 3473ZM962.152 3468.54L955.6510000000001 3468.54L955.6510000000001 3466.95L962.152 3466.95C962.1840000000001 3466.95 962.2090000000001 3466.98 962.2090000000001 3467.0099999999998L962.2090000000001 3468.4799999999996C962.2090000000001 3468.5199999999995 962.1840000000001 3468.5399999999995 962.152 3468.5399999999995ZM952.341 3467.75C952.341 3467.31 952.698 3466.95 953.1370000000001 3466.95L953.9330000000001 3466.95L953.9330000000001 3468.54L953.1370000000001 3468.54C952.6980000000001 3468.54 952.341 3468.19 952.341 3467.75Z " fill="#333333" transform="matrix(1,0,0,1,-944,-3452)"></path></svg>