<svg id="SvgjsSvg1098" xmlns="http://www.w3.org/2000/svg" version="1.1" xmlns:xlink="http://www.w3.org/1999/xlink" xmlns:svgjs="http://svgjs.com/svgjs" width="59" height="31"><defs id="SvgjsDefs1099"></defs><path id="SvgjsPath1100" d="M699.556 3474.42L691.125 3473.4900000000002L686.626 3466.4700000000003C685.252 3464.3300000000004 682.77 3463.0000000000005 680.1469999999999 3463.0000000000005L664.8409999999999 3463.0000000000005C660.4409999999999 3463.0000000000005 656.5519999999999 3465.8400000000006 655.3839999999999 3469.9100000000003L655.2649999999999 3470.3300000000004C654.6839999999999 3472.3500000000004 653.0169999999998 3473.9600000000005 650.9119999999999 3474.53C649.1979999999999 3475 647.9999999999999 3476.51 647.9999999999999 3478.2200000000003L647.9999999999999 3488.26C647.9999999999999 3488.76 648.4229999999999 3489.17 648.9449999999999 3489.17L653.8019999999999 3489.17C654.4019999999999 3491.92 656.9529999999999 3494 659.9999999999999 3494C663.0479999999999 3494 665.5989999999999 3491.92 666.1979999999999 3489.17L686.7799999999999 3489.17C687.3789999999999 3491.92 689.9299999999998 3494 692.9779999999998 3494C696.0249999999999 3494 698.5759999999998 3491.92 699.1749999999998 3489.17L704.2749999999999 3489.17C704.7549999999999 3489.17 705.1589999999999 3488.82 705.2129999999999 3488.36L705.9529999999999 3482.1400000000003C706.4079999999999 3478.32 703.5379999999999 3474.8500000000004 699.5559999999998 3474.4200000000005ZM692.978 3481.85C690.837 3481.85 688.943 3482.87 687.7969999999999 3484.44L670.9819999999999 3484.44C670.4609999999999 3484.44 670.0379999999999 3484.84 670.0379999999999 3485.34C670.0379999999999 3485.8500000000004 670.4609999999999 3486.25 670.9819999999999 3486.25L686.8919999999998 3486.25C686.7859999999998 3486.61 686.7119999999999 3486.97 686.6749999999998 3487.35L666.3029999999999 3487.35C666.0019999999998 3484.27 663.2909999999999 3481.85 659.9999999999999 3481.85C657.8599999999999 3481.85 655.9659999999999 3482.87 654.8189999999998 3484.44L649.8899999999999 3484.44L649.8899999999999 3478.2200000000003C649.8899999999999 3477.32 650.5209999999998 3476.5200000000004 651.4249999999998 3476.28C654.1619999999998 3475.5400000000004 656.3319999999999 3473.44 657.0869999999999 3470.8100000000004L657.2059999999999 3470.3900000000003C658.1489999999999 3467.11 661.2889999999999 3464.8100000000004 664.8409999999999 3464.8100000000004L680.1469999999999 3464.8100000000004C682.1179999999999 3464.8100000000004 683.9839999999999 3465.8100000000004 685.016 3467.4200000000005L689.756 3474.8200000000006C689.909 3475.0600000000004 690.1659999999999 3475.2100000000005 690.454 3475.2400000000007L699.3409999999999 3476.2200000000007C701.3569999999999 3476.4400000000005 702.9869999999999 3477.7100000000005 703.709 3479.390000000001L700.7589999999999 3479.390000000001C700.2369999999999 3479.390000000001 699.8139999999999 3479.8000000000006 699.8139999999999 3480.3000000000006C699.8139999999999 3480.8000000000006 700.2369999999999 3481.2100000000005 700.7589999999999 3481.2100000000005L704.108 3481.2100000000005C704.1139999999999 3481.4500000000003 704.1049999999999 3481.6900000000005 704.0759999999999 3481.9300000000003L703.7779999999999 3484.4400000000005L698.1579999999999 3484.4400000000005C697.012 3482.8700000000003 695.1169999999998 3481.8500000000004 692.978 3481.8500000000004ZM660 3492.19C657.551 3492.19 655.559 3490.27 655.559 3487.92C655.559 3485.57 657.5509999999999 3483.66 660 3483.66C662.449 3483.66 664.442 3485.5699999999997 664.442 3487.92C664.442 3490.27 662.449 3492.19 660 3492.19ZM692.978 3492.19C690.5279999999999 3492.19 688.536 3490.27 688.536 3487.92C688.536 3485.57 690.5279999999999 3483.66 692.978 3483.66C695.4269999999999 3483.66 697.419 3485.5699999999997 697.419 3487.92C697.419 3490.27 695.427 3492.19 692.978 3492.19ZM660 3484.9C658.261 3484.9 656.846 3486.25 656.846 3487.92C656.846 3489.59 658.261 3490.9500000000003 660 3490.9500000000003C661.74 3490.9500000000003 663.155 3489.59 663.155 3487.92C663.155 3486.25 661.74 3484.9 660 3484.9ZM692.978 3484.9C691.2379999999999 3484.9 689.823 3486.25 689.823 3487.92C689.823 3489.59 691.2379999999999 3490.9500000000003 692.978 3490.9500000000003C694.717 3490.9500000000003 696.132 3489.59 696.132 3487.92C696.132 3486.25 694.717 3484.9 692.978 3484.9ZM667.508 3477.6C667.508 3477.1 667.085 3476.69 666.563 3476.69L664.578 3476.69C664.0559999999999 3476.69 663.6329999999999 3477.1 663.6329999999999 3477.6C663.6329999999999 3478.1 664.0559999999999 3478.5 664.578 3478.5L666.563 3478.5C667.085 3478.5 667.508 3478.1 667.508 3477.6ZM680.197 3476.69L678.211 3476.69C677.69 3476.69 677.267 3477.1 677.267 3477.6C677.267 3478.1 677.69 3478.5 678.211 3478.5L680.197 3478.5C680.719 3478.5 681.142 3478.1 681.142 3477.6C681.142 3477.1 680.719 3476.69 680.197 3476.69ZM660 3489.14C659.303 3489.14 658.735 3488.5899999999997 658.735 3487.92C658.735 3487.25 659.303 3486.71 660 3486.71C660.698 3486.71 661.265 3487.25 661.265 3487.92C661.265 3488.59 660.698 3489.14 660 3489.14ZM692.978 3489.14C692.28 3489.14 691.713 3488.5899999999997 691.713 3487.92C691.713 3487.25 692.28 3486.71 692.978 3486.71C693.675 3486.71 694.242 3487.25 694.242 3487.92C694.242 3488.59 693.675 3489.14 692.978 3489.14ZM699.28 3487.35C699.2429999999999 3486.97 699.169 3486.61 699.063 3486.25L703.562 3486.25L703.431 3487.35ZM649.89 3486.25L653.915 3486.25C653.809 3486.61 653.735 3486.97 653.698 3487.35L649.89 3487.35ZM667.667 3484.45C667.283 3484.5 666.972 3484.7799999999997 666.885 3485.1499999999996C666.696 3485.93 667.6469999999999 3486.5399999999995 668.338 3486.0899999999997C668.704 3485.85 668.847 3485.39 668.678 3484.9999999999995C668.513 3484.6199999999994 668.092 3484.3799999999997 667.667 3484.4499999999994ZM668.678 3485C668.702 3485.05 668.654 3484.94 668.678 3485ZM684.033 3468.01C683.21 3466.7200000000003 681.721 3465.92 680.147 3465.92L664.841 3465.92C661.806 3465.92 659.125 3467.88 658.32 3470.69L658.201 3471.1C657.89 3472.19 657.4110000000001 3474.0499999999997 657.3910000000001 3474.13C657.321 3474.4 657.3850000000001 3474.6800000000003 657.5640000000001 3474.9C657.743 3475.12 658.018 3475.25 658.3080000000001 3475.25L686.9870000000001 3475.25C687.3290000000001 3475.25 687.6450000000001 3475.07 687.8120000000001 3474.79C687.9790000000002 3474.5 687.9710000000001 3474.15 687.7920000000001 3473.87ZM675.005 3473.44L675.005 3467.73L680.147 3467.73C681.0690000000001 3467.73 681.941 3468.2 682.423 3468.96L685.296 3473.44ZM673.115 3473.44L664.415 3473.44L664.415 3467.75C664.5559999999999 3467.74 664.698 3467.73 664.841 3467.73L673.115 3467.73ZM660.023 3471.59L660.142 3471.17C660.5020000000001 3469.91 661.3850000000001 3468.89 662.5260000000001 3468.3L662.5260000000001 3473.44L659.5190000000001 3473.44C659.6780000000001 3472.83 659.8730000000002 3472.11 660.0230000000001 3471.59Z " fill="#333333" transform="matrix(1,0,0,1,-648,-3463)"></path></svg>