<svg id="SvgjsSvg1122" xmlns="http://www.w3.org/2000/svg" version="1.1" xmlns:xlink="http://www.w3.org/1999/xlink" xmlns:svgjs="http://svgjs.com/svgjs" width="81.00100270894518" height="44"><defs id="SvgjsDefs1123"><filter id="SvgjsFilter1125" width="200%" height="200%" x="-50%" y="-50%"><feGaussianBlur id="SvgjsFeGaussianBlur1126" stdDeviation="0.5 " result="SvgjsFeGaussianBlur1126Out" in="SourceGraphic"></feGaussianBlur></filter></defs><path id="SvgjsPath1124" d="M858.805 8292.27L845.2529999999999 8287.17L831.9359999999999 8272.98C831.3449999999999 8272.359999999999 830.526 8272 829.67 8272L799.2339999999999 8272C798.2149999999999 8272 797.2599999999999 8272.5 796.679 8273.35L786.5459999999999 8288.06C786.5459999999999 8288.06 786.5429999999999 8288.07 786.5429999999999 8288.08C786.387 8288.3 786.2759999999998 8288.55 786.1869999999999 8288.81C786.1599999999999 8288.88 786.0089999999999 8289.529999999999 786.0039999999999 8289.789999999999C786.0039999999999 8289.81 785.9979999999999 8289.82 785.9979999999999 8289.83L785.9979999999999 8302.99C785.9979999999999 8304.71 787.3889999999999 8306.1 789.1039999999999 8306.1L792.069 8306.1C792.9799999999999 8310.6 796.953 8314 801.7009999999999 8314C806.4549999999999 8314 810.4279999999999 8310.6 811.3409999999999 8306.1L837.2919999999999 8306.1C838.2069999999999 8310.6 842.1779999999999 8314 846.9269999999999 8314C851.6779999999999 8314 855.651 8310.6 856.5659999999999 8306.1L861.8899999999999 8306.1C863.6089999999999 8306.1 864.9989999999999 8304.710000000001 864.9989999999999 8302.99L864.9989999999999 8301.24C865.002 8297.27 862.5129999999999 8293.66 858.805 8292.27ZM814.658 8286.72L814.658 8278.24L828.3340000000001 8278.24L836.297 8286.72ZM795.026 8286.72L800.8639999999999 8278.24L808.4369999999999 8278.24L808.4369999999999 8286.72ZM801.706 8307.76C799.706 8307.76 798.086 8306.14 798.086 8304.130000000001C798.086 8302.12 799.706 8300.500000000002 801.706 8300.500000000002C803.7090000000001 8300.500000000002 805.332 8302.120000000003 805.332 8304.130000000001C805.332 8306.140000000001 803.709 8307.76 801.706 8307.76ZM846.846 8307.76C844.845 8307.76 843.226 8306.14 843.226 8304.130000000001C843.226 8302.12 844.845 8300.500000000002 846.846 8300.500000000002C848.847 8300.500000000002 850.47 8302.120000000003 850.47 8304.130000000001C850.47 8306.140000000001 848.847 8307.76 846.846 8307.76Z " fill="#000000" fill-opacity="0.24" filter="url(#SvgjsFilter1125)" transform="matrix(1,0,0,1,-784.4994986455274,-8271)"></path><path id="SvgjsPath1127" d="M858.805 8291.27L845.2529999999999 8286.17L831.9359999999999 8271.98C831.3449999999999 8271.359999999999 830.526 8271 829.67 8271L799.2339999999999 8271C798.2149999999999 8271 797.2599999999999 8271.5 796.679 8272.35L786.5459999999999 8287.06C786.5459999999999 8287.06 786.5429999999999 8287.07 786.5429999999999 8287.08C786.387 8287.3 786.2759999999998 8287.55 786.1869999999999 8287.81C786.1599999999999 8287.88 786.0089999999999 8288.529999999999 786.0039999999999 8288.789999999999C786.0039999999999 8288.81 785.9979999999999 8288.82 785.9979999999999 8288.83L785.9979999999999 8301.99C785.9979999999999 8303.71 787.3889999999999 8305.1 789.1039999999999 8305.1L792.069 8305.1C792.9799999999999 8309.6 796.953 8313 801.7009999999999 8313C806.4549999999999 8313 810.4279999999999 8309.6 811.3409999999999 8305.1L837.2919999999999 8305.1C838.2069999999999 8309.6 842.1779999999999 8313 846.9269999999999 8313C851.6779999999999 8313 855.651 8309.6 856.5659999999999 8305.1L861.8899999999999 8305.1C863.6089999999999 8305.1 864.9989999999999 8303.710000000001 864.9989999999999 8301.99L864.9989999999999 8300.24C865.002 8296.27 862.5129999999999 8292.66 858.805 8291.27ZM814.658 8285.72L814.658 8277.24L828.3340000000001 8277.24L836.297 8285.72ZM795.026 8285.72L800.8639999999999 8277.24L808.4369999999999 8277.24L808.4369999999999 8285.72ZM801.706 8306.76C799.706 8306.76 798.086 8305.14 798.086 8303.130000000001C798.086 8301.12 799.706 8299.500000000002 801.706 8299.500000000002C803.7090000000001 8299.500000000002 805.332 8301.120000000003 805.332 8303.130000000001C805.332 8305.140000000001 803.709 8306.76 801.706 8306.76ZM846.846 8306.76C844.845 8306.76 843.226 8305.14 843.226 8303.130000000001C843.226 8301.12 844.845 8299.500000000002 846.846 8299.500000000002C848.847 8299.500000000002 850.47 8301.120000000003 850.47 8303.130000000001C850.47 8305.140000000001 848.847 8306.76 846.846 8306.76Z " fill="#ffffff" transform="matrix(1,0,0,1,-784.4994986455274,-8271)"></path></svg>