<svg id="SvgjsSvg1104" xmlns="http://www.w3.org/2000/svg" version="1.1" xmlns:xlink="http://www.w3.org/1999/xlink" xmlns:svgjs="http://svgjs.com/svgjs" width="61" height="40"><defs id="SvgjsDefs1105"><filter id="SvgjsFilter1107" width="200%" height="200%" x="-50%" y="-50%"><feGaussianBlur id="SvgjsFeGaussianBlur1108" stdDeviation="0.5 " result="SvgjsFeGaussianBlur1108Out" in="SourceGraphic"></feGaussianBlur></filter></defs><path id="SvgjsPath1106" d="M1274.04 3493.12L1265.83 3493.12L1265.83 3486.92C1269.84 3486.4500000000003 1272.96 3483.08 1272.96 3479.01C1272.96 3471.9300000000003 1266.02 3458.11 1265.73 3457.5200000000004C1265.56 3457.2000000000003 1265.23 3457.0000000000005 1264.8700000000001 3457.0000000000005C1264.5100000000002 3457.0000000000005 1264.17 3457.2000000000003 1264.0100000000002 3457.5200000000004C1264.0000000000002 3457.5600000000004 1262.1900000000003 3461.1400000000003 1260.4100000000003 3465.5200000000004C1259.0000000000002 3469.0000000000005 1258.0000000000002 3472.0000000000005 1257.4100000000003 3474.4900000000002L1245.9700000000003 3468.1600000000003C1245.6800000000003 3468.0000000000005 1245.3200000000002 3468.0000000000005 1245.0300000000002 3468.1600000000003L1238.3000000000002 3471.88L1238.3000000000002 3470.92L1238.3600000000001 3470.92C1238.89 3470.92 1239.3200000000002 3470.5 1239.3200000000002 3469.98C1239.3200000000002 3469.46 1238.89 3469.04 1238.3600000000001 3469.04L1232.2500000000002 3469.04C1231.7200000000003 3469.04 1231.2900000000002 3469.46 1231.2900000000002 3469.98C1231.2900000000002 3470.5 1231.7200000000003 3470.92 1232.2500000000002 3470.92L1232.3100000000002 3470.92L1232.3100000000002 3475.2000000000003L1231.3500000000001 3475.7300000000005C1231.15 3474.9000000000005 1230.91 3474.0400000000004 1230.65 3473.2100000000005C1229.3300000000002 3469.0500000000006 1227.8500000000001 3467.0300000000007 1226.13 3467.0300000000007C1224.41 3467.0300000000007 1222.93 3469.0500000000006 1221.6100000000001 3473.2000000000007C1220.67 3476.1900000000005 1220.0800000000002 3479.4500000000007 1220.0800000000002 3480.770000000001C1220.0800000000002 3483.360000000001 1222.2900000000002 3485.5100000000007 1225.17 3485.900000000001L1225.17 3493.120000000001L1216.96 3493.120000000001C1216.43 3493.120000000001 1216 3493.540000000001 1216 3494.060000000001C1216 3494.580000000001 1216.43 3495.000000000001 1216.96 3495.000000000001L1274.04 3495.000000000001C1274.57 3495.000000000001 1275 3494.580000000001 1275 3494.060000000001C1275 3493.540000000001 1274.57 3493.120000000001 1274.04 3493.120000000001ZM1248.56 3481.08L1242.44 3481.08C1241.91 3481.08 1241.49 3481.5 1241.49 3482.02L1241.49 3493.12L1231.16 3493.12L1231.16 3483.65C1231.66 3483.01 1232 3482.27 1232.13 3481.4700000000003L1245.5 3474.07L1256.9 3480.38C1256.95 3480.6400000000003 1257.01 3480.9 1257.0800000000002 3481.15C1256.9600000000003 3481.1 1256.8400000000001 3481.08 1256.7100000000003 3481.08L1252.6400000000003 3481.08C1252.1100000000004 3481.08 1251.6800000000003 3481.5 1251.6800000000003 3482.02L1251.6800000000003 3489.04C1251.6800000000003 3489.56 1252.1100000000004 3489.98 1252.6400000000003 3489.98L1256.7100000000003 3489.98C1257.2400000000002 3489.98 1257.6700000000003 3489.56 1257.6700000000003 3489.04L1257.6700000000003 3482.64C1258.2000000000003 3483.65 1258.9400000000003 3484.5299999999997 1259.8400000000004 3485.24L1259.8400000000004 3493.12L1249.5100000000004 3493.12L1249.5100000000004 3482.02C1249.5100000000004 3481.5 1249.0900000000004 3481.08 1248.5600000000004 3481.08ZM1264.87 3460.13C1266.7399999999998 3464.1 1271.05 3473.79 1271.05 3479.01C1271.05 3482.0400000000004 1268.78 3484.5600000000004 1265.83 3485.0200000000004L1265.83 3479.4000000000005L1268.6 3476.6600000000008C1268.98 3476.3000000000006 1268.98 3475.7000000000007 1268.6 3475.330000000001C1268.23 3474.9700000000007 1267.62 3474.9700000000007 1267.25 3475.330000000001L1265.83 3476.7400000000007L1265.83 3475.000000000001C1265.83 3474.480000000001 1265.3999999999999 3474.050000000001 1264.87 3474.050000000001C1264.34 3474.050000000001 1263.9099999999999 3474.480000000001 1263.9099999999999 3475.000000000001L1263.9099999999999 3479.750000000001L1262.4899999999998 3478.340000000001C1262.1099999999997 3477.980000000001 1261.5099999999998 3477.980000000001 1261.1399999999999 3478.340000000001C1260.7599999999998 3478.710000000001 1260.7599999999998 3479.310000000001 1261.1399999999999 3479.670000000001L1263.9099999999999 3482.4100000000008L1263.9099999999999 3485.020000000001C1260.9599999999998 3484.560000000001 1258.6899999999998 3482.040000000001 1258.6899999999998 3479.0100000000007C1258.6899999999998 3473.790000000001 1262.9899999999998 3464.100000000001 1264.87 3460.1300000000006ZM1245.5 3470.05L1257.01 3476.4300000000003C1256.91 3477.05 1256.84 3477.63 1256.81 3478.17L1245.97 3472.17C1245.68 3472.01 1245.32 3472.01 1245.03 3472.17L1232.06 3479.35C1231.99 3478.85 1231.8999999999999 3478.27 1231.78 3477.65ZM1221.99 3480.77C1221.99 3479.77 1222.51 3476.7 1223.44 3473.77C1224.7 3469.79 1225.81 3468.91 1226.13 3468.91C1226.45 3468.91 1227.5600000000002 3469.79 1228.8200000000002 3473.77C1229.7600000000002 3476.7 1230.2700000000002 3479.77 1230.2700000000002 3480.77C1230.2700000000002 3482.33 1228.9100000000003 3483.65 1227.0900000000001 3484L1227.0900000000001 3481.02C1227.0900000000001 3480.5 1226.66 3480.07 1226.13 3480.07C1225.6000000000001 3480.07 1225.17 3480.5 1225.17 3481.02L1225.17 3484C1223.3500000000001 3483.65 1221.99 3482.33 1221.99 3480.77ZM1247.6 3487.1L1247.54 3487.1C1247.01 3487.1 1246.58 3487.52 1246.58 3488.04C1246.58 3488.56 1247.01 3488.98 1247.54 3488.98L1247.6 3488.98L1247.6 3493.12L1243.3999999999999 3493.12L1243.3999999999999 3482.96L1247.6 3482.96ZM1227.09 3485.9C1227.87 3485.8 1228.6 3485.56 1229.25 3485.2200000000003L1229.25 3493.1200000000003L1227.09 3493.1200000000003ZM1261.75 3486.36C1262.43 3486.6400000000003 1263.15 3486.83 1263.91 3486.92L1263.91 3493.12L1261.75 3493.12ZM1234.22 3470.92L1236.39 3470.92L1236.39 3472.94L1234.22 3474.14ZM1253.59 3485.97L1255.76 3485.97L1255.76 3488.1L1253.59 3488.1ZM1255.76 3484.09L1253.59 3484.09L1253.59 3482.96L1255.76 3482.96ZM1238.36 3481.08L1234.29 3481.08C1233.76 3481.08 1233.33 3481.5 1233.33 3482.02L1233.33 3489.04C1233.33 3489.56 1233.76 3489.98 1234.29 3489.98L1238.36 3489.98C1238.8899999999999 3489.98 1239.32 3489.56 1239.32 3489.04L1239.32 3482.02C1239.32 3481.5 1238.8899999999999 3481.08 1238.36 3481.08ZM1235.24 3488.1L1235.24 3485.97L1237.41 3485.97L1237.41 3488.1ZM1237.41 3482.96L1237.41 3484.09L1235.24 3484.09L1235.24 3482.96Z " fill="#000000" fill-opacity="0.24" filter="url(#SvgjsFilter1107)" transform="matrix(1,0,0,1,-1215,-3456)"></path><path id="SvgjsPath1109" d="M1274.04 3492.12L1265.83 3492.12L1265.83 3485.92C1269.84 3485.4500000000003 1272.96 3482.08 1272.96 3478.01C1272.96 3470.9300000000003 1266.02 3457.11 1265.73 3456.5200000000004C1265.56 3456.2000000000003 1265.23 3456.0000000000005 1264.8700000000001 3456.0000000000005C1264.5100000000002 3456.0000000000005 1264.17 3456.2000000000003 1264.0100000000002 3456.5200000000004C1264.0000000000002 3456.5600000000004 1262.1900000000003 3460.1400000000003 1260.4100000000003 3464.5200000000004C1259.0000000000002 3468.0000000000005 1258.0000000000002 3471.0000000000005 1257.4100000000003 3473.4900000000002L1245.9700000000003 3467.1600000000003C1245.6800000000003 3467.0000000000005 1245.3200000000002 3467.0000000000005 1245.0300000000002 3467.1600000000003L1238.3000000000002 3470.88L1238.3000000000002 3469.92L1238.3600000000001 3469.92C1238.89 3469.92 1239.3200000000002 3469.5 1239.3200000000002 3468.98C1239.3200000000002 3468.46 1238.89 3468.04 1238.3600000000001 3468.04L1232.2500000000002 3468.04C1231.7200000000003 3468.04 1231.2900000000002 3468.46 1231.2900000000002 3468.98C1231.2900000000002 3469.5 1231.7200000000003 3469.92 1232.2500000000002 3469.92L1232.3100000000002 3469.92L1232.3100000000002 3474.2000000000003L1231.3500000000001 3474.7300000000005C1231.15 3473.9000000000005 1230.91 3473.0400000000004 1230.65 3472.2100000000005C1229.3300000000002 3468.0500000000006 1227.8500000000001 3466.0300000000007 1226.13 3466.0300000000007C1224.41 3466.0300000000007 1222.93 3468.0500000000006 1221.6100000000001 3472.2000000000007C1220.67 3475.1900000000005 1220.0800000000002 3478.4500000000007 1220.0800000000002 3479.770000000001C1220.0800000000002 3482.360000000001 1222.2900000000002 3484.5100000000007 1225.17 3484.900000000001L1225.17 3492.120000000001L1216.96 3492.120000000001C1216.43 3492.120000000001 1216 3492.540000000001 1216 3493.060000000001C1216 3493.580000000001 1216.43 3494.000000000001 1216.96 3494.000000000001L1274.04 3494.000000000001C1274.57 3494.000000000001 1275 3493.580000000001 1275 3493.060000000001C1275 3492.540000000001 1274.57 3492.120000000001 1274.04 3492.120000000001ZM1248.56 3480.08L1242.44 3480.08C1241.91 3480.08 1241.49 3480.5 1241.49 3481.02L1241.49 3492.12L1231.16 3492.12L1231.16 3482.65C1231.66 3482.01 1232 3481.27 1232.13 3480.4700000000003L1245.5 3473.07L1256.9 3479.38C1256.95 3479.6400000000003 1257.01 3479.9 1257.0800000000002 3480.15C1256.9600000000003 3480.1 1256.8400000000001 3480.08 1256.7100000000003 3480.08L1252.6400000000003 3480.08C1252.1100000000004 3480.08 1251.6800000000003 3480.5 1251.6800000000003 3481.02L1251.6800000000003 3488.04C1251.6800000000003 3488.56 1252.1100000000004 3488.98 1252.6400000000003 3488.98L1256.7100000000003 3488.98C1257.2400000000002 3488.98 1257.6700000000003 3488.56 1257.6700000000003 3488.04L1257.6700000000003 3481.64C1258.2000000000003 3482.65 1258.9400000000003 3483.5299999999997 1259.8400000000004 3484.24L1259.8400000000004 3492.12L1249.5100000000004 3492.12L1249.5100000000004 3481.02C1249.5100000000004 3480.5 1249.0900000000004 3480.08 1248.5600000000004 3480.08ZM1264.87 3459.13C1266.7399999999998 3463.1 1271.05 3472.79 1271.05 3478.01C1271.05 3481.0400000000004 1268.78 3483.5600000000004 1265.83 3484.0200000000004L1265.83 3478.4000000000005L1268.6 3475.6600000000008C1268.98 3475.3000000000006 1268.98 3474.7000000000007 1268.6 3474.330000000001C1268.23 3473.9700000000007 1267.62 3473.9700000000007 1267.25 3474.330000000001L1265.83 3475.7400000000007L1265.83 3474.000000000001C1265.83 3473.480000000001 1265.3999999999999 3473.050000000001 1264.87 3473.050000000001C1264.34 3473.050000000001 1263.9099999999999 3473.480000000001 1263.9099999999999 3474.000000000001L1263.9099999999999 3478.750000000001L1262.4899999999998 3477.340000000001C1262.1099999999997 3476.980000000001 1261.5099999999998 3476.980000000001 1261.1399999999999 3477.340000000001C1260.7599999999998 3477.710000000001 1260.7599999999998 3478.310000000001 1261.1399999999999 3478.670000000001L1263.9099999999999 3481.4100000000008L1263.9099999999999 3484.020000000001C1260.9599999999998 3483.560000000001 1258.6899999999998 3481.040000000001 1258.6899999999998 3478.0100000000007C1258.6899999999998 3472.790000000001 1262.9899999999998 3463.100000000001 1264.87 3459.1300000000006ZM1245.5 3469.05L1257.01 3475.4300000000003C1256.91 3476.05 1256.84 3476.63 1256.81 3477.17L1245.97 3471.17C1245.68 3471.01 1245.32 3471.01 1245.03 3471.17L1232.06 3478.35C1231.99 3477.85 1231.8999999999999 3477.27 1231.78 3476.65ZM1221.99 3479.77C1221.99 3478.77 1222.51 3475.7 1223.44 3472.77C1224.7 3468.79 1225.81 3467.91 1226.13 3467.91C1226.45 3467.91 1227.5600000000002 3468.79 1228.8200000000002 3472.77C1229.7600000000002 3475.7 1230.2700000000002 3478.77 1230.2700000000002 3479.77C1230.2700000000002 3481.33 1228.9100000000003 3482.65 1227.0900000000001 3483L1227.0900000000001 3480.02C1227.0900000000001 3479.5 1226.66 3479.07 1226.13 3479.07C1225.6000000000001 3479.07 1225.17 3479.5 1225.17 3480.02L1225.17 3483C1223.3500000000001 3482.65 1221.99 3481.33 1221.99 3479.77ZM1247.6 3486.1L1247.54 3486.1C1247.01 3486.1 1246.58 3486.52 1246.58 3487.04C1246.58 3487.56 1247.01 3487.98 1247.54 3487.98L1247.6 3487.98L1247.6 3492.12L1243.3999999999999 3492.12L1243.3999999999999 3481.96L1247.6 3481.96ZM1227.09 3484.9C1227.87 3484.8 1228.6 3484.56 1229.25 3484.2200000000003L1229.25 3492.1200000000003L1227.09 3492.1200000000003ZM1261.75 3485.36C1262.43 3485.6400000000003 1263.15 3485.83 1263.91 3485.92L1263.91 3492.12L1261.75 3492.12ZM1234.22 3469.92L1236.39 3469.92L1236.39 3471.94L1234.22 3473.14ZM1253.59 3484.97L1255.76 3484.97L1255.76 3487.1L1253.59 3487.1ZM1255.76 3483.09L1253.59 3483.09L1253.59 3481.96L1255.76 3481.96ZM1238.36 3480.08L1234.29 3480.08C1233.76 3480.08 1233.33 3480.5 1233.33 3481.02L1233.33 3488.04C1233.33 3488.56 1233.76 3488.98 1234.29 3488.98L1238.36 3488.98C1238.8899999999999 3488.98 1239.32 3488.56 1239.32 3488.04L1239.32 3481.02C1239.32 3480.5 1238.8899999999999 3480.08 1238.36 3480.08ZM1235.24 3487.1L1235.24 3484.97L1237.41 3484.97L1237.41 3487.1ZM1237.41 3481.96L1237.41 3483.09L1235.24 3483.09L1235.24 3481.96Z " fill="#ffffff" transform="matrix(1,0,0,1,-1215,-3456)"></path></svg>