<svg id="SvgjsSvg1092" xmlns="http://www.w3.org/2000/svg" version="1.1" xmlns:xlink="http://www.w3.org/1999/xlink" xmlns:svgjs="http://svgjs.com/svgjs" width="67" height="43"><defs id="SvgjsDefs1093"></defs><path id="SvgjsPath1094" d="M985.229 1535.47C983.84 1535.47 982.5490000000001 1535.89 981.4730000000001 1536.6100000000001L980.061 1536.6100000000001L977.645 1533.39C977.016 1532.5600000000002 976.014 1532.0600000000002 974.965 1532.0600000000002L972.5360000000001 1532.0600000000002C972.5840000000001 1531.8500000000001 972.613 1531.64 972.613 1531.42C972.613 1531.19 972.5840000000001 1530.98 972.5360000000001 1530.77L972.6840000000001 1530.77C974.532 1530.77 976.0340000000001 1529.27 976.0340000000001 1527.43L976.0340000000001 1524.79C976.0340000000001 1522.5 974.3170000000001 1520.59 972.0400000000001 1520.33L958.3550000000001 1518.82C957.0880000000001 1518.6699999999998 955.8150000000002 1519.08 954.8650000000001 1519.9299999999998C953.9140000000001 1520.7799999999997 953.3690000000001 1521.9999999999998 953.3690000000001 1523.2699999999998L953.3690000000001 1527.4299999999998C953.3690000000001 1529.2699999999998 954.8720000000002 1530.7699999999998 956.7190000000002 1530.7699999999998L956.8680000000002 1530.7699999999998C956.8190000000002 1530.9799999999998 956.7900000000002 1531.1899999999998 956.7900000000002 1531.4199999999998C956.7900000000002 1531.6399999999999 956.8190000000002 1531.85 956.8680000000002 1532.06L954.4380000000002 1532.06C953.6510000000002 1532.06 952.8910000000002 1532.34 952.2940000000002 1532.83L931.9320000000002 1508.21C930.7570000000003 1506.79 928.6410000000002 1506.5900000000001 927.2160000000002 1507.76C926.5260000000002 1508.33 926.0990000000003 1509.14 926.0140000000002 1510.03C925.9290000000002 1510.92 926.1960000000003 1511.78 926.7660000000002 1512.47L945.9960000000002 1535.72C945.4160000000002 1535.56 944.8050000000002 1535.47 944.1740000000002 1535.47C940.4410000000003 1535.47 937.4030000000002 1538.51 937.4030000000002 1542.24C937.4030000000002 1545.97 940.4410000000003 1549 944.1740000000002 1549C945.5630000000002 1549 946.8550000000002 1548.58 947.9300000000002 1547.86L981.4730000000002 1547.86C982.5490000000002 1548.58 983.8400000000001 1549 985.2290000000002 1549C988.9620000000001 1549 992.0000000000001 1545.97 992.0000000000001 1542.24C992.0000000000001 1538.51 988.9620000000001 1535.47 985.2290000000002 1535.47ZM928.143 1510.23C928.173 1509.91 928.328 1509.6200000000001 928.577 1509.41C929.093 1508.99 929.858 1509.0600000000002 930.283 1509.5700000000002L951.951 1535.7700000000002C952.149 1536.0100000000002 952.2420000000001 1536.3100000000002 952.225 1536.6100000000001L949.504 1536.6100000000001L928.415 1511.1100000000001C928.209 1510.8600000000001 928.112 1510.5500000000002 928.1429999999999 1510.23ZM949.987 1538.77C949.995 1538.76 950.004 1538.76 950.012 1538.75L979.43 1538.75C978.813 1539.77 978.458 1540.96 978.458 1542.24C978.458 1543.51 978.813 1544.71 979.43 1545.72L949.973 1545.72C950.5899999999999 1544.71 950.9459999999999 1543.51 950.9459999999999 1542.24C950.9459999999999 1540.97 950.5949999999999 1539.79 949.987 1538.77ZM955.507 1527.43L955.507 1523.27C955.507 1522.6 955.785 1521.97 956.2909999999999 1521.52C956.728 1521.1299999999999 957.2739999999999 1520.92 957.8499999999999 1520.92C957.939 1520.92 958.0289999999999 1520.93 958.1189999999999 1520.94L971.8039999999999 1522.46C972.9969999999998 1522.5900000000001 973.8959999999998 1523.5900000000001 973.8959999999998 1524.79L973.8959999999998 1527.43C973.8959999999998 1528.1000000000001 973.3529999999998 1528.64 972.6839999999999 1528.64L956.7189999999998 1528.64C956.0509999999998 1528.64 955.5069999999998 1528.1000000000001 955.5069999999998 1527.43ZM985.229 1546.86C982.6740000000001 1546.86 980.596 1544.79 980.596 1542.24C980.596 1539.68 982.674 1537.61 985.229 1537.61C987.783 1537.61 989.8620000000001 1539.6799999999998 989.8620000000001 1542.24C989.8620000000001 1544.79 987.7830000000001 1546.86 985.229 1546.86ZM939.542 1542.24C939.542 1539.68 941.62 1537.61 944.174 1537.61C946.7289999999999 1537.61 948.807 1539.6799999999998 948.807 1542.24C948.807 1544.79 946.729 1546.86 944.174 1546.86C941.62 1546.86 939.542 1544.79 939.542 1542.24ZM974.965 1534.19C975.345 1534.19 975.707 1534.3700000000001 975.9350000000001 1534.68L977.389 1536.6100000000001L954.361 1536.6100000000001C954.376 1535.8500000000001 954.137 1535.1000000000001 953.653 1534.48C953.871 1534.3 954.149 1534.19 954.438 1534.19ZM944.174 1540.17C943.035 1540.17 942.107 1541.1000000000001 942.107 1542.24C942.107 1543.3700000000001 943.035 1544.3 944.174 1544.3C945.314 1544.3 946.241 1543.37 946.241 1542.24C946.241 1541.1 945.314 1540.17 944.174 1540.17ZM958.928 1531.42C958.928 1531.0600000000002 959.216 1530.77 959.57 1530.77L969.8330000000001 1530.77C970.1870000000001 1530.77 970.4750000000001 1531.06 970.4750000000001 1531.42C970.4750000000001 1531.77 970.1870000000001 1532.0600000000002 969.8330000000001 1532.0600000000002L959.57 1532.0600000000002C959.216 1532.0600000000002 958.928 1531.7700000000002 958.928 1531.42ZM985.229 1540.17C984.089 1540.17 983.162 1541.1000000000001 983.162 1542.24C983.162 1543.3700000000001 984.089 1544.3 985.229 1544.3C986.369 1544.3 987.296 1543.37 987.296 1542.24C987.296 1541.1 986.369 1540.17 985.229 1540.17Z " fill="#ffffff" transform="matrix(1,0,0,1,-925,-1506)"></path></svg>