<svg id="SvgjsSvg1110" xmlns="http://www.w3.org/2000/svg" version="1.1" xmlns:xlink="http://www.w3.org/1999/xlink" xmlns:svgjs="http://svgjs.com/svgjs" width="35" height="38"><defs id="SvgjsDefs1111"></defs><path id="SvgjsPath1112" d="M833.463 3663.88L833.463 3665.6L835.175 3665.6L835.175 3696.27L808.588 3696.27L808.588 3695.08L806.769 3695.08L806.769 3698L836.995 3698L836.995 3663.88ZM802.002 3660.01L802.002 3694.13L832.2199999999999 3694.13L832.2199999999999 3660.01ZM830.404 3661.73C830.404 3663.31 830.404 3690.83 830.404 3692.41C828.757 3692.41 805.468 3692.41 803.819 3692.41C803.819 3690.8199999999997 803.819 3663.31 803.819 3661.73C805.4699999999999 3661.73 828.757 3661.73 830.404 3661.73ZM812.27452 3684.86726C811.5722400000001 3684.32395 810.70977 3683.65659 809.9375 3683.05899C809.99768 3682.866 810.03 3682.66163 810.03 3682.44999C810.03 3681.25999 809.0079999999999 3680.30999 807.76 3680.30999C806.503 3680.30999 805.4879999999999 3681.25999 805.4879999999999 3682.44999C805.4879999999999 3683.63999 806.5029999999999 3684.59999 807.76 3684.59999C808.12127 3684.59999 808.46359 3684.51955 808.76768 3684.37636L811.30214 3686.33817C811.28755 3686.43669 811.2800100000001 3686.53745 811.2800100000001 3686.63998C811.2800100000001 3687.82998 812.29601 3688.78998 813.55001 3688.78998C814.8040100000001 3688.78998 815.82001 3687.82998 815.82001 3686.63998C815.82001 3686.29464 815.73445 3685.96952 815.58234 3685.68196C816.8093 3683.94139 818.3755600000001 3681.71936 819.3303400000001 3680.36427C819.4812300000001 3680.39423 819.6376600000001 3680.40998 819.7980100000001 3680.40998C820.3486200000001 3680.40998 820.8534000000001 3680.2243 821.2461500000001 3679.91505C822.08955 3680.3804 823.1766500000001 3680.98074 824.1140200000001 3681.49852C824.1126800000001 3681.52885 824.11201 3681.5593400000002 824.11201 3681.58998C824.11201 3682.7799800000003 825.1290100000001 3683.7399800000003 826.38201 3683.7399800000003C827.63601 3683.7399800000003 828.65101 3682.7799800000003 828.65101 3681.58998C828.65101 3680.39998 827.63601 3679.43998 826.38201 3679.43998C825.8204400000001 3679.43998 825.30627 3679.63281 824.9098200000001 3679.95276L822.06163 3678.37861C822.0638700000001 3678.33934 822.06501 3678.29979 822.06501 3678.2599800000003C822.06501 3677.0799800000004 821.05001 3676.1199800000004 819.79801 3676.1199800000004C818.54601 3676.1199800000004 817.53301 3677.0799800000004 817.53301 3678.2599800000003C817.53301 3678.6636700000004 817.64959 3679.0409000000004 817.85253 3679.36315C816.67529 3681.03431 815.14478 3683.2070400000002 814.17712 3684.58205C813.97795 3684.52857 813.7675599999999 3684.49998 813.5500099999999 3684.49998C813.0770899999999 3684.49998 812.63802 3684.6351 812.2745299999999 3684.86724ZM828 3673L828 3671L807 3671L807 3673ZM828 3667L828 3666L807 3666L807 3667Z " fill="#333333" transform="matrix(1,0,0,1,-802,-3660)"></path></svg>