<svg id="SvgjsSvg1089" xmlns="http://www.w3.org/2000/svg" version="1.1" xmlns:xlink="http://www.w3.org/1999/xlink" xmlns:svgjs="http://svgjs.com/svgjs" width="61" height="60"><defs id="SvgjsDefs1090"></defs><path id="SvgjsPath1091" d="M702.729 1515.48C698.519 1515.48 695.041 1518.65 694.529 1522.72L692.39 1522.72L692.39 1509.28L690.322 1509.28L690.322 1518.59L687.22 1518.59L687.22 1504.62C687.22 1502.62 685.597 1501 683.602 1501C681.606 1501 679.983 1502.62 679.983 1504.62L679.983 1541.86C679.983 1543.86 681.606 1545.4799999999998 683.602 1545.4799999999998C685.597 1545.4799999999998 687.22 1543.86 687.22 1541.86L687.22 1527.8999999999999L690.322 1527.8999999999999L690.322 1537.2099999999998L692.39 1537.2099999999998L692.39 1524.7899999999997L694.529 1524.7899999999997C695.0409999999999 1528.8699999999997 698.519 1532.0299999999997 702.729 1532.0299999999997C707.289 1532.0299999999997 711 1528.3199999999997 711 1523.7599999999998C711 1519.1899999999998 707.289 1515.4799999999998 702.729 1515.4799999999998ZM667.059 1501C665.064 1501 663.4409999999999 1502.62 663.4409999999999 1504.62L663.4409999999999 1541.86C663.4409999999999 1543.86 665.064 1545.4799999999998 667.059 1545.4799999999998C669.055 1545.4799999999998 670.678 1543.86 670.678 1541.86L670.678 1504.62C670.678 1502.62 669.055 1501 667.059 1501ZM675.331 1501C673.335 1501 671.712 1502.62 671.712 1504.62L671.712 1541.86C671.712 1543.86 673.335 1545.4799999999998 675.331 1545.4799999999998C677.326 1545.4799999999998 678.9490000000001 1543.86 678.9490000000001 1541.86L678.9490000000001 1504.62C678.9490000000001 1502.62 677.326 1501 675.331 1501ZM685.153 1541.86C685.153 1542.7199999999998 684.457 1543.4099999999999 683.602 1543.4099999999999C682.747 1543.4099999999999 682.0509999999999 1542.7199999999998 682.0509999999999 1541.86L682.0509999999999 1504.62C682.0509999999999 1503.76 682.747 1503.07 683.602 1503.07C684.457 1503.07 685.153 1503.76 685.153 1504.62ZM668.61 1541.86C668.61 1542.7199999999998 667.914 1543.4099999999999 667.059 1543.4099999999999C666.204 1543.4099999999999 665.5079999999999 1542.7199999999998 665.5079999999999 1541.86L665.5079999999999 1504.62C665.5079999999999 1503.76 666.204 1503.07 667.059 1503.07C667.914 1503.07 668.61 1503.76 668.61 1504.62ZM676.881 1541.86C676.881 1542.7199999999998 676.185 1543.4099999999999 675.331 1543.4099999999999C674.475 1543.4099999999999 673.78 1542.7199999999998 673.78 1541.86L673.78 1504.62C673.78 1503.76 674.475 1503.07 675.331 1503.07C676.1850000000001 1503.07 676.881 1503.76 676.881 1504.62ZM701.695 1517.64L701.695 1522.72L696.618 1522.72C697.057 1520.13 699.1030000000001 1518.08 701.695 1517.64ZM696.618 1524.79L701.695 1524.79L701.695 1529.87C699.1030000000001 1529.4299999999998 697.057 1527.3899999999999 696.618 1524.79ZM708.839 1522.72L703.763 1522.72L703.763 1517.64C706.355 1518.0800000000002 708.4010000000001 1520.13 708.839 1522.72ZM703.763 1529.87L703.763 1524.79L708.839 1524.79C708.4010000000001 1527.3899999999999 706.355 1529.43 703.763 1529.87ZM687.22 1525.83L687.22 1520.6499999999999L690.322 1520.6499999999999L690.322 1525.83ZM662.407 1544.22L662.407 1504.6200000000001C662.407 1502.6200000000001 660.783 1501.0000000000002 658.788 1501.0000000000002C656.793 1501.0000000000002 655.169 1502.6200000000001 655.169 1504.6200000000001L655.169 1518.5900000000001L652.068 1518.5900000000001L652.068 1509.2800000000002L650 1509.2800000000002L650 1537.2100000000003L652.068 1537.2100000000003L652.068 1527.9000000000003L655.169 1527.9000000000003L655.169 1544.2200000000003C654.54 1544.7900000000002 654.136 1545.6000000000004 654.136 1546.5200000000002C654.136 1547.4400000000003 654.5469999999999 1548.2600000000002 655.187 1548.8300000000002L656.067 1558.5100000000002C656.196 1559.9300000000003 657.366 1561.0000000000002 658.788 1561.0000000000002C660.21 1561.0000000000002 661.38 1559.9300000000003 661.509 1558.5100000000002L662.389 1548.8300000000002C663.029 1548.2600000000002 663.441 1547.44 663.441 1546.5200000000002C663.441 1545.6000000000001 663.0360000000001 1544.7900000000002 662.407 1544.2200000000003ZM657.237 1504.62C657.237 1503.76 657.933 1503.07 658.788 1503.07C659.643 1503.07 660.339 1503.76 660.339 1504.62L660.339 1543.4099999999999L657.2370000000001 1543.4099999999999ZM659.45 1558.33C659.418 1558.6699999999998 659.133 1558.9299999999998 658.788 1558.9299999999998C658.443 1558.9299999999998 658.158 1558.6699999999998 658.126 1558.33L657.3349999999999 1549.62L660.242 1549.62ZM652.068 1525.83L652.068 1520.6499999999999L655.169 1520.6499999999999L655.169 1525.83ZM656.203 1546.52C656.203 1546.12 656.433 1545.79 656.759 1545.62C656.8100000000001 1545.59 656.862 1545.57 656.914 1545.55C657.0169999999999 1545.51 657.122 1545.48 657.237 1545.48L660.3389999999999 1545.48C660.454 1545.48 660.559 1545.51 660.6619999999999 1545.55C660.7139999999999 1545.57 660.766 1545.59 660.8179999999999 1545.61C661.1429999999999 1545.79 661.3729999999998 1546.12 661.3729999999998 1546.52C661.3729999999998 1547.09 660.9099999999999 1547.55 660.3389999999998 1547.55L657.2369999999999 1547.55C656.6669999999998 1547.55 656.2029999999999 1547.09 656.2029999999999 1546.52Z " fill="#ffffff" transform="matrix(1,0,0,1,-650,-1501)"></path></svg>