<svg id="SvgjsSvg1077" xmlns="http://www.w3.org/2000/svg" version="1.1" xmlns:xlink="http://www.w3.org/1999/xlink" xmlns:svgjs="http://svgjs.com/svgjs" width="60" height="56"><defs id="SvgjsDefs1078"></defs><path id="SvgjsPath1079" d="M708 1335.92C708 1336.52 707.514 1337 706.914 1337C706.906 1337 680.169 1337 680.16 1337C680.1519999999999 1337 680.144 1337 680.136 1337L649.086 1337C648.486 1337 648 1336.52 648 1335.92C648 1335.3300000000002 648.486 1334.8400000000001 649.086 1334.8400000000001L650.152 1334.8400000000001L650.152 1327.65C650.152 1327.26 650.356 1326.91 650.6890000000001 1326.72L652.8600000000001 1325.46C653.1990000000002 1325.26 653.6180000000002 1325.26 653.9560000000001 1325.46L655.5790000000002 1326.4L657.2020000000002 1325.46C657.5410000000003 1325.26 657.9600000000003 1325.26 658.2990000000002 1325.46L659.9210000000002 1326.4L661.5440000000002 1325.46C661.8820000000002 1325.26 662.3020000000002 1325.26 662.6400000000002 1325.46L664.8110000000003 1326.72C665.1440000000002 1326.91 665.3480000000003 1327.26 665.3480000000003 1327.65L665.3480000000003 1334.8400000000001L679.0750000000003 1334.8400000000001L679.0750000000003 1319.65L664.8320000000002 1319.65L664.8320000000002 1322.6200000000001C664.8320000000002 1323.22 664.3460000000002 1323.7 663.7460000000002 1323.7C663.1470000000002 1323.7 662.6610000000002 1323.22 662.6610000000002 1322.6200000000001L662.6610000000002 1318.5800000000002C662.6610000000002 1317.9800000000002 663.1470000000002 1317.5000000000002 663.7460000000002 1317.5000000000002L680.1600000000002 1317.5000000000002C680.7600000000002 1317.5000000000002 681.2460000000002 1317.9800000000002 681.2460000000002 1318.5800000000002L681.2460000000002 1334.8400000000001L686.3100000000002 1334.8400000000001L686.3100000000002 1327.65C686.3100000000002 1327.26 686.5140000000001 1326.91 686.8470000000002 1326.72L689.0180000000003 1325.46C689.3560000000002 1325.26 689.7760000000003 1325.26 690.1140000000003 1325.46L691.7370000000003 1326.4L693.3590000000003 1325.46C693.6980000000003 1325.26 694.1170000000003 1325.26 694.4560000000002 1325.46L694.9930000000003 1325.77L694.9930000000003 1323.67C694.2160000000002 1323.51 693.4890000000003 1323.17 692.8650000000002 1322.68C691.9570000000002 1323.39 690.8330000000002 1323.78 689.6510000000002 1323.78C686.7770000000002 1323.78 684.4380000000002 1321.46 684.4380000000002 1318.61C684.4380000000002 1316.6999999999998 685.4720000000002 1314.99 687.0940000000002 1314.09C687.0290000000001 1313.76 686.9970000000002 1313.4299999999998 686.9970000000002 1313.08C686.9970000000002 1310.6899999999998 688.6280000000002 1308.6699999999998 690.8700000000002 1308.08C690.9860000000002 1305.32 693.2780000000002 1303.12 696.0790000000002 1303.12C698.8790000000001 1303.12 701.1710000000002 1305.32 701.2870000000001 1308.08C703.5290000000001 1308.6699999999998 705.1610000000002 1310.6899999999998 705.1610000000002 1313.08C705.1610000000002 1313.4299999999998 705.1280000000002 1313.76 705.0630000000002 1314.09C706.6860000000003 1314.99 707.7190000000002 1316.6999999999998 707.7190000000002 1318.61C707.7190000000002 1321.4599999999998 705.3810000000002 1323.78 702.5060000000002 1323.78C701.3240000000002 1323.78 700.2000000000002 1323.3899999999999 699.2920000000001 1322.68C698.6680000000001 1323.17 697.9410000000001 1323.51 697.1640000000001 1323.67L697.1640000000001 1325.77L697.7010000000001 1325.46C698.0400000000002 1325.26 698.4590000000002 1325.26 698.7980000000001 1325.46L700.4210000000002 1326.4L702.0430000000001 1325.46C702.3820000000002 1325.26 702.8010000000002 1325.26 703.1400000000001 1325.46L705.3110000000001 1326.72C705.6430000000001 1326.91 705.8480000000002 1327.26 705.8480000000002 1327.65L705.8480000000002 1334.8400000000001L706.9140000000002 1334.8400000000001C707.5140000000002 1334.8400000000001 708.0000000000002 1335.3300000000002 708.0000000000002 1335.92ZM651.67 1322.69L651.67 1295.39C651.67 1295.0200000000002 651.857 1294.68 652.1669999999999 1294.48L671.3649999999999 1282.17C671.7229999999998 1281.94 672.1829999999999 1281.94 672.5419999999999 1282.17L691.7399999999999 1294.48C692.0499999999998 1294.68 692.2369999999999 1295.02 692.2369999999999 1295.39L692.2369999999999 1301.46C692.2369999999999 1302.05 691.7509999999999 1302.53 691.1509999999998 1302.53C690.5519999999998 1302.53 690.0659999999998 1302.05 690.0659999999998 1301.46L690.0659999999998 1295.97L671.9529999999997 1284.3600000000001L653.8409999999998 1295.97L653.8409999999998 1322.69C653.8409999999998 1323.29 653.3549999999998 1323.77 652.7549999999998 1323.77C652.1559999999997 1323.77 651.6699999999997 1323.29 651.6699999999997 1322.69ZM657.724 1301.43C657.124 1301.43 656.638 1300.95 656.638 1300.3500000000001C656.638 1299.7600000000002 657.124 1299.2700000000002 657.724 1299.2700000000002L667.219 1299.2700000000002L662.076 1294.8100000000002C661.624 1294.42 661.578 1293.7400000000002 661.972 1293.2900000000002C662.366 1292.8400000000001 663.052 1292.8000000000002 663.504 1293.1900000000003L670.52 1299.2700000000002L670.8679999999999 1299.2700000000002L670.8679999999999 1289.5800000000002C670.8679999999999 1288.9800000000002 671.3539999999999 1288.5000000000002 671.953 1288.5000000000002C672.553 1288.5000000000002 673.039 1288.9800000000002 673.039 1289.5800000000002L673.039 1299.2700000000002L673.386 1299.2700000000002L680.403 1293.1900000000003C680.855 1292.8000000000002 681.54 1292.8400000000004 681.934 1293.2900000000002C682.329 1293.7400000000002 682.2819999999999 1294.4200000000003 681.8299999999999 1294.8100000000002L676.6879999999999 1299.2700000000002L686.1829999999999 1299.2700000000002C686.7819999999999 1299.2700000000002 687.2679999999999 1299.7600000000002 687.2679999999999 1300.3500000000001C687.2679999999999 1300.95 686.7819999999999 1301.43 686.1829999999999 1301.43ZM697.164 1317.5L697.164 1321.43C697.66 1321.24 698.104 1320.93 698.448 1320.5C698.654 1320.25 698.9639999999999 1320.1 699.293 1320.1C699.621 1320.1 699.932 1320.25 700.138 1320.5C700.719 1321.22 701.582 1321.63 702.5060000000001 1321.63C704.1840000000001 1321.63 705.5480000000001 1320.2700000000002 705.5480000000001 1318.6100000000001C705.5480000000001 1317.2800000000002 704.6930000000001 1316.1200000000001 703.4200000000001 1315.72C703.128 1315.63 702.888 1315.42 702.7600000000001 1315.14C702.6320000000001 1314.8700000000001 702.6270000000001 1314.5500000000002 702.7470000000001 1314.2700000000002C702.908 1313.89 702.9900000000001 1313.5000000000002 702.9900000000001 1313.0800000000002C702.9900000000001 1311.4700000000003 701.7190000000002 1310.14 700.0960000000001 1310.0700000000002C699.7860000000002 1310.0500000000002 699.4970000000001 1309.91 699.3020000000001 1309.67C699.1070000000001 1309.42 699.0250000000001 1309.1100000000001 699.0770000000001 1308.8100000000002C699.1060000000001 1308.64 699.1210000000001 1308.4700000000003 699.1210000000001 1308.3000000000002C699.1210000000001 1306.63 697.7560000000001 1305.2700000000002 696.0790000000001 1305.2700000000002C694.402 1305.2700000000002 693.037 1306.63 693.037 1308.3000000000002C693.037 1308.4700000000003 693.052 1308.64 693.08 1308.8100000000002C693.1320000000001 1309.1100000000001 693.051 1309.42 692.856 1309.67C692.661 1309.91 692.372 1310.0500000000002 692.062 1310.0700000000002C690.439 1310.14 689.168 1311.4700000000003 689.168 1313.0800000000002C689.168 1313.5000000000002 689.249 1313.89 689.41 1314.2700000000002C689.53 1314.5500000000002 689.526 1314.8700000000001 689.398 1315.14C689.27 1315.42 689.03 1315.63 688.7370000000001 1315.72C687.465 1316.1200000000001 686.609 1317.28 686.609 1318.6100000000001C686.609 1320.2700000000002 687.974 1321.63 689.652 1321.63C690.576 1321.63 691.4390000000001 1321.22 692.0200000000001 1320.5C692.2260000000001 1320.25 692.5370000000001 1320.1 692.8650000000001 1320.1C693.1930000000001 1320.1 693.5040000000001 1320.25 693.7100000000002 1320.5C694.0540000000002 1320.93 694.4970000000002 1321.24 694.9930000000002 1321.43L694.9930000000002 1317.5C694.9930000000002 1316.9 695.4790000000002 1316.42 696.0790000000002 1316.42C696.6780000000002 1316.42 697.1640000000002 1316.9 697.1640000000002 1317.5ZM676.77 1304.92C677.37 1304.92 677.856 1305.4 677.856 1306L677.856 1312.65C677.856 1313.24 677.37 1313.72 676.77 1313.72L667.137 1313.72C666.5369999999999 1313.72 666.0509999999999 1313.24 666.0509999999999 1312.65L666.0509999999999 1306C666.0509999999999 1305.4 666.5369999999999 1304.92 667.137 1304.92ZM675.685 1307.08L668.222 1307.08L668.222 1311.57L675.685 1311.57ZM690.651 1328.27L689.5659999999999 1327.6399999999999L688.4809999999999 1328.27L688.4809999999999 1334.84L690.6519999999999 1334.84L690.6519999999999 1328.27ZM698.25 1327.64L697.164 1328.2700000000002L697.164 1334.8400000000001L699.335 1334.8400000000001L699.335 1328.2700000000002ZM662.092 1327.64L661.006 1328.2700000000002L661.006 1334.8400000000001L663.177 1334.8400000000001L663.177 1328.2700000000002ZM693.908 1327.64L692.822 1328.2700000000002L692.822 1334.8400000000001L694.993 1334.8400000000001L694.993 1328.2700000000002ZM654.494 1328.27L653.408 1327.6399999999999L652.323 1328.27L652.323 1334.84L654.494 1334.84ZM658.835 1328.27L657.75 1327.6399999999999L656.665 1328.27L656.665 1334.84L658.8349999999999 1334.84ZM698.777 1313.47L698.777 1313.19C698.777 1312.6000000000001 699.263 1312.1100000000001 699.863 1312.1100000000001C700.4620000000001 1312.1100000000001 700.9480000000001 1312.6000000000001 700.9480000000001 1313.19L700.9480000000001 1313.47C700.9480000000001 1314.07 700.4620000000001 1314.55 699.863 1314.55C699.263 1314.55 698.777 1314.07 698.777 1313.47ZM690.756 1318.54L690.756 1318.82C690.756 1319.4099999999999 690.27 1319.8899999999999 689.6709999999999 1319.8899999999999C689.0709999999999 1319.8899999999999 688.5849999999999 1319.4099999999999 688.5849999999999 1318.82L688.5849999999999 1318.54C688.5849999999999 1317.94 689.0709999999999 1317.46 689.6709999999999 1317.46C690.27 1317.46 690.756 1317.94 690.756 1318.54ZM703.677 1328.27L702.592 1327.6399999999999L701.506 1328.27L701.506 1334.84L703.677 1334.84Z " fill="#ffffff" transform="matrix(1,0,0,1,-648,-1281)"></path></svg>