<svg id="SvgjsSvg1095" xmlns="http://www.w3.org/2000/svg" version="1.1" xmlns:xlink="http://www.w3.org/1999/xlink" xmlns:svgjs="http://svgjs.com/svgjs" width="55" height="55"><defs id="SvgjsDefs1096"></defs><path id="SvgjsPath1097" d="M1268.42 1525.35L1263.98 1525.35L1264.1200000000001 1523.12C1264.21 1521.6299999999999 1263.68 1520.1399999999999 1262.65 1519.05C1261.6200000000001 1517.96 1260.18 1517.33 1258.68 1517.33C1257.18 1517.33 1255.73 1517.96 1254.7 1519.05C1253.68 1520.1399999999999 1253.14 1521.6299999999999 1253.24 1523.12L1253.38 1525.35L1246.65 1525.35L1246.65 1503.58C1246.65 1501.05 1244.5900000000001 1499 1242.0600000000002 1499L1222.5800000000002 1499C1220.0600000000002 1499 1218.0000000000002 1501.05 1218.0000000000002 1503.58L1218.0000000000002 1509.24C1218.0000000000002 1509.56 1218.1300000000003 1509.86 1218.3600000000001 1510.08C1218.5900000000001 1510.29 1218.9 1510.3999999999999 1219.22 1510.3799999999999L1222.66 1510.1699999999998C1223.5400000000002 1510.11 1224.38 1510.4099999999999 1225.02 1511.0199999999998C1225.67 1511.6199999999997 1226.02 1512.4399999999998 1226.02 1513.3199999999997C1226.02 1514.1999999999998 1225.67 1515.0199999999998 1225.02 1515.6299999999997C1224.3799999999999 1516.2299999999996 1223.54 1516.5299999999997 1222.66 1516.4799999999996L1219.22 1516.2599999999995C1218.9 1516.2399999999996 1218.59 1516.3499999999995 1218.3600000000001 1516.5699999999995C1218.13 1516.7899999999995 1218.0000000000002 1517.0899999999995 1218.0000000000002 1517.3999999999994L1218.0000000000002 1549.4199999999994C1218.0000000000002 1551.9399999999994 1220.0600000000002 1553.9999999999993 1222.5800000000002 1553.9999999999993L1268.42 1553.9999999999993C1270.94 1553.9999999999993 1273 1551.9399999999994 1273 1549.4199999999994L1273 1529.9399999999994C1273 1527.4099999999994 1270.94 1525.3499999999995 1268.42 1525.3499999999995ZM1270.71 1549.42C1270.71 1550.68 1269.68 1551.71 1268.42 1551.71L1246.65 1551.71L1246.65 1544.98L1248.8700000000001 1545.1200000000001C1250.3700000000001 1545.21 1251.8600000000001 1544.68 1252.95 1543.65C1254.04 1542.6200000000001 1254.67 1541.18 1254.67 1539.68C1254.67 1538.18 1254.04 1536.73 1252.95 1535.7C1251.8600000000001 1534.68 1250.3700000000001 1534.14 1248.8700000000001 1534.24L1246.65 1534.3700000000001L1246.65 1527.65L1254.6000000000001 1527.65C1254.91 1527.65 1255.21 1527.51 1255.43 1527.2800000000002C1255.65 1527.0500000000002 1255.76 1526.7400000000002 1255.74 1526.4300000000003L1255.52 1522.9800000000002C1255.47 1522.1000000000001 1255.77 1521.2600000000002 1256.37 1520.6200000000003C1256.9799999999998 1519.9800000000002 1257.8 1519.6200000000003 1258.6799999999998 1519.6200000000003C1259.56 1519.6200000000003 1260.3799999999999 1519.9800000000002 1260.9799999999998 1520.6200000000003C1261.5799999999997 1521.2600000000004 1261.8899999999999 1522.1000000000004 1261.8299999999997 1522.9800000000002L1261.6199999999997 1526.4300000000003C1261.5999999999997 1526.7400000000002 1261.7099999999996 1527.0500000000002 1261.9199999999996 1527.2800000000002C1262.1399999999996 1527.5100000000002 1262.4399999999996 1527.65 1262.7599999999995 1527.65L1268.4199999999996 1527.65C1269.6799999999996 1527.65 1270.7099999999996 1528.67 1270.7099999999996 1529.94ZM1220.29 1518.62L1222.52 1518.76C1224.02 1518.86 1225.5 1518.32 1226.59 1517.3C1227.6899999999998 1516.27 1228.31 1514.82 1228.31 1513.32C1228.31 1511.82 1227.69 1510.3799999999999 1226.59 1509.35C1225.5 1508.32 1224.02 1507.79 1222.52 1507.8799999999999L1220.29 1508.02L1220.29 1503.58C1220.29 1502.32 1221.32 1501.29 1222.58 1501.29L1242.06 1501.29C1243.33 1501.29 1244.35 1502.32 1244.35 1503.58L1244.35 1525.35L1236.3999999999999 1525.35C1236.09 1525.35 1235.79 1525.48 1235.57 1525.7099999999998C1235.35 1525.9499999999998 1235.24 1526.2599999999998 1235.26 1526.5699999999997L1235.48 1530.0199999999998C1235.53 1530.8999999999999 1235.23 1531.7299999999998 1234.63 1532.3799999999997C1234.0200000000002 1533.0199999999998 1233.2 1533.3699999999997 1232.3200000000002 1533.3699999999997C1231.44 1533.3699999999997 1230.6200000000001 1533.0199999999998 1230.0200000000002 1532.3799999999997C1229.4200000000003 1531.7299999999996 1229.1100000000001 1530.8999999999996 1229.1700000000003 1530.0199999999998L1229.3800000000003 1526.5699999999997C1229.4000000000003 1526.2599999999998 1229.2900000000004 1525.9499999999998 1229.0800000000004 1525.7099999999998C1228.8600000000004 1525.4799999999998 1228.5600000000004 1525.35 1228.2400000000005 1525.35L1220.2900000000004 1525.35ZM1244.72 1542.92C1244.48 1543.14 1244.3500000000001 1543.44 1244.3500000000001 1543.76L1244.3500000000001 1551.71L1222.5800000000002 1551.71C1221.3200000000002 1551.71 1220.2900000000002 1550.68 1220.2900000000002 1549.42L1220.2900000000002 1527.65L1227.0200000000002 1527.65L1226.88 1529.8700000000001C1226.7900000000002 1531.3700000000001 1227.3200000000002 1532.8500000000001 1228.3500000000001 1533.95C1229.38 1535.04 1230.8200000000002 1535.67 1232.3200000000002 1535.67C1233.8200000000002 1535.67 1235.2700000000002 1535.04 1236.3000000000002 1533.95C1237.3200000000002 1532.8500000000001 1237.8600000000001 1531.3700000000001 1237.7600000000002 1529.8700000000001L1237.6200000000001 1527.65L1244.3500000000001 1527.65L1244.3500000000001 1535.5900000000001C1244.3500000000001 1535.91 1244.4800000000002 1536.21 1244.72 1536.43C1244.95 1536.65 1245.26 1536.76 1245.57 1536.74L1249.02 1536.52C1249.9 1536.47 1250.74 1536.77 1251.3799999999999 1537.37C1252.02 1537.9799999999998 1252.37 1538.79 1252.37 1539.6799999999998C1252.37 1540.56 1252.02 1541.3799999999999 1251.3799999999999 1541.9799999999998C1250.7399999999998 1542.5799999999997 1249.8999999999999 1542.8899999999999 1249.02 1542.8299999999997L1245.57 1542.6099999999997C1245.26 1542.5999999999997 1244.95 1542.7099999999996 1244.72 1542.9199999999996ZM1232.9 1547.12L1226.02 1547.12C1225.3899999999999 1547.12 1224.87 1546.61 1224.87 1545.9799999999998L1224.87 1541.3999999999999C1224.87 1540.7599999999998 1224.36 1540.2499999999998 1223.7299999999998 1540.2499999999998C1223.0999999999997 1540.2499999999998 1222.5799999999997 1540.7599999999998 1222.5799999999997 1541.3999999999999L1222.5799999999997 1545.9799999999998C1222.5799999999997 1547.87 1224.1299999999997 1549.4199999999998 1226.0199999999998 1549.4199999999998L1232.8999999999999 1549.4199999999998C1233.53 1549.4199999999998 1234.04 1548.8999999999999 1234.04 1548.2699999999998C1234.04 1547.6399999999996 1233.53 1547.1199999999997 1232.8999999999999 1547.1199999999997ZM1267.27 1539.1C1266.6399999999999 1539.1 1266.12 1539.62 1266.12 1540.25L1266.12 1545.98C1266.12 1546.6100000000001 1265.61 1547.1200000000001 1264.9799999999998 1547.1200000000001L1261.5399999999997 1547.1200000000001C1260.9099999999996 1547.1200000000001 1260.3999999999996 1547.64 1260.3999999999996 1548.2700000000002C1260.3999999999996 1548.9000000000003 1260.9099999999996 1549.4200000000003 1261.5399999999997 1549.4200000000003L1264.9799999999998 1549.4200000000003C1266.87 1549.4200000000003 1268.4199999999998 1547.8700000000003 1268.4199999999998 1545.9800000000002L1268.4199999999998 1540.2500000000002C1268.4199999999998 1539.6200000000001 1267.8999999999999 1539.1000000000001 1267.2699999999998 1539.1000000000001ZM1235.19 1505.87L1238.6200000000001 1505.87C1239.2600000000002 1505.87 1239.7700000000002 1506.3899999999999 1239.7700000000002 1507.02L1239.7700000000002 1512.75C1239.7700000000002 1513.38 1240.2800000000002 1513.89 1240.9200000000003 1513.89C1241.5500000000004 1513.89 1242.0600000000004 1513.38 1242.0600000000004 1512.75L1242.0600000000004 1507.02C1242.0600000000004 1505.12 1240.5200000000004 1503.58 1238.6200000000003 1503.58L1235.1900000000003 1503.58C1234.5500000000002 1503.58 1234.0400000000002 1504.1 1234.0400000000002 1504.73C1234.0400000000002 1505.3600000000001 1234.5500000000002 1505.8700000000001 1235.1900000000003 1505.8700000000001ZM1238.62 1547.12L1238.3999999999999 1547.12C1237.7599999999998 1547.12 1237.2499999999998 1547.6399999999999 1237.2499999999998 1548.27C1237.2499999999998 1548.9 1237.7599999999998 1549.42 1238.3999999999999 1549.42L1238.62 1549.42C1239.26 1549.42 1239.77 1548.9 1239.77 1548.27C1239.77 1547.6399999999999 1239.26 1547.12 1238.62 1547.12ZM1240.92 1517.1C1240.28 1517.1 1239.77 1517.62 1239.77 1518.25L1239.77 1518.48C1239.77 1519.1100000000001 1240.28 1519.6200000000001 1240.92 1519.6200000000001C1241.5500000000002 1519.6200000000001 1242.0600000000002 1519.1100000000001 1242.0600000000002 1518.48L1242.0600000000002 1518.25C1242.0600000000002 1517.62 1241.5500000000002 1517.1 1240.92 1517.1ZM1268.42 1534.52L1268.42 1534.75C1268.42 1535.38 1267.9 1535.89 1267.27 1535.89C1266.6399999999999 1535.89 1266.12 1535.38 1266.12 1534.75L1266.12 1534.52C1266.12 1533.8899999999999 1266.6399999999999 1533.37 1267.27 1533.37C1267.9 1533.37 1268.42 1533.8899999999999 1268.42 1534.52Z " fill="#ffffff" transform="matrix(1,0,0,1,-1218,-1499)"></path></svg>