<svg id="SvgjsSvg1146" xmlns="http://www.w3.org/2000/svg" version="1.1" xmlns:xlink="http://www.w3.org/1999/xlink" xmlns:svgjs="http://svgjs.com/svgjs" width="187" height="187"><defs id="SvgjsDefs1147"></defs><path id="SvgjsPath1148" d="M1001.17 9303.7C995.063 9297.67 987.4359999999999 9297.67 981.366 9303.7C976.735 9308.29 972.105 9312.880000000001 967.552 9317.550000000001C966.306 9318.840000000002 965.256 9319.11 963.738 9318.250000000002C960.7420000000001 9316.620000000003 957.551 9315.300000000001 954.672 9313.510000000002C941.2470000000001 9305.060000000001 930.001 9294.210000000003 920.039 9281.990000000002C915.097 9275.920000000002 910.6999999999999 9269.420000000002 907.626 9262.100000000002C907.0029999999999 9260.630000000003 907.12 9259.650000000001 908.326 9258.450000000003C912.957 9253.970000000003 917.471 9249.380000000003 922.024 9244.790000000003C928.366 9238.410000000003 928.366 9230.940000000002 921.985 9224.510000000002C918.366 9220.860000000002 914.747 9217.280000000002 911.128 9213.620000000003C907.393 9209.880000000003 903.696 9206.110000000002 899.921 9202.410000000003C893.812 9196.460000000003 886.1850000000001 9196.460000000003 880.115 9202.450000000004C875.445 9207.040000000005 870.97 9211.750000000004 866.223 9216.270000000004C861.8259999999999 9220.430000000004 859.608 9225.530000000004 859.141 9231.480000000003C858.401 9241.170000000004 860.775 9250.310000000003 864.122 9259.220000000003C870.9699999999999 9277.670000000004 881.399 9294.050000000003 894.045 9309.070000000003C911.1279999999999 9329.380000000003 931.519 9345.450000000003 955.372 9357.050000000003C966.112 9362.260000000002 977.241 9366.270000000002 989.343 9366.930000000002C997.67 9367.400000000001 1004.91 9365.300000000003 1010.7099999999999 9358.800000000003C1014.67 9354.370000000003 1019.15 9350.320000000003 1023.3499999999999 9346.080000000004C1029.58 9339.770000000004 1029.62 9332.150000000003 1023.43 9325.920000000004C1016.04 9318.490000000003 1008.5999999999999 9311.090000000004 1001.17 9303.700000000004ZM993.74 9272.69L1008.1 9270.24C1005.84 9257.05 999.616 9245.1 990.16 9235.6C980.159 9225.6 967.5129999999999 9219.300000000001 953.582 9217.36L951.558 9231.79C962.337 9233.310000000001 972.143 9238.17 979.887 9245.92C987.203 9253.23 991.9889999999999 9262.49 993.7399999999999 9272.69ZM1016.19 9210.27C999.6160000000001 9193.7 978.642 9183.23 955.489 9180L953.465 9194.44C973.466 9197.24 991.6 9206.300000000001 1005.9200000000001 9220.58C1019.5000000000001 9234.17 1028.41 9251.33 1031.64 9270.2L1046 9267.75C1042.23 9245.88 1031.91 9226.03 1016.19 9210.27Z " fill="#9fc246" transform="matrix(1,0,0,1,-859,-9180)"></path></svg>