<svg id="SvgjsSvg1023" xmlns="http://www.w3.org/2000/svg" version="1.1" xmlns:xlink="http://www.w3.org/1999/xlink" xmlns:svgjs="http://svgjs.com/svgjs" width="51.01000000000022" height="63.99499999999898"><defs id="SvgjsDefs1024"><filter id="SvgjsFilter1026" width="200%" height="200%" x="-50%" y="-50%"><feGaussianBlur id="SvgjsFeGaussianBlur1027" stdDeviation="0.5 " result="SvgjsFeGaussianBlur1027Out" in="SourceGraphic"></feGaussianBlur></filter></defs><path id="SvgjsPath1025" d="M1109.94 8264.01L1067.06 8264.01C1065.36 8264.01 1063.99 8265.39 1063.99 8267.1L1063.99 8322.9C1063.99 8324.609999999999 1065.36 8326 1067.06 8326L1109.94 8326C1111.63 8326 1113 8324.61 1113 8322.9L1113 8267.1C1113 8265.390000000001 1111.63 8264.01 1109.94 8264.01ZM1072.16 8289.82C1072.16 8289.26 1072.6100000000001 8288.8 1073.17 8288.8L1103.8300000000002 8288.8C1104.38 8288.8 1104.8400000000001 8289.259999999998 1104.8400000000001 8289.82L1104.8400000000001 8289.85C1104.8400000000001 8290.41 1104.38 8290.87 1103.8300000000002 8290.87L1073.17 8290.87C1072.6100000000001 8290.87 1072.16 8290.410000000002 1072.16 8289.85ZM1072.16 8282.59C1072.16 8282.03 1072.6100000000001 8281.57 1073.17 8281.57L1103.8300000000002 8281.57C1104.38 8281.57 1104.8400000000001 8282.029999999999 1104.8400000000001 8282.59L1104.8400000000001 8282.61C1104.8400000000001 8283.18 1104.38 8283.640000000001 1103.8300000000002 8283.640000000001L1073.17 8283.640000000001C1072.6100000000001 8283.640000000001 1072.16 8283.180000000002 1072.16 8282.61ZM1072.16 8296.02C1072.16 8295.460000000001 1072.6100000000001 8295 1073.17 8295L1103.8300000000002 8295C1104.38 8295 1104.8400000000001 8295.46 1104.8400000000001 8296.02L1104.8400000000001 8296.04C1104.8400000000001 8296.61 1104.38 8297.070000000002 1103.8300000000002 8297.070000000002L1073.17 8297.070000000002C1072.6100000000001 8297.070000000002 1072.16 8296.610000000002 1072.16 8296.04ZM1072.16 8302.22C1072.16 8301.66 1072.6100000000001 8301.199999999999 1073.17 8301.199999999999L1103.8300000000002 8301.199999999999C1104.38 8301.199999999999 1104.8400000000001 8301.659999999998 1104.8400000000001 8302.22L1104.8400000000001 8302.24C1104.8400000000001 8302.81 1104.38 8303.27 1103.8300000000002 8303.27L1073.17 8303.27C1072.6100000000001 8303.27 1072.16 8302.810000000001 1072.16 8302.24ZM1072.16 8309.48L1072.16 8309.449999999999C1072.16 8308.89 1072.6100000000001 8308.429999999998 1073.17 8308.429999999998L1103.8300000000002 8308.429999999998C1104.38 8308.429999999998 1104.8400000000001 8308.889999999998 1104.8400000000001 8309.449999999999L1104.8400000000001 8309.48C1104.8400000000001 8310.039999999999 1104.38 8310.5 1103.8300000000002 8310.5L1073.17 8310.5C1072.6100000000001 8310.5 1072.16 8310.04 1072.16 8309.48ZM1079.31 8273.29C1079.31 8272.730000000001 1079.76 8272.27 1080.32 8272.27L1096.6799999999998 8272.27C1097.2399999999998 8272.27 1097.6899999999998 8272.73 1097.6899999999998 8273.29L1097.6899999999998 8274.35C1097.6899999999998 8274.91 1097.2399999999998 8275.37 1096.6799999999998 8275.37L1080.32 8275.37C1079.76 8275.37 1079.31 8274.910000000002 1079.31 8274.35ZM1104.11 8317.43C1103.3899999999999 8316.7 1103.3899999999999 8316.7 1101.77 8316.7C1100.92 8316.7 1100.28 8316.91 1099.54 8317.16C1098.75 8317.43 1097.85 8317.73 1096.67 8317.73C1095.02 8317.73 1094.5 8316.689999999999 1094.22 8316.13C1094 8315.67 1094 8315.66 1093.6000000000001 8315.66C1092.64 8315.66 1092.5800000000002 8317.71 1092.5800000000002 8317.73L1090.5400000000002 8317.73C1090.5400000000002 8316.3 1091.1800000000003 8313.6 1093.6000000000001 8313.6C1095.2600000000002 8313.6 1095.7700000000002 8314.640000000001 1096.0500000000002 8315.2C1096.2700000000002 8315.650000000001 1096.2800000000002 8315.66 1096.67 8315.66C1097.52 8315.66 1098.16 8315.45 1098.9 8315.2C1099.69 8314.93 1100.5900000000001 8314.630000000001 1101.77 8314.630000000001C1104 8314.630000000001 1104.28 8314.670000000002 1105.56 8315.970000000001Z " fill="#000000" fill-opacity="0.24" filter="url(#SvgjsFilter1026)" transform="matrix(1,0,0,1,-1062.495,-8263)"></path><path id="SvgjsPath1028" d="M1109.94 8263.01L1067.06 8263.01C1065.36 8263.01 1063.99 8264.39 1063.99 8266.1L1063.99 8321.9C1063.99 8323.609999999999 1065.36 8325 1067.06 8325L1109.94 8325C1111.63 8325 1113 8323.61 1113 8321.9L1113 8266.1C1113 8264.390000000001 1111.63 8263.01 1109.94 8263.01ZM1072.16 8288.82C1072.16 8288.26 1072.6100000000001 8287.8 1073.17 8287.8L1103.8300000000002 8287.8C1104.38 8287.8 1104.8400000000001 8288.259999999998 1104.8400000000001 8288.82L1104.8400000000001 8288.85C1104.8400000000001 8289.41 1104.38 8289.87 1103.8300000000002 8289.87L1073.17 8289.87C1072.6100000000001 8289.87 1072.16 8289.410000000002 1072.16 8288.85ZM1072.16 8281.59C1072.16 8281.03 1072.6100000000001 8280.57 1073.17 8280.57L1103.8300000000002 8280.57C1104.38 8280.57 1104.8400000000001 8281.029999999999 1104.8400000000001 8281.59L1104.8400000000001 8281.61C1104.8400000000001 8282.18 1104.38 8282.640000000001 1103.8300000000002 8282.640000000001L1073.17 8282.640000000001C1072.6100000000001 8282.640000000001 1072.16 8282.180000000002 1072.16 8281.61ZM1072.16 8295.02C1072.16 8294.460000000001 1072.6100000000001 8294 1073.17 8294L1103.8300000000002 8294C1104.38 8294 1104.8400000000001 8294.46 1104.8400000000001 8295.02L1104.8400000000001 8295.04C1104.8400000000001 8295.61 1104.38 8296.070000000002 1103.8300000000002 8296.070000000002L1073.17 8296.070000000002C1072.6100000000001 8296.070000000002 1072.16 8295.610000000002 1072.16 8295.04ZM1072.16 8301.22C1072.16 8300.66 1072.6100000000001 8300.199999999999 1073.17 8300.199999999999L1103.8300000000002 8300.199999999999C1104.38 8300.199999999999 1104.8400000000001 8300.659999999998 1104.8400000000001 8301.22L1104.8400000000001 8301.24C1104.8400000000001 8301.81 1104.38 8302.27 1103.8300000000002 8302.27L1073.17 8302.27C1072.6100000000001 8302.27 1072.16 8301.810000000001 1072.16 8301.24ZM1072.16 8308.48L1072.16 8308.449999999999C1072.16 8307.89 1072.6100000000001 8307.429999999998 1073.17 8307.429999999998L1103.8300000000002 8307.429999999998C1104.38 8307.429999999998 1104.8400000000001 8307.889999999998 1104.8400000000001 8308.449999999999L1104.8400000000001 8308.48C1104.8400000000001 8309.039999999999 1104.38 8309.5 1103.8300000000002 8309.5L1073.17 8309.5C1072.6100000000001 8309.5 1072.16 8309.04 1072.16 8308.48ZM1079.31 8272.29C1079.31 8271.730000000001 1079.76 8271.27 1080.32 8271.27L1096.6799999999998 8271.27C1097.2399999999998 8271.27 1097.6899999999998 8271.73 1097.6899999999998 8272.29L1097.6899999999998 8273.35C1097.6899999999998 8273.91 1097.2399999999998 8274.37 1096.6799999999998 8274.37L1080.32 8274.37C1079.76 8274.37 1079.31 8273.910000000002 1079.31 8273.35ZM1104.11 8316.43C1103.3899999999999 8315.7 1103.3899999999999 8315.7 1101.77 8315.7C1100.92 8315.7 1100.28 8315.91 1099.54 8316.16C1098.75 8316.43 1097.85 8316.73 1096.67 8316.73C1095.02 8316.73 1094.5 8315.689999999999 1094.22 8315.13C1094 8314.67 1094 8314.66 1093.6000000000001 8314.66C1092.64 8314.66 1092.5800000000002 8316.71 1092.5800000000002 8316.73L1090.5400000000002 8316.73C1090.5400000000002 8315.3 1091.1800000000003 8312.6 1093.6000000000001 8312.6C1095.2600000000002 8312.6 1095.7700000000002 8313.640000000001 1096.0500000000002 8314.2C1096.2700000000002 8314.650000000001 1096.2800000000002 8314.66 1096.67 8314.66C1097.52 8314.66 1098.16 8314.45 1098.9 8314.2C1099.69 8313.93 1100.5900000000001 8313.630000000001 1101.77 8313.630000000001C1104 8313.630000000001 1104.28 8313.670000000002 1105.56 8314.970000000001Z " fill="#ffffff" transform="matrix(1,0,0,1,-1062.495,-8263)"></path></svg>