<svg id="SvgjsSvg1086" xmlns="http://www.w3.org/2000/svg" version="1.1" xmlns:xlink="http://www.w3.org/1999/xlink" xmlns:svgjs="http://svgjs.com/svgjs" width="33" height="59"><defs id="SvgjsDefs1087"></defs><path id="SvgjsPath1088" d="M1259.8 1335.8L1252.76 1314.81C1252.45 1313.8799999999999 1251.82 1313.1399999999999 1251.03 1312.6699999999998L1248.81 1306.0099999999998C1250.1499999999999 1304.7499999999998 1250.98 1302.9599999999998 1250.98 1300.9799999999998L1250.98 1283.9399999999998C1250.98 1283.6599999999999 1250.8600000000001 1283.3999999999999 1250.64 1283.2199999999998C1250.43 1283.0399999999997 1250.15 1282.9599999999998 1249.8700000000001 1283.0199999999998C1249.7800000000002 1283.0299999999997 1247.5600000000002 1283.4699999999998 1245.38 1285.5799999999997C1242.7600000000002 1288.1199999999997 1241.67 1291.6199999999997 1241.2800000000002 1294.7899999999997C1240.1200000000001 1289.6999999999998 1239.9600000000003 1283.9899999999998 1239.9600000000003 1283.9199999999998C1239.9500000000003 1283.5099999999998 1239.6800000000003 1283.1599999999999 1239.3000000000002 1283.0399999999997C1238.91 1282.9199999999998 1238.4900000000002 1283.0699999999997 1238.2500000000002 1283.3999999999996C1238.0900000000001 1283.6299999999997 1234.3300000000002 1289.1699999999996 1237.0800000000002 1300.0899999999997L1237.0800000000002 1300.9799999999998C1237.0800000000002 1302.9299999999998 1237.9 1304.6999999999998 1239.2 1305.9699999999998L1236.97 1312.6699999999998C1236.19 1313.1399999999999 1235.56 1313.8799999999999 1235.25 1314.81L1228.21 1335.8C1227.8700000000001 1336.8 1227.95 1337.87 1228.42 1338.82C1228.89 1339.76 1229.7 1340.46 1230.7 1340.8C1231.1100000000001 1340.93 1231.53 1341 1231.95 1341C1233.65 1341 1235.15 1339.91 1235.69 1338.3L1241.8400000000001 1319.95L1246.16 1319.95L1252.3100000000002 1338.3C1252.8500000000001 1339.9099999999999 1254.3500000000001 1341 1256.0500000000002 1341C1256.4800000000002 1341 1256.9 1340.93 1257.3000000000002 1340.8C1258.3000000000002 1340.46 1259.1100000000001 1339.76 1259.5800000000002 1338.82C1260.0500000000002 1337.87 1260.13 1336.8 1259.8000000000002 1335.8ZM1233.91 1337.71C1233.63 1338.55 1232.8400000000001 1339.1200000000001 1231.95 1339.1200000000001C1231.73 1339.1200000000001 1231.51 1339.0800000000002 1231.29 1339.0100000000002C1230.21 1338.6500000000003 1229.6299999999999 1337.4800000000002 1229.99 1336.4000000000003L1237.03 1315.4100000000003C1237.32 1314.5400000000004 1238.1299999999999 1313.9900000000002 1238.99 1313.9900000000002C1239.21 1313.9900000000002 1239.43 1314.0300000000002 1239.64 1314.1000000000001C1240.17 1314.2700000000002 1240.5900000000001 1314.64 1240.8400000000001 1315.13C1241.0800000000002 1315.63 1241.1200000000001 1316.19 1240.95 1316.71ZM1238.96 1300.98L1238.96 1300.91L1241.0900000000001 1300.91C1241.0900000000001 1300.93 1241.0900000000001 1300.95 1241.0900000000001 1300.98C1241.0900000000001 1302.6 1242.41 1303.92 1244.0300000000002 1303.92C1245.6600000000003 1303.92 1246.9800000000002 1302.6000000000001 1246.9800000000002 1300.98C1246.9800000000002 1299.35 1245.6600000000003 1298.03 1244.0300000000002 1298.03C1243.6600000000003 1298.03 1243.3000000000002 1298.1 1242.9700000000003 1298.23L1242.9700000000003 1297.97C1242.9700000000003 1293.17 1244.2300000000002 1289.38 1246.6100000000004 1287.01C1247.5100000000004 1286.12 1248.4200000000003 1285.58 1249.1000000000004 1285.26L1249.1000000000004 1300.98C1249.1000000000004 1303.77 1246.8300000000004 1306.05 1244.0300000000004 1306.05C1241.2400000000005 1306.05 1238.9600000000005 1303.77 1238.9600000000005 1300.98ZM1238.38 1288.36C1238.43 1288.8799999999999 1238.49 1289.4299999999998 1238.5600000000002 1290C1239.0200000000002 1293.72 1239.7000000000003 1296.75 1240.5900000000001 1299.03L1238.7600000000002 1299.03C1237.6700000000003 1294.35 1237.8700000000001 1290.79 1238.38 1288.36ZM1242.73 1317.31C1243.05 1316.36 1243 1315.35 1242.59 1314.44L1244 1310.19L1245.42 1314.44C1245.01 1315.3500000000001 1244.95 1316.3600000000001 1245.27 1317.31L1245.53 1318.07L1242.47 1318.07ZM1242.81 1307.82L1241.1599999999999 1312.76C1240.8799999999999 1312.58 1240.57 1312.43 1240.2399999999998 1312.31C1239.87 1312.19 1239.4999999999998 1312.1299999999999 1239.1399999999999 1312.12L1240.8 1307.1299999999999C1241.4199999999998 1307.4499999999998 1242.1 1307.6899999999998 1242.81 1307.82ZM1248.87 1312.12C1248.5 1312.1299999999999 1248.1299999999999 1312.1899999999998 1247.77 1312.32C1247.43 1312.4299999999998 1247.12 1312.58 1246.84 1312.76L1245.1899999999998 1307.83C1245.9099999999999 1307.71 1246.59 1307.48 1247.2099999999998 1307.1499999999999ZM1244.03 1299.91C1244.62 1299.91 1245.1 1300.39 1245.1 1300.98C1245.1 1301.56 1244.62 1302.04 1244.03 1302.04C1243.45 1302.04 1242.97 1301.56 1242.97 1300.98C1242.97 1300.39 1243.45 1299.91 1244.03 1299.91ZM1256.71 1339.01C1256.5 1339.08 1256.28 1339.12 1256.05 1339.12C1255.1599999999999 1339.12 1254.3799999999999 1338.55 1254.09 1337.6999999999998L1247.05 1316.7099999999998C1246.8799999999999 1316.1899999999998 1246.9199999999998 1315.6299999999999 1247.1599999999999 1315.1299999999999C1247.4099999999999 1314.6399999999999 1247.84 1314.27 1248.36 1314.1C1248.57 1314.03 1248.79 1313.99 1249.01 1313.99C1249.8799999999999 1313.99 1250.69 1314.54 1250.97 1315.41L1258.02 1336.4C1258.3799999999999 1337.48 1257.79 1338.65 1256.71 1339.01Z " fill="#ffffff" transform="matrix(1,0,0,1,-1228,-1282)"></path></svg>