<svg id="SvgjsSvg1080" xmlns="http://www.w3.org/2000/svg" version="1.1" xmlns:xlink="http://www.w3.org/1999/xlink" xmlns:svgjs="http://svgjs.com/svgjs" width="49.00200000000041" height="54"><defs id="SvgjsDefs1081"><filter id="SvgjsFilter1083" width="200%" height="200%" x="-50%" y="-50%"><feGaussianBlur id="SvgjsFeGaussianBlur1084" stdDeviation="0.5 " result="SvgjsFeGaussianBlur1084Out" in="SourceGraphic"></feGaussianBlur></filter></defs><path id="SvgjsPath1082" d="M981.348 1308.69C982.168 1306.8 982.308 1304.68 981.7379999999999 1302.69C980.799 1299.4 978.0409999999999 1296.96 974.6429999999999 1296.38C973.5999999999999 1294.5800000000002 971.992 1293.18 970.074 1292.48C969.934 1291.95 969.731 1291.43 969.467 1290.94C968.583 1289.3 967.114 1288.1000000000001 965.332 1287.56C963.55 1287.03 961.668 1287.23 960.031 1288.11C960.024 1288.12 960.0169999999999 1288.12 960.01 1288.1299999999999C958.527 1287.3899999999999 956.899 1286.9999999999998 955.2139999999999 1286.9999999999998C950.2779999999999 1286.9999999999998 945.881 1290.4499999999998 944.3539999999999 1295.4599999999998C940.934 1296.7499999999998 938.5889999999999 1300.2599999999998 938.5889999999999 1304.1999999999998C938.5889999999999 1305.1699999999998 938.7249999999999 1306.11 938.9949999999999 1307.0199999999998C937.0829999999999 1308.9199999999998 935.9989999999999 1311.5799999999997 935.9989999999999 1314.4099999999999C935.9989999999999 1316.83 936.8079999999999 1319.1699999999998 938.2769999999999 1320.9899999999998C939.0169999999999 1321.9099999999999 939.8989999999999 1322.6799999999998 940.8749999999999 1323.2499999999998C941.7589999999999 1326.5199999999998 945.2409999999999 1328.4599999999998 948.6739999999999 1327.5699999999997C949.3639999999999 1327.3899999999996 950.0149999999999 1327.1099999999997 950.6099999999999 1326.7299999999998C951.0569999999999 1326.4499999999998 951.1909999999999 1325.8499999999997 950.9069999999999 1325.3999999999999C950.6239999999999 1324.9499999999998 950.031 1324.82 949.5819999999999 1325.1C949.1579999999999 1325.37 948.6919999999999 1325.58 948.1969999999999 1325.6999999999998C946.4049999999999 1326.1699999999998 944.5989999999999 1325.5599999999997 943.5369999999999 1324.2899999999997C943.684 1324.3199999999997 943.833 1324.3499999999997 943.982 1324.3799999999997C944.506 1324.4599999999996 944.9979999999999 1324.0999999999997 945.081 1323.5699999999997C945.165 1323.0499999999997 944.808 1322.5499999999997 944.284 1322.4699999999998C940.655 1321.8899999999999 937.919 1318.4199999999998 937.919 1314.4099999999999C937.919 1311.9099999999999 938.944 1309.59 940.731 1308.0299999999997C941.033 1307.7699999999998 941.141 1307.3399999999997 941.001 1306.9599999999998C940.674 1306.09 940.509 1305.1599999999999 940.509 1304.1999999999998C940.509 1300.9199999999998 942.5260000000001 1298.0099999999998 945.416 1297.1399999999999C945.7360000000001 1297.04 945.9830000000001 1296.78 946.0680000000001 1296.4599999999998C947.224 1292.0299999999997 950.9850000000001 1288.9299999999998 955.214 1288.9299999999998C957.7510000000001 1288.9299999999998 960.1370000000001 1290.0099999999998 961.932 1291.9599999999998C962.292 1292.36 962.899 1292.3799999999999 963.289 1292.0199999999998C963.679 1291.6599999999999 963.703 1291.0499999999997 963.3439999999999 1290.6599999999999C962.9179999999999 1290.1899999999998 962.4639999999999 1289.7699999999998 961.986 1289.3899999999999C962.894 1289.1299999999999 963.857 1289.1399999999999 964.783 1289.4099999999999C966.0740000000001 1289.8 967.138 1290.6699999999998 967.778 1291.86C968.038 1292.34 968.217 1292.86 968.311 1293.3899999999999C968.375 1293.7599999999998 968.639 1294.05 968.9920000000001 1294.1499999999999C971.513 1294.8799999999999 973.4420000000001 1297.1399999999999 973.9060000000001 1299.9099999999999C973.994 1300.4399999999998 974.49 1300.79 975.0120000000001 1300.6999999999998C975.5350000000001 1300.61 975.888 1300.11 975.8000000000001 1299.59C975.7450000000001 1299.26 975.6730000000001 1298.9399999999998 975.586 1298.62C977.646 1299.3999999999999 979.289 1301.1 979.892 1303.2199999999998C980.243 1304.4499999999998 980.2510000000001 1305.7299999999998 979.928 1306.9399999999998C979.907 1306.9199999999998 979.886 1306.8999999999999 979.864 1306.8799999999999C979.481 1306.51 978.873 1306.53 978.5070000000001 1306.9099999999999C978.1410000000001 1307.3 978.1550000000001 1307.9099999999999 978.5390000000001 1308.2799999999997C980.1540000000001 1309.8299999999997 981.0810000000001 1312.0599999999997 981.0810000000001 1314.4099999999999C981.0810000000001 1318.4199999999998 978.3440000000002 1321.8899999999999 974.7150000000001 1322.4699999999998C974.1920000000001 1322.5499999999997 973.8350000000002 1323.0499999999997 973.9180000000001 1323.5699999999997C974.0020000000001 1324.0999999999997 974.4940000000001 1324.4599999999998 975.0170000000002 1324.3799999999997C975.2710000000002 1324.3299999999997 975.5220000000002 1324.2799999999997 975.7700000000002 1324.2199999999996C974.7160000000002 1325.5299999999995 972.8770000000002 1326.1699999999996 971.0510000000002 1325.6999999999996C970.5560000000002 1325.5799999999997 970.0890000000002 1325.3699999999997 969.6650000000002 1325.0999999999997C969.2170000000002 1324.8199999999997 968.6240000000001 1324.9499999999996 968.3400000000001 1325.3999999999996C968.0570000000001 1325.8499999999997 968.1900000000002 1326.4499999999996 968.6380000000001 1326.7299999999996C969.2320000000002 1327.1099999999997 969.8840000000001 1327.3899999999996 970.5740000000002 1327.5699999999995C971.1370000000002 1327.7199999999996 971.7020000000002 1327.7899999999995 972.2560000000002 1327.7899999999995C975.1040000000002 1327.7899999999995 977.6780000000002 1325.9499999999996 978.3910000000002 1323.1799999999996C978.4000000000002 1323.1399999999996 978.4080000000002 1323.1099999999997 978.4130000000002 1323.0699999999997C979.2740000000002 1322.5199999999998 980.0560000000003 1321.8199999999997 980.7230000000002 1320.9899999999998C982.1920000000002 1319.1699999999998 983.0010000000002 1316.8299999999997 983.0010000000002 1314.4099999999999C983.0000000000002 1312.35 982.4140000000002 1310.36 981.3480000000002 1308.6899999999998ZM956.939 1320.64C956.409 1320.64 955.9789999999999 1321.0700000000002 955.9789999999999 1321.6100000000001L955.9789999999999 1323.8000000000002C955.1159999999999 1323.3300000000002 954.3489999999999 1322.6800000000003 953.727 1321.91C953.395 1321.49 952.79 1321.42 952.377 1321.76C951.9639999999999 1322.09 951.8979999999999 1322.7 952.2299999999999 1323.11C953.2259999999999 1324.36 954.5159999999998 1325.33 955.9789999999999 1325.9299999999998L955.9789999999999 1332.7799999999997C954.901 1333.2699999999998 953.934 1333.9799999999998 953.1389999999999 1334.8699999999997L947.6659999999999 1334.8699999999997C947.136 1334.8699999999997 946.7059999999999 1335.3099999999997 946.7059999999999 1335.8399999999997C946.7059999999999 1336.3699999999997 947.1359999999999 1336.7999999999997 947.6659999999999 1336.7999999999997L953.583 1336.7999999999997C953.874 1336.7999999999997 954.149 1336.6699999999996 954.331 1336.4399999999998C955.1 1335.4799999999998 956.114 1334.7499999999998 957.263 1334.34C957.645 1334.1999999999998 957.899 1333.84 957.899 1333.4299999999998L957.899 1321.61C957.899 1321.07 957.469 1320.6399999999999 956.939 1320.6399999999999ZM968.506 1320.29C971.35 1320.29 973.8879999999999 1318.58 974.971 1315.94C975.173 1315.45 974.939 1314.88 974.449 1314.68C973.958 1314.48 973.3979999999999 1314.71 973.1959999999999 1315.2C972.41 1317.1200000000001 970.569 1318.3600000000001 968.5059999999999 1318.3600000000001C967.0069999999998 1318.3600000000001 965.5919999999999 1317.7 964.6249999999999 1316.5500000000002C964.3199999999999 1316.1800000000003 963.7969999999999 1316.1000000000001 963.3919999999999 1316.3400000000001C962.223 1317.0600000000002 960.877 1317.43 959.4999999999999 1317.43C958.1229999999999 1317.43 956.7769999999999 1317.0600000000002 955.6069999999999 1316.3400000000001C955.2029999999999 1316.1000000000001 954.6789999999999 1316.18 954.3739999999999 1316.5500000000002C953.4069999999999 1317.7000000000003 951.9929999999999 1318.3600000000001 950.4939999999999 1318.3600000000001C948.43 1318.3600000000001 946.5889999999999 1317.1200000000001 945.8039999999999 1315.2C945.6019999999999 1314.71 945.0409999999998 1314.48 944.5509999999998 1314.68C944.0609999999998 1314.88 943.8269999999998 1315.45 944.0289999999998 1315.94C945.1109999999998 1318.5800000000002 947.6489999999998 1320.29 950.4939999999998 1320.29C952.2929999999998 1320.29 954.0029999999998 1319.6 955.2949999999998 1318.37C956.5949999999998 1319.02 958.0339999999999 1319.36 959.4999999999999 1319.36C960.9659999999999 1319.36 962.4039999999999 1319.02 963.7039999999998 1318.37C964.9959999999999 1319.6 966.7059999999998 1320.29 968.5059999999999 1320.29ZM967.401 1332.25C966.818 1331.75 966.0759999999999 1331.59 965.3639999999999 1331.8C965.271 1331.83 965.1809999999999 1331.85 965.0939999999999 1331.8799999999999C964.833 1330.9399999999998 964.2479999999999 1330.11 963.4259999999999 1329.56C962.9849999999999 1329.26 962.3889999999999 1329.3799999999999 962.0939999999999 1329.83C961.799 1330.27 961.9169999999999 1330.87 962.357 1331.1599999999999C962.5889999999999 1331.32 962.786 1331.5199999999998 962.9399999999999 1331.7399999999998C962.294 1331.6399999999999 961.6629999999999 1331.8199999999997 961.1419999999999 1332.2799999999997C960.3299999999999 1332.9999999999998 959.9159999999999 1334.2599999999998 960.0859999999999 1335.5099999999998C960.353 1337.4699999999998 961.9199999999998 1338.9999999999998 963.6529999999999 1338.9999999999998C963.8679999999999 1338.9999999999998 964.0799999999999 1338.9799999999998 964.2849999999999 1338.9299999999998C964.4899999999999 1338.9799999999998 964.7019999999999 1338.9999999999998 964.9169999999998 1338.9999999999998C966.6499999999997 1338.9999999999998 968.2169999999998 1337.4699999999998 968.4839999999998 1335.5099999999998C968.6539999999998 1334.2599999999998 968.2189999999998 1332.9499999999998 967.4009999999998 1332.2499999999998ZM967.297 1310.96C966.767 1310.96 966.337 1311.39 966.337 1311.92C966.337 1313.47 967.585 1314.72 969.119 1314.72C970.654 1314.72 971.902 1313.47 971.902 1311.92C971.902 1311.39 971.4720000000001 1310.96 970.942 1310.96C970.4110000000001 1310.96 969.982 1311.39 969.982 1311.92C969.982 1312.4 969.595 1312.79 969.1189999999999 1312.79C968.6439999999999 1312.79 968.257 1312.3999999999999 968.257 1311.92C968.257 1311.39 967.827 1310.96 967.2969999999999 1310.96ZM967.942 1298.21C967.412 1298.21 966.982 1298.64 966.982 1299.18C966.982 1299.65 966.596 1300.04 966.12 1300.04C965.645 1300.04 965.258 1299.6499999999999 965.258 1299.18C965.258 1298.64 964.8280000000001 1298.21 964.298 1298.21C963.768 1298.21 963.338 1298.64 963.338 1299.18C963.338 1300.72 964.586 1301.97 966.12 1301.97C967.654 1301.97 968.902 1300.72 968.902 1299.18C968.902 1298.64 968.4730000000001 1298.21 967.942 1298.21ZM947.373 1306.46C948.907 1306.46 950.1550000000001 1305.21 950.1550000000001 1303.66C950.1550000000001 1303.13 949.7250000000001 1302.7 949.195 1302.7C948.6650000000001 1302.7 948.235 1303.13 948.235 1303.66C948.235 1304.14 947.8480000000001 1304.53 947.373 1304.53C946.898 1304.53 946.5110000000001 1304.1399999999999 946.5110000000001 1303.66C946.5110000000001 1303.13 946.0810000000001 1302.7 945.551 1302.7C945.0210000000001 1302.7 944.591 1303.13 944.591 1303.66C944.591 1305.21 945.839 1306.46 947.373 1306.46ZM966.582 1335.25C966.45 1336.22 965.671 1337.07 964.917 1337.07C964.811 1337.07 964.71 1337.05 964.6170000000001 1337.02C964.5100000000001 1336.98 964.398 1336.96 964.2850000000001 1336.96C964.1730000000001 1336.96 964.0600000000001 1336.98 963.9530000000001 1337.02C963.8600000000001 1337.05 963.7590000000001 1337.07 963.6530000000001 1337.07C962.8990000000001 1337.07 962.1210000000001 1336.22 961.9880000000002 1335.25C961.8980000000001 1334.58 962.1360000000002 1333.97 962.4070000000002 1333.73C962.5280000000001 1333.63 962.6020000000002 1333.64 962.6730000000001 1333.66C963.6850000000001 1333.94 964.6250000000001 1334.0400000000002 965.9190000000001 1333.65C965.974 1333.63 966.0350000000001 1333.6100000000001 966.1540000000001 1333.72C966.4340000000001 1333.96 966.6710000000002 1334.6000000000001 966.5820000000001 1335.25ZM977.25 1334.87L971.366 1334.87C970.836 1334.87 970.406 1335.3 970.406 1335.84C970.406 1336.37 970.8359999999999 1336.8 971.366 1336.8L977.25 1336.8C977.78 1336.8 978.21 1336.37 978.21 1335.84C978.21 1335.3 977.7800000000001 1334.87 977.25 1334.87ZM963.02 1321.61L963.02 1323.8C963.884 1323.33 964.65 1322.68 965.273 1321.9099999999999C965.605 1321.4899999999998 966.2090000000001 1321.4199999999998 966.6220000000001 1321.7599999999998C967.0360000000001 1322.0899999999997 967.1020000000001 1322.6999999999998 966.7700000000001 1323.1099999999997C965.7730000000001 1324.3599999999997 964.4830000000001 1325.3299999999997 963.0200000000001 1325.9299999999996L963.0200000000001 1326.8299999999997C963.0200000000001 1327.3599999999997 962.5910000000001 1327.7999999999997 962.0610000000001 1327.7999999999997C961.5300000000002 1327.7999999999997 961.1000000000001 1327.3599999999997 961.1000000000001 1326.8299999999997L961.1000000000001 1321.6099999999997C961.1000000000001 1321.0699999999997 961.5300000000001 1320.6399999999996 962.0610000000001 1320.6399999999996C962.5910000000001 1320.6399999999996 963.0200000000001 1321.0699999999997 963.0200000000001 1321.6099999999997Z " fill="#000000" fill-opacity="0.24" filter="url(#SvgjsFilter1083)" transform="matrix(1,0,0,1,-934.9989999999998,-1286)"></path><path id="SvgjsPath1085" d="M981.348 1307.69C982.168 1305.8 982.308 1303.68 981.7379999999999 1301.69C980.799 1298.4 978.0409999999999 1295.96 974.6429999999999 1295.38C973.5999999999999 1293.5800000000002 971.992 1292.18 970.074 1291.48C969.934 1290.95 969.731 1290.43 969.467 1289.94C968.583 1288.3 967.114 1287.1000000000001 965.332 1286.56C963.55 1286.03 961.668 1286.23 960.031 1287.11C960.024 1287.12 960.0169999999999 1287.12 960.01 1287.1299999999999C958.527 1286.3899999999999 956.899 1285.9999999999998 955.2139999999999 1285.9999999999998C950.2779999999999 1285.9999999999998 945.881 1289.4499999999998 944.3539999999999 1294.4599999999998C940.934 1295.7499999999998 938.5889999999999 1299.2599999999998 938.5889999999999 1303.1999999999998C938.5889999999999 1304.1699999999998 938.7249999999999 1305.11 938.9949999999999 1306.0199999999998C937.0829999999999 1307.9199999999998 935.9989999999999 1310.5799999999997 935.9989999999999 1313.4099999999999C935.9989999999999 1315.83 936.8079999999999 1318.1699999999998 938.2769999999999 1319.9899999999998C939.0169999999999 1320.9099999999999 939.8989999999999 1321.6799999999998 940.8749999999999 1322.2499999999998C941.7589999999999 1325.5199999999998 945.2409999999999 1327.4599999999998 948.6739999999999 1326.5699999999997C949.3639999999999 1326.3899999999996 950.0149999999999 1326.1099999999997 950.6099999999999 1325.7299999999998C951.0569999999999 1325.4499999999998 951.1909999999999 1324.8499999999997 950.9069999999999 1324.3999999999999C950.6239999999999 1323.9499999999998 950.031 1323.82 949.5819999999999 1324.1C949.1579999999999 1324.37 948.6919999999999 1324.58 948.1969999999999 1324.6999999999998C946.4049999999999 1325.1699999999998 944.5989999999999 1324.5599999999997 943.5369999999999 1323.2899999999997C943.684 1323.3199999999997 943.833 1323.3499999999997 943.982 1323.3799999999997C944.506 1323.4599999999996 944.9979999999999 1323.0999999999997 945.081 1322.5699999999997C945.165 1322.0499999999997 944.808 1321.5499999999997 944.284 1321.4699999999998C940.655 1320.8899999999999 937.919 1317.4199999999998 937.919 1313.4099999999999C937.919 1310.9099999999999 938.944 1308.59 940.731 1307.0299999999997C941.033 1306.7699999999998 941.141 1306.3399999999997 941.001 1305.9599999999998C940.674 1305.09 940.509 1304.1599999999999 940.509 1303.1999999999998C940.509 1299.9199999999998 942.5260000000001 1297.0099999999998 945.416 1296.1399999999999C945.7360000000001 1296.04 945.9830000000001 1295.78 946.0680000000001 1295.4599999999998C947.224 1291.0299999999997 950.9850000000001 1287.9299999999998 955.214 1287.9299999999998C957.7510000000001 1287.9299999999998 960.1370000000001 1289.0099999999998 961.932 1290.9599999999998C962.292 1291.36 962.899 1291.3799999999999 963.289 1291.0199999999998C963.679 1290.6599999999999 963.703 1290.0499999999997 963.3439999999999 1289.6599999999999C962.9179999999999 1289.1899999999998 962.4639999999999 1288.7699999999998 961.986 1288.3899999999999C962.894 1288.1299999999999 963.857 1288.1399999999999 964.783 1288.4099999999999C966.0740000000001 1288.8 967.138 1289.6699999999998 967.778 1290.86C968.038 1291.34 968.217 1291.86 968.311 1292.3899999999999C968.375 1292.7599999999998 968.639 1293.05 968.9920000000001 1293.1499999999999C971.513 1293.8799999999999 973.4420000000001 1296.1399999999999 973.9060000000001 1298.9099999999999C973.994 1299.4399999999998 974.49 1299.79 975.0120000000001 1299.6999999999998C975.5350000000001 1299.61 975.888 1299.11 975.8000000000001 1298.59C975.7450000000001 1298.26 975.6730000000001 1297.9399999999998 975.586 1297.62C977.646 1298.3999999999999 979.289 1300.1 979.892 1302.2199999999998C980.243 1303.4499999999998 980.2510000000001 1304.7299999999998 979.928 1305.9399999999998C979.907 1305.9199999999998 979.886 1305.8999999999999 979.864 1305.8799999999999C979.481 1305.51 978.873 1305.53 978.5070000000001 1305.9099999999999C978.1410000000001 1306.3 978.1550000000001 1306.9099999999999 978.5390000000001 1307.2799999999997C980.1540000000001 1308.8299999999997 981.0810000000001 1311.0599999999997 981.0810000000001 1313.4099999999999C981.0810000000001 1317.4199999999998 978.3440000000002 1320.8899999999999 974.7150000000001 1321.4699999999998C974.1920000000001 1321.5499999999997 973.8350000000002 1322.0499999999997 973.9180000000001 1322.5699999999997C974.0020000000001 1323.0999999999997 974.4940000000001 1323.4599999999998 975.0170000000002 1323.3799999999997C975.2710000000002 1323.3299999999997 975.5220000000002 1323.2799999999997 975.7700000000002 1323.2199999999996C974.7160000000002 1324.5299999999995 972.8770000000002 1325.1699999999996 971.0510000000002 1324.6999999999996C970.5560000000002 1324.5799999999997 970.0890000000002 1324.3699999999997 969.6650000000002 1324.0999999999997C969.2170000000002 1323.8199999999997 968.6240000000001 1323.9499999999996 968.3400000000001 1324.3999999999996C968.0570000000001 1324.8499999999997 968.1900000000002 1325.4499999999996 968.6380000000001 1325.7299999999996C969.2320000000002 1326.1099999999997 969.8840000000001 1326.3899999999996 970.5740000000002 1326.5699999999995C971.1370000000002 1326.7199999999996 971.7020000000002 1326.7899999999995 972.2560000000002 1326.7899999999995C975.1040000000002 1326.7899999999995 977.6780000000002 1324.9499999999996 978.3910000000002 1322.1799999999996C978.4000000000002 1322.1399999999996 978.4080000000002 1322.1099999999997 978.4130000000002 1322.0699999999997C979.2740000000002 1321.5199999999998 980.0560000000003 1320.8199999999997 980.7230000000002 1319.9899999999998C982.1920000000002 1318.1699999999998 983.0010000000002 1315.8299999999997 983.0010000000002 1313.4099999999999C983.0000000000002 1311.35 982.4140000000002 1309.36 981.3480000000002 1307.6899999999998ZM956.939 1319.64C956.409 1319.64 955.9789999999999 1320.0700000000002 955.9789999999999 1320.6100000000001L955.9789999999999 1322.8000000000002C955.1159999999999 1322.3300000000002 954.3489999999999 1321.6800000000003 953.727 1320.91C953.395 1320.49 952.79 1320.42 952.377 1320.76C951.9639999999999 1321.09 951.8979999999999 1321.7 952.2299999999999 1322.11C953.2259999999999 1323.36 954.5159999999998 1324.33 955.9789999999999 1324.9299999999998L955.9789999999999 1331.7799999999997C954.901 1332.2699999999998 953.934 1332.9799999999998 953.1389999999999 1333.8699999999997L947.6659999999999 1333.8699999999997C947.136 1333.8699999999997 946.7059999999999 1334.3099999999997 946.7059999999999 1334.8399999999997C946.7059999999999 1335.3699999999997 947.1359999999999 1335.7999999999997 947.6659999999999 1335.7999999999997L953.583 1335.7999999999997C953.874 1335.7999999999997 954.149 1335.6699999999996 954.331 1335.4399999999998C955.1 1334.4799999999998 956.114 1333.7499999999998 957.263 1333.34C957.645 1333.1999999999998 957.899 1332.84 957.899 1332.4299999999998L957.899 1320.61C957.899 1320.07 957.469 1319.6399999999999 956.939 1319.6399999999999ZM968.506 1319.29C971.35 1319.29 973.8879999999999 1317.58 974.971 1314.94C975.173 1314.45 974.939 1313.88 974.449 1313.68C973.958 1313.48 973.3979999999999 1313.71 973.1959999999999 1314.2C972.41 1316.1200000000001 970.569 1317.3600000000001 968.5059999999999 1317.3600000000001C967.0069999999998 1317.3600000000001 965.5919999999999 1316.7 964.6249999999999 1315.5500000000002C964.3199999999999 1315.1800000000003 963.7969999999999 1315.1000000000001 963.3919999999999 1315.3400000000001C962.223 1316.0600000000002 960.877 1316.43 959.4999999999999 1316.43C958.1229999999999 1316.43 956.7769999999999 1316.0600000000002 955.6069999999999 1315.3400000000001C955.2029999999999 1315.1000000000001 954.6789999999999 1315.18 954.3739999999999 1315.5500000000002C953.4069999999999 1316.7000000000003 951.9929999999999 1317.3600000000001 950.4939999999999 1317.3600000000001C948.43 1317.3600000000001 946.5889999999999 1316.1200000000001 945.8039999999999 1314.2C945.6019999999999 1313.71 945.0409999999998 1313.48 944.5509999999998 1313.68C944.0609999999998 1313.88 943.8269999999998 1314.45 944.0289999999998 1314.94C945.1109999999998 1317.5800000000002 947.6489999999998 1319.29 950.4939999999998 1319.29C952.2929999999998 1319.29 954.0029999999998 1318.6 955.2949999999998 1317.37C956.5949999999998 1318.02 958.0339999999999 1318.36 959.4999999999999 1318.36C960.9659999999999 1318.36 962.4039999999999 1318.02 963.7039999999998 1317.37C964.9959999999999 1318.6 966.7059999999998 1319.29 968.5059999999999 1319.29ZM967.401 1331.25C966.818 1330.75 966.0759999999999 1330.59 965.3639999999999 1330.8C965.271 1330.83 965.1809999999999 1330.85 965.0939999999999 1330.8799999999999C964.833 1329.9399999999998 964.2479999999999 1329.11 963.4259999999999 1328.56C962.9849999999999 1328.26 962.3889999999999 1328.3799999999999 962.0939999999999 1328.83C961.799 1329.27 961.9169999999999 1329.87 962.357 1330.1599999999999C962.5889999999999 1330.32 962.786 1330.5199999999998 962.9399999999999 1330.7399999999998C962.294 1330.6399999999999 961.6629999999999 1330.8199999999997 961.1419999999999 1331.2799999999997C960.3299999999999 1331.9999999999998 959.9159999999999 1333.2599999999998 960.0859999999999 1334.5099999999998C960.353 1336.4699999999998 961.9199999999998 1337.9999999999998 963.6529999999999 1337.9999999999998C963.8679999999999 1337.9999999999998 964.0799999999999 1337.9799999999998 964.2849999999999 1337.9299999999998C964.4899999999999 1337.9799999999998 964.7019999999999 1337.9999999999998 964.9169999999998 1337.9999999999998C966.6499999999997 1337.9999999999998 968.2169999999998 1336.4699999999998 968.4839999999998 1334.5099999999998C968.6539999999998 1333.2599999999998 968.2189999999998 1331.9499999999998 967.4009999999998 1331.2499999999998ZM967.297 1309.96C966.767 1309.96 966.337 1310.39 966.337 1310.92C966.337 1312.47 967.585 1313.72 969.119 1313.72C970.654 1313.72 971.902 1312.47 971.902 1310.92C971.902 1310.39 971.4720000000001 1309.96 970.942 1309.96C970.4110000000001 1309.96 969.982 1310.39 969.982 1310.92C969.982 1311.4 969.595 1311.79 969.1189999999999 1311.79C968.6439999999999 1311.79 968.257 1311.3999999999999 968.257 1310.92C968.257 1310.39 967.827 1309.96 967.2969999999999 1309.96ZM967.942 1297.21C967.412 1297.21 966.982 1297.64 966.982 1298.18C966.982 1298.65 966.596 1299.04 966.12 1299.04C965.645 1299.04 965.258 1298.6499999999999 965.258 1298.18C965.258 1297.64 964.8280000000001 1297.21 964.298 1297.21C963.768 1297.21 963.338 1297.64 963.338 1298.18C963.338 1299.72 964.586 1300.97 966.12 1300.97C967.654 1300.97 968.902 1299.72 968.902 1298.18C968.902 1297.64 968.4730000000001 1297.21 967.942 1297.21ZM947.373 1305.46C948.907 1305.46 950.1550000000001 1304.21 950.1550000000001 1302.66C950.1550000000001 1302.13 949.7250000000001 1301.7 949.195 1301.7C948.6650000000001 1301.7 948.235 1302.13 948.235 1302.66C948.235 1303.14 947.8480000000001 1303.53 947.373 1303.53C946.898 1303.53 946.5110000000001 1303.1399999999999 946.5110000000001 1302.66C946.5110000000001 1302.13 946.0810000000001 1301.7 945.551 1301.7C945.0210000000001 1301.7 944.591 1302.13 944.591 1302.66C944.591 1304.21 945.839 1305.46 947.373 1305.46ZM966.582 1334.25C966.45 1335.22 965.671 1336.07 964.917 1336.07C964.811 1336.07 964.71 1336.05 964.6170000000001 1336.02C964.5100000000001 1335.98 964.398 1335.96 964.2850000000001 1335.96C964.1730000000001 1335.96 964.0600000000001 1335.98 963.9530000000001 1336.02C963.8600000000001 1336.05 963.7590000000001 1336.07 963.6530000000001 1336.07C962.8990000000001 1336.07 962.1210000000001 1335.22 961.9880000000002 1334.25C961.8980000000001 1333.58 962.1360000000002 1332.97 962.4070000000002 1332.73C962.5280000000001 1332.63 962.6020000000002 1332.64 962.6730000000001 1332.66C963.6850000000001 1332.94 964.6250000000001 1333.0400000000002 965.9190000000001 1332.65C965.974 1332.63 966.0350000000001 1332.6100000000001 966.1540000000001 1332.72C966.4340000000001 1332.96 966.6710000000002 1333.6000000000001 966.5820000000001 1334.25ZM977.25 1333.87L971.366 1333.87C970.836 1333.87 970.406 1334.3 970.406 1334.84C970.406 1335.37 970.8359999999999 1335.8 971.366 1335.8L977.25 1335.8C977.78 1335.8 978.21 1335.37 978.21 1334.84C978.21 1334.3 977.7800000000001 1333.87 977.25 1333.87ZM963.02 1320.61L963.02 1322.8C963.884 1322.33 964.65 1321.68 965.273 1320.9099999999999C965.605 1320.4899999999998 966.2090000000001 1320.4199999999998 966.6220000000001 1320.7599999999998C967.0360000000001 1321.0899999999997 967.1020000000001 1321.6999999999998 966.7700000000001 1322.1099999999997C965.7730000000001 1323.3599999999997 964.4830000000001 1324.3299999999997 963.0200000000001 1324.9299999999996L963.0200000000001 1325.8299999999997C963.0200000000001 1326.3599999999997 962.5910000000001 1326.7999999999997 962.0610000000001 1326.7999999999997C961.5300000000002 1326.7999999999997 961.1000000000001 1326.3599999999997 961.1000000000001 1325.8299999999997L961.1000000000001 1320.6099999999997C961.1000000000001 1320.0699999999997 961.5300000000001 1319.6399999999996 962.0610000000001 1319.6399999999996C962.5910000000001 1319.6399999999996 963.0200000000001 1320.0699999999997 963.0200000000001 1320.6099999999997Z " fill="#ffffff" transform="matrix(1,0,0,1,-934.9989999999998,-1286)"></path></svg>