<svg xmlns="http://www.w3.org/2000/svg" width="37" height="39"><path d="M36.49 22.98l-3.01-2.94c-.42-.4-.87-.59-1.39-.59-.45 0-.86.18-1.22.52l-2.41 2.31-9.61 9.37c-.17.21-.26.38-.29.48l-1.61 5.55c-.03.12-.06.23-.06.35 0 .47.47.97 1.08.97.14 0 .24-.02.31-.04l5.66-1.6c.19-.06.35-.12.47-.23l9.67-9.41 2.37-2.31c.31-.31.49-.69.55-1.15 0-.51-.18-.95-.51-1.28zM23.1 35.45l-3.56.97 1.04-3.47 8.65-8.44 2.56 2.46zm-1.41-17.09H4.86c-.61 0-1.08.46-1.08 1.05 0 .59.47 1.07 1.08 1.07h16.83c.61 0 1.08-.48 1.08-1.07 0-.59-.47-1.05-1.08-1.05zm1.08 5.79c0-.59-.47-1.05-1.08-1.05H4.86c-.61 0-1.08.46-1.08 1.05 0 .59.47 1.07 1.08 1.07h16.83c.61 0 1.08-.48 1.08-1.07zm-10.1 3.64H4.86c-.61 0-1.08.46-1.08 1.05 0 .6.47 1.05 1.08 1.05h7.81c.6 0 1.09-.45 1.09-1.05 0-.59-.49-1.05-1.09-1.05zm0 4.74H4.86c-.61 0-1.08.46-1.08 1.05 0 .59.47 1.05 1.08 1.05h7.81c.6 0 1.09-.46 1.09-1.05 0-.59-.49-1.05-1.09-1.05zm20.65-7.05l-2.57-2.46 1.38-1.34 2.52 2.47zM2.17 36.71V2.29c0-.13.06-.19.2-.19h8.03v11.34c0 1.3 1.01 2.35 2.34 2.35h11.63v6.41h2.18v-8.53h-.04L12.55.04 12.51 0H2.37C1.7 0 1.14.23.69.67.23 1.11 0 1.66 0 2.29v34.42C0 38.01 1.04 39 2.37 39h12.78v-2.1H2.37c-.14 0-.2-.06-.2-.19zm21.28-23.04H12.74c-.13 0-.19-.08-.19-.23V3.03z" fill="#333"/></svg>