<svg xmlns="http://www.w3.org/2000/svg" width="34" height="53"><path d="M15.758 4.96a2.52 2.52 0 0 0-2.514 2.52c0 1.38 1.128 2.51 2.514 2.51a2.518 2.518 0 0 0 2.514-2.51 2.52 2.52 0 0 0-2.514-2.52zm-6.621-.82a.854.854 0 0 0-.859.85v4.14c0 .47.385.86.859.86s.859-.39.859-.86V4.99c0-.47-.385-.85-.859-.85zm6.621 4.13a.797.797 0 0 1-.796-.79.8.8 0 0 1 .796-.8.8.8 0 0 1 .796.8c0 .43-.357.79-.796.79zm18.036 11.45a2.455 2.455 0 0 0-1.377-1.34l-4.966-1.99a2.532 2.532 0 0 0-2.809.66l-4.714-1.88v-.16c0-.98-.797-1.78-1.776-1.78H15.79v-.76h4.934a2.518 2.518 0 0 0 2.514-2.51V4.17a2.52 2.52 0 0 0-2.514-2.52h-.297l-.132-.26A2.497 2.497 0 0 0 18.045 0h-4.574c-.959 0-1.821.53-2.249 1.39l-.133.26h-2.78a2.52 2.52 0 0 0-2.514 2.52v5.79c0 1.38 1.128 2.51 2.514 2.51h5.762v.76H9.137a2.52 2.52 0 0 0-2.514 2.52c0 1.38 1.128 2.51 2.514 2.51h4.934v.76h-3.279a.863.863 0 0 0-.859.86c0 .48.385.86.859.86h.434L.052 51.85a.86.86 0 1 0 1.617.58l5.144-14.32h7.258v14.03c0 .47.385.86.859.86.475 0 .86-.39.86-.86V38.11h7.258l5.144 14.32a.86.86 0 1 0 1.617-.58L18.634 20.74h.435c.474 0 .858-.38.858-.86 0-.47-.384-.86-.858-.86h-3.28v-.76h2.363a1.78 1.78 0 0 0 1.702-1.27l4.152 1.65c-.012.37.053.73.2 1.07.265.62.754 1.1 1.377 1.35l4.966 1.98c.298.12.612.18.933.18 1.034 0 1.951-.62 2.335-1.58.25-.62.241-1.3-.023-1.92zM7.513 9.96V4.17a.8.8 0 0 1 .796-.8h3.311c.325 0 .623-.18.768-.47l.37-.74a.777.777 0 0 1 .712-.44h4.575c.304 0 .577.16.712.44l.371.74c.145.29.442.47.768.47h.828a.8.8 0 0 1 .796.8v5.79c0 .44-.357.79-.796.79h-1.2a4.96 4.96 0 0 0 1.231-3.27c0-2.76-2.242-5-4.997-5a5.002 5.002 0 0 0-4.997 5c0 1.25.465 2.39 1.231 3.27H8.309a.791.791 0 0 1-.796-.79zm14.918 26.43h-6.642V20.74h1.02zm-15.001 0l5.622-15.65h1.019v15.65zm8.328-25.64a3.28 3.28 0 0 1-3.279-3.27c0-1.81 1.471-3.28 3.279-3.28a3.282 3.282 0 0 1 3.279 3.28 3.28 3.28 0 0 1-3.279 3.27zM32.222 21a.793.793 0 0 1-.74.51c-.101 0-.2-.02-.295-.06l-4.966-1.99a.805.805 0 0 1-.436-.42.798.798 0 0 1 .733-1.11c.098 0 .198.02.295.06l4.965 1.98c.198.08.353.23.437.43.083.19.086.41.007.6zm-14.07-4.46h-6.501v-1.59h6.501c.032 0 .057.03.057.06v1.47c0 .04-.025.06-.057.06zm-9.811-.79a.8.8 0 0 1 .796-.8h.796v1.59h-.796a.791.791 0 0 1-.796-.79z" fill="#333"/></svg>