<svg xmlns="http://www.w3.org/2000/svg" width="59" height="31"><path d="M51.556 11.42l-8.431-.93-4.499-7.02C37.252 1.33 34.77 0 32.147 0H16.841c-4.4 0-8.289 2.84-9.457 6.91l-.119.42c-.581 2.02-2.248 3.63-4.353 4.2C1.198 12 0 13.51 0 15.22v10.04c0 .5.423.91.945.91h4.857C6.402 28.92 8.953 31 12 31c3.048 0 5.599-2.08 6.198-4.83H38.78c.599 2.75 3.15 4.83 6.198 4.83 3.047 0 5.598-2.08 6.197-4.83h5.1c.48 0 .884-.35.938-.81l.74-6.22c.455-3.82-2.415-7.29-6.397-7.72zm-6.578 7.43c-2.141 0-4.035 1.02-5.181 2.59H22.982c-.521 0-.944.4-.944.9 0 .51.423.91.944.91h15.91c-.106.36-.18.72-.217 1.1H18.303c-.301-3.08-3.012-5.5-6.303-5.5-2.14 0-4.034 1.02-5.181 2.59H1.89v-6.22c0-.9.631-1.7 1.535-1.94 2.737-.74 4.907-2.84 5.662-5.47l.119-.42c.943-3.28 4.083-5.58 7.635-5.58h15.306c1.971 0 3.837 1 4.869 2.61l4.74 7.4c.153.24.41.39.698.42l8.887.98c2.016.22 3.646 1.49 4.368 3.17h-2.95c-.522 0-.945.41-.945.91s.423.91.945.91h3.349c.006.24-.003.48-.032.72l-.298 2.51h-5.62c-1.146-1.57-3.041-2.59-5.18-2.59zM12 29.19c-2.449 0-4.441-1.92-4.441-4.27 0-2.35 1.992-4.26 4.441-4.26s4.442 1.91 4.442 4.26c0 2.35-1.993 4.27-4.442 4.27zm32.978 0c-2.45 0-4.442-1.92-4.442-4.27 0-2.35 1.992-4.26 4.442-4.26 2.449 0 4.441 1.91 4.441 4.26 0 2.35-1.992 4.27-4.441 4.27zM12 21.9c-1.739 0-3.154 1.35-3.154 3.02s1.415 3.03 3.154 3.03c1.74 0 3.155-1.36 3.155-3.03 0-1.67-1.415-3.02-3.155-3.02zm32.978 0c-1.74 0-3.155 1.35-3.155 3.02s1.415 3.03 3.155 3.03c1.739 0 3.154-1.36 3.154-3.03 0-1.67-1.415-3.02-3.154-3.02zm-25.47-7.3c0-.5-.423-.91-.945-.91h-1.985c-.522 0-.945.41-.945.91s.423.9.945.9h1.985c.522 0 .945-.4.945-.9zm12.689-.91h-1.986c-.521 0-.944.41-.944.91s.423.9.944.9h1.986c.522 0 .945-.4.945-.9s-.423-.91-.945-.91zM12 26.14c-.697 0-1.265-.55-1.265-1.22 0-.67.568-1.21 1.265-1.21.698 0 1.265.54 1.265 1.21 0 .67-.567 1.22-1.265 1.22zm32.978 0c-.698 0-1.265-.55-1.265-1.22 0-.67.567-1.21 1.265-1.21.697 0 1.264.54 1.264 1.21 0 .67-.567 1.22-1.264 1.22zm6.302-1.79a5.868 5.868 0 0 0-.217-1.1h4.499l-.131 1.1zm-49.39-1.1h4.025c-.106.36-.18.72-.217 1.1H1.89zm17.777-1.8a.923.923 0 0 0-.782.7c-.189.78.762 1.39 1.453.94.366-.24.509-.7.34-1.09a.947.947 0 0 0-1.011-.55zm1.011.55c.024.05-.024-.06 0 0zM36.033 5.01c-.823-1.29-2.312-2.09-3.886-2.09H16.841c-3.035 0-5.716 1.96-6.521 4.77l-.119.41c-.311 1.09-.79 2.95-.81 3.03-.07.27-.006.55.173.77.179.22.454.35.744.35h28.679c.342 0 .658-.18.825-.46a.88.88 0 0 0-.02-.92zm-9.028 5.43V4.73h5.142c.922 0 1.794.47 2.276 1.23l2.873 4.48zm-1.89 0h-8.7V4.75c.141-.01.283-.02.426-.02h8.274zM12.023 8.59l.119-.42c.36-1.26 1.243-2.28 2.384-2.87v5.14h-3.007c.159-.61.354-1.33.504-1.85z" fill="#333"/></svg>