<svg xmlns="http://www.w3.org/2000/svg" width="81.001" height="44"><defs><filter id="a" width="200%" height="200%" x="-50%" y="-50%"><feGaussianBlur stdDeviation=".5" result="SvgjsFeGaussianBlur1120Out" in="SourceGraphic"/></filter></defs><path d="M858.805 8292.27l-13.552-5.1-13.317-14.19a3.14 3.14 0 0 0-2.266-.98h-30.436a3.09 3.09 0 0 0-2.555 1.35l-10.133 14.71s-.003.01-.003.02c-.156.22-.267.47-.356.73-.027.07-.178.72-.183.98 0 .02-.006.03-.006.04v13.16c0 1.72 1.391 3.11 3.106 3.11h2.965c.911 4.5 4.884 7.9 9.632 7.9 4.754 0 8.727-3.4 9.64-7.9h25.951c.915 4.5 4.886 7.9 9.635 7.9 4.751 0 8.724-3.4 9.639-7.9h5.324a3.107 3.107 0 0 0 3.109-3.11v-1.75c.003-3.97-2.486-7.58-6.194-8.97zm-44.147-5.55v-8.48h13.676l7.963 8.48zm-19.632 0l5.838-8.48h7.573v8.48zm6.68 21.04c-2 0-3.62-1.62-3.62-3.63s1.62-3.63 3.62-3.63a3.624 3.624 0 0 1 3.626 3.63c0 2.01-1.623 3.63-3.626 3.63zm45.14 0a3.62 3.62 0 0 1-3.62-3.63 3.62 3.62 0 0 1 3.62-3.63 3.624 3.624 0 0 1 3.624 3.63c0 2.01-1.623 3.63-3.624 3.63z" fill-opacity=".24" filter="url(#a)" transform="translate(-784.5 -8271)"/><path d="M74.306 20.27l-13.552-5.1L47.437.98A3.14 3.14 0 0 0 45.17 0H14.735a3.09 3.09 0 0 0-2.555 1.35L2.047 16.06s-.003.01-.003.02c-.156.22-.267.47-.356.73-.027.07-.178.72-.183.98 0 .02-.006.03-.006.04v13.16c0 1.72 1.39 3.11 3.106 3.11H7.57c.91 4.5 4.884 7.9 9.632 7.9 4.754 0 8.727-3.4 9.64-7.9h25.95c.916 4.5 4.887 7.9 9.636 7.9 4.75 0 8.724-3.4 9.639-7.9h5.324a3.107 3.107 0 0 0 3.109-3.11v-1.75c.003-3.97-2.486-7.58-6.194-8.97zm-44.147-5.55V6.24h13.676l7.963 8.48zm-19.632 0l5.838-8.48h7.573v8.48zm6.68 21.04c-2 0-3.62-1.62-3.62-3.63s1.62-3.63 3.62-3.63a3.624 3.624 0 0 1 3.626 3.63c0 2.01-1.623 3.63-3.626 3.63zm45.14 0a3.62 3.62 0 0 1-3.62-3.63 3.62 3.62 0 0 1 3.62-3.63 3.624 3.624 0 0 1 3.624 3.63c0 2.01-1.623 3.63-3.624 3.63z" fill="#fff"/></svg>