<svg xmlns="http://www.w3.org/2000/svg" width="69" height="63"><defs><filter id="a" width="200%" height="200%" x="-50%" y="-50%"><feGaussianBlur stdDeviation=".5" result="SvgjsFeGaussianBlur1075Out" in="SourceGraphic"/></filter></defs><path d="M1359.5 8585.4c-6.14 0-11.17 5.06-11.17 11.24V8636h22.34v-39.36c0-6.18-5.03-11.24-11.17-11.24zm-9.1 2.81l-4.19-7.19c-4.02 3.76-6.81 8.71-6.81 13.32v.06h7.82v1.12h-7.82v9h7.82v-7.88c0-.39 0-.78.05-1.23.28-2.87 1.57-5.46 3.41-7.42zm34.78 27.16h.17c.22 0 .45 0 .67-.06h.28c.17 0 .39-.06.56-.06.17 0 .39 0 .56.06h.28c.22 0 .44.06.67.06h.16c.67-.06 1.57-.45 1.57-6.02 0-8.71-1.85-20.86-3.3-21.36-1.39.45-3.24 12.59-3.24 21.36 0 2.64.17 4.33.62 5.23.28.56.56.73 1 .79zm-5.47 8.26l.17 1.12.17 1.13.67 3.88 1 6.24h9.16l2.01-12.37zm-53.6 0l2.01 12.37h9.16l1-6.24.67-3.88.17-1.13.17-1.12zm33.39-39.35V8575c-4.24 0-8.77 2.14-12.45 5.28l4.24 7.2c2.18-1.97 5.03-3.2 8.21-3.2zm13.01-3.88c-3.24-2.98-7.43-5.01-11.89-5.34v9.27c2.9.28 5.52 1.58 7.53 3.54zm.84.73l-4.41 7.53c1.34 1.58 2.23 3.54 2.62 5.68h8.04c0-4.5-2.46-9.39-6.25-13.21zm-6.03 27.88h-6.7v-20.18l.67.17c3.57.84 6.03 3.99 6.03 7.64zm-15.64-12.37c0-.28 0-.56.06-.78.33-3.32 2.68-6.07 5.92-6.86l.67-.17v20.18h-6.65zm15.64 20.24h-15.64v-6.74h15.64zm0 15.75h-6.7v-14.62h6.7zm-8.94 0h-6.7v-14.62h6.7zm-18.98-2.76v6.13h7.82v-10.12h-7.15zm32.38-3.99V8636h7.82v-6.13l-.67-3.99zm-10.05-35.59v17.6h4.47v-11.25c0-.39-.06-.73-.11-1.06-.39-2.42-2.01-4.44-4.36-5.29zm-4.46 0a6.735 6.735 0 0 0-4.47 6.35v11.25h4.47zM1380 8615v-9h-8v9zm-33 0v-9h-8v9zm24.78-10.48h7.82v-9h-7.87c.05.39.05.73.05 1.12zm-32.38 14.61h1.12l.11 3.38-.11 1.12-.28 1.12h6.98v-8.99h-7.82zm39.08 0h1.12v-3.37h-7.82v8.99h6.98l-.28-2.24zm-12.28-7.87h-13.4v4.5h13.4zm-.2 20.74v-13h-4v13zm-9 0v-13h-4v13zm22.6-11.74v2.25h13.4v-2.25zm-40.2 2.25v-2.25H1326v2.25zm46.9-3.38h1.12v-2.7h-1.12zm-53.6 0h1.12v-2.7h-1.12zm-1.12-3.76h.17c.22 0 .45 0 .67-.06h.28c.17 0 .39-.06.56-.06.17 0 .39 0 .56.06h.28c.22 0 .44.06.67.06h.16c.34 0 .67-.12.95-.73.34-.74.62-2.25.62-5.29 0-1.18-.06-2.42-.12-3.71 0-.39-.05-.73-.05-1.12-.17-3.1-.56-6.25-.95-9l-.17-1.12c-.61-3.6-1.34-6.19-1.95-6.41-1.4.45-3.24 12.59-3.24 21.36 0 2.64.22 4.33.61 5.23.23.56.51.73.95.79z" fill-opacity=".24" filter="url(#a)" transform="translate(-1325 -8574)"/><path d="M34.5 10.4c-6.14 0-11.17 5.06-11.17 11.24V61h22.34V21.64c0-6.18-5.03-11.24-11.17-11.24zm-9.1 2.81l-4.19-7.19c-4.02 3.76-6.81 8.71-6.81 13.32v.06h7.82v1.12H14.4v9h7.82v-7.88c0-.39 0-.78.05-1.23.28-2.87 1.57-5.46 3.41-7.42zm34.78 27.16h.17c.22 0 .45 0 .67-.06h.28c.17 0 .39-.06.56-.06.17 0 .39 0 .56.06h.28c.22 0 .44.06.67.06h.16c.67-.06 1.57-.45 1.57-6.02 0-8.71-1.85-20.86-3.3-21.36-1.39.45-3.24 12.59-3.24 21.36 0 2.64.17 4.33.62 5.23.28.56.56.73 1 .79zm-5.47 8.26l.17 1.12.17 1.13.67 3.88 1 6.24h9.16l2.01-12.37zm-53.6 0L3.12 61h9.16l1-6.24.67-3.88.17-1.13.17-1.12zM34.5 9.28V0c-4.24 0-8.77 2.14-12.45 5.28l4.24 7.2c2.18-1.97 5.03-3.2 8.21-3.2zM47.51 5.4C44.27 2.42 40.08.39 35.62.06v9.27c2.9.28 5.52 1.58 7.53 3.54zm.84.73l-4.41 7.53c1.34 1.58 2.23 3.54 2.62 5.68h8.04c0-4.5-2.46-9.39-6.25-13.21zm-6.03 27.88h-6.7V13.83l.67.17c3.57.84 6.03 3.99 6.03 7.64zM26.68 21.64c0-.28 0-.56.06-.78.33-3.32 2.68-6.07 5.92-6.86l.67-.17v20.18h-6.65zm15.64 20.24H26.68v-6.74h15.64zm0 15.75h-6.7V43.01h6.7zm-8.94 0h-6.7V43.01h6.7zM14.4 54.87V61h7.82V50.88h-7.15zm32.38-3.99V61h7.82v-6.13l-.67-3.99zM36.73 15.29v17.6h4.47V21.64c0-.39-.06-.73-.11-1.06-.39-2.42-2.01-4.44-4.36-5.29zm-4.46 0a6.735 6.735 0 0 0-4.47 6.35v11.25h4.47zM55 40v-9h-8v9zm-33 0v-9h-8v9zm24.78-10.48h7.82v-9h-7.87c.05.39.05.73.05 1.12zM14.4 44.13h1.12l.11 3.38-.11 1.12-.28 1.12h6.98v-8.99H14.4zm39.08 0h1.12v-3.37h-7.82v8.99h6.98l-.28-2.24zM41.2 36.26H27.8v4.5h13.4zM41 57V44h-4v13zm-9 0V44h-4v13zm22.6-11.74v2.25H68v-2.25zm-40.2 2.25v-2.25H1v2.25zm46.9-3.38h1.12v-2.7H61.3zm-53.6 0h1.12v-2.7H7.7zm-1.12-3.76h.17c.22 0 .45 0 .67-.06h.28c.17 0 .39-.06.56-.06.17 0 .39 0 .56.06h.28c.22 0 .44.06.67.06h.16c.34 0 .67-.12.95-.73.34-.74.62-2.25.62-5.29 0-1.18-.06-2.42-.12-3.71 0-.39-.05-.73-.05-1.12-.17-3.1-.56-6.25-.95-9l-.17-1.12c-.61-3.6-1.34-6.19-1.95-6.41-1.4.45-3.24 12.59-3.24 21.36 0 2.64.22 4.33.61 5.23.23.56.51.73.95.79z" fill="#fff"/></svg>