<svg xmlns="http://www.w3.org/2000/svg" width="61" height="40"><defs><filter id="a" width="200%" height="200%" x="-50%" y="-50%"><feGaussianBlur stdDeviation=".5" result="SvgjsFeGaussianBlur1108Out" in="SourceGraphic"/></filter></defs><path d="M1274.04 3493.12h-8.21v-6.2c4.01-.47 7.13-3.84 7.13-7.91 0-7.08-6.94-20.9-7.23-21.49a.974.974 0 0 0-.86-.52c-.36 0-.7.2-.86.52-.01.04-1.82 3.62-3.6 8-1.41 3.48-2.41 6.48-3 8.97l-11.44-6.33a.98.98 0 0 0-.94 0l-6.73 3.72v-.96h.06c.53 0 .96-.42.96-.94a.95.95 0 0 0-.96-.94h-6.11a.95.95 0 0 0-.96.94c0 .52.43.94.96.94h.06v4.28l-.96.53c-.2-.83-.44-1.69-.7-2.52-1.32-4.16-2.8-6.18-4.52-6.18-1.72 0-3.2 2.02-4.52 6.17-.94 2.99-1.53 6.25-1.53 7.57 0 2.59 2.21 4.74 5.09 5.13v7.22h-8.21a.95.95 0 0 0-.96.94c0 .52.43.94.96.94h57.08c.53 0 .96-.42.96-.94a.95.95 0 0 0-.96-.94zm-25.48-12.04h-6.12c-.53 0-.95.42-.95.94v11.1h-10.33v-9.47c.5-.64.84-1.38.97-2.18l13.37-7.4 11.4 6.31c.05.26.11.52.18.77a.937.937 0 0 0-.37-.07h-4.07a.95.95 0 0 0-.96.94v7.02c0 .52.43.94.96.94h4.07c.53 0 .96-.42.96-.94v-6.4a8.116 8.116 0 0 0 2.17 2.6v7.88h-10.33v-11.1c0-.52-.42-.94-.95-.94zm16.31-20.95c1.87 3.97 6.18 13.66 6.18 18.88 0 3.03-2.27 5.55-5.22 6.01v-5.62l2.77-2.74c.38-.36.38-.96 0-1.33a.979.979 0 0 0-1.35 0l-1.42 1.41V3475c0-.52-.43-.95-.96-.95s-.96.43-.96.95v4.75l-1.42-1.41a.979.979 0 0 0-1.35 0c-.38.37-.38.97 0 1.33l2.77 2.74v2.61c-2.95-.46-5.22-2.98-5.22-6.01 0-5.22 4.3-14.91 6.18-18.88zm-19.37 9.92l11.51 6.38c-.1.62-.17 1.2-.2 1.74l-10.84-6a.98.98 0 0 0-.94 0l-12.97 7.18c-.07-.5-.16-1.08-.28-1.7zm-23.51 10.72c0-1 .52-4.07 1.45-7 1.26-3.98 2.37-4.86 2.69-4.86.32 0 1.43.88 2.69 4.86.94 2.93 1.45 6 1.45 7 0 1.56-1.36 2.88-3.18 3.23v-2.98c0-.52-.43-.95-.96-.95s-.96.43-.96.95v2.98c-1.82-.35-3.18-1.67-3.18-3.23zm25.61 6.33h-.06a.95.95 0 0 0-.96.94c0 .52.43.94.96.94h.06v4.14h-4.2v-10.16h4.2zm-20.51-1.2c.78-.1 1.51-.34 2.16-.68v7.9h-2.16zm34.66.46c.68.28 1.4.47 2.16.56v6.2h-2.16zm-27.53-15.44h2.17v2.02l-2.17 1.2zm19.37 15.05h2.17v2.13h-2.17zm2.17-1.88h-2.17v-1.13h2.17zm-17.4-3.01h-4.07a.95.95 0 0 0-.96.94v7.02c0 .52.43.94.96.94h4.07c.53 0 .96-.42.96-.94v-7.02a.95.95 0 0 0-.96-.94zm-3.12 7.02v-2.13h2.17v2.13zm2.17-5.14v1.13h-2.17v-1.13z" fill-opacity=".24" filter="url(#a)" transform="translate(-1215 -3456)"/><path d="M59.04 36.12h-8.21v-6.2c4.01-.47 7.13-3.84 7.13-7.91 0-7.08-6.94-20.9-7.23-21.49a.974.974 0 0 0-.86-.52c-.36 0-.7.2-.86.52-.01.04-1.82 3.62-3.6 8C44 12 43 15 42.41 17.49l-11.44-6.33a.98.98 0 0 0-.94 0l-6.73 3.72v-.96h.06c.53 0 .96-.42.96-.94a.95.95 0 0 0-.96-.94h-6.11a.95.95 0 0 0-.96.94c0 .52.43.94.96.94h.06v4.28l-.96.53c-.2-.83-.44-1.69-.7-2.52-1.32-4.16-2.8-6.18-4.52-6.18-1.72 0-3.2 2.02-4.52 6.17-.94 2.99-1.53 6.25-1.53 7.57 0 2.59 2.21 4.74 5.09 5.13v7.22H1.96a.95.95 0 0 0-.96.94c0 .52.43.94.96.94h57.08c.53 0 .96-.42.96-.94a.95.95 0 0 0-.96-.94zM33.56 24.08h-6.12c-.53 0-.95.42-.95.94v11.1H16.16v-9.47c.5-.64.84-1.38.97-2.18l13.37-7.4 11.4 6.31c.05.26.11.52.18.77a.937.937 0 0 0-.37-.07h-4.07a.95.95 0 0 0-.96.94v7.02c0 .52.43.94.96.94h4.07c.53 0 .96-.42.96-.94v-6.4a8.116 8.116 0 0 0 2.17 2.6v7.88H34.51v-11.1c0-.52-.42-.94-.95-.94zM49.87 3.13c1.87 3.97 6.18 13.66 6.18 18.88 0 3.03-2.27 5.55-5.22 6.01V22.4l2.77-2.74c.38-.36.38-.96 0-1.33a.979.979 0 0 0-1.35 0l-1.42 1.41V18c0-.52-.43-.95-.96-.95s-.96.43-.96.95v4.75l-1.42-1.41a.979.979 0 0 0-1.35 0c-.38.37-.38.97 0 1.33l2.77 2.74v2.61c-2.95-.46-5.22-2.98-5.22-6.01 0-5.22 4.3-14.91 6.18-18.88zM30.5 13.05l11.51 6.38c-.1.62-.17 1.2-.2 1.74l-10.84-6a.98.98 0 0 0-.94 0l-12.97 7.18c-.07-.5-.16-1.08-.28-1.7zM6.99 23.77c0-1 .52-4.07 1.45-7 1.26-3.98 2.37-4.86 2.69-4.86.32 0 1.43.88 2.69 4.86.94 2.93 1.45 6 1.45 7 0 1.56-1.36 2.88-3.18 3.23v-2.98c0-.52-.43-.95-.96-.95s-.96.43-.96.95V27c-1.82-.35-3.18-1.67-3.18-3.23zM32.6 30.1h-.06a.95.95 0 0 0-.96.94c0 .52.43.94.96.94h.06v4.14h-4.2V25.96h4.2zm-20.51-1.2c.78-.1 1.51-.34 2.16-.68v7.9h-2.16zm34.66.46c.68.28 1.4.47 2.16.56v6.2h-2.16zM19.22 13.92h2.17v2.02l-2.17 1.2zm19.37 15.05h2.17v2.13h-2.17zm2.17-1.88h-2.17v-1.13h2.17zm-17.4-3.01h-4.07a.95.95 0 0 0-.96.94v7.02c0 .52.43.94.96.94h4.07c.53 0 .96-.42.96-.94v-7.02a.95.95 0 0 0-.96-.94zm-3.12 7.02v-2.13h2.17v2.13zm2.17-5.14v1.13h-2.17v-1.13z" fill="#fff"/></svg>