<svg xmlns="http://www.w3.org/2000/svg" width="67" height="43"><path d="M60.229 29.47a6.73 6.73 0 0 0-3.756 1.14h-1.412l-2.416-3.22a3.382 3.382 0 0 0-2.68-1.33h-2.429c.048-.21.077-.42.077-.64 0-.23-.029-.44-.077-.65h.148a3.35 3.35 0 0 0 3.35-3.34v-2.64c0-2.29-1.717-4.2-3.994-4.46l-13.685-1.51a4.458 4.458 0 0 0-3.49 1.11 4.49 4.49 0 0 0-1.496 3.34v4.16a3.35 3.35 0 0 0 3.35 3.34h.149c-.049.21-.078.42-.078.65 0 .22.029.43.078.64h-2.43c-.787 0-1.547.28-2.144.77L6.932 2.21a3.363 3.363 0 0 0-4.716-.45 3.342 3.342 0 0 0-1.202 2.27c-.085.89.182 1.75.752 2.44l19.23 23.25a6.844 6.844 0 0 0-1.822-.25c-3.733 0-6.771 3.04-6.771 6.77 0 3.73 3.038 6.76 6.771 6.76 1.389 0 2.681-.42 3.756-1.14h33.543A6.73 6.73 0 0 0 60.229 43C63.962 43 67 39.97 67 36.24s-3.038-6.77-6.771-6.77zM3.143 4.23c.03-.32.185-.61.434-.82a1.223 1.223 0 0 1 1.706.16l21.668 26.2c.198.24.291.54.274.84h-2.721L3.415 5.11a1.19 1.19 0 0 1-.272-.88zm21.844 28.54c.008-.01.017-.01.025-.02H54.43a6.71 6.71 0 0 0-.972 3.49c0 1.27.355 2.47.972 3.48H24.973a6.74 6.74 0 0 0 .014-6.95zm5.52-11.34v-4.16c0-.67.278-1.3.784-1.75.437-.39.983-.6 1.559-.6.089 0 .179.01.269.02l13.685 1.52a2.34 2.34 0 0 1 2.092 2.33v2.64c0 .67-.543 1.21-1.212 1.21H31.719a1.21 1.21 0 0 1-1.212-1.21zm29.722 19.43c-2.555 0-4.633-2.07-4.633-4.62a4.633 4.633 0 1 1 9.266 0c0 2.55-2.079 4.62-4.633 4.62zm-45.687-4.62c0-2.56 2.078-4.63 4.632-4.63a4.632 4.632 0 0 1 4.633 4.63c0 2.55-2.078 4.62-4.633 4.62-2.554 0-4.632-2.07-4.632-4.62zm35.423-8.05c.38 0 .742.18.97.49l1.454 1.93H29.361a3.34 3.34 0 0 0-.708-2.13c.218-.18.496-.29.785-.29zm-30.791 5.98c-1.139 0-2.067.93-2.067 2.07 0 1.13.928 2.06 2.067 2.06a2.07 2.07 0 0 0 2.067-2.06c0-1.14-.927-2.07-2.067-2.07zm14.754-8.75c0-.36.288-.65.642-.65h10.263a.646.646 0 0 1 0 1.29H34.57a.644.644 0 0 1-.642-.64zm26.301 8.75c-1.14 0-2.067.93-2.067 2.07 0 1.13.927 2.06 2.067 2.06a2.07 2.07 0 0 0 2.067-2.06c0-1.14-.927-2.07-2.067-2.07z" fill="#fff"/></svg>