<svg xmlns="http://www.w3.org/2000/svg" width="35" height="38"><path d="M31.463 3.88V5.6h1.712v30.67H6.588v-1.19H4.769V38h30.226V3.88zM.002.01v34.12H30.22V.01zm28.402 1.72v30.68H1.819V1.73h26.585zm-18.13 23.137L7.939 23.06c.06-.193.092-.397.092-.609 0-1.19-1.022-2.14-2.27-2.14-1.257 0-2.272.95-2.272 2.14 0 1.19 1.015 2.15 2.272 2.15.361 0 .704-.08 1.008-.224l2.534 1.962a2.06 2.06 0 0 0-.022.302c0 1.19 1.016 2.15 2.27 2.15s2.27-.96 2.27-2.15c0-.345-.086-.67-.238-.958l3.748-5.318c.151.03.308.046.468.046.55 0 1.055-.186 1.448-.495l2.868 1.584-.002.091c0 1.19 1.017 2.15 2.27 2.15 1.254 0 2.269-.96 2.269-2.15s-1.015-2.15-2.269-2.15c-.562 0-1.076.193-1.472.513l-2.848-1.574.003-.119c0-1.18-1.015-2.14-2.267-2.14s-2.265.96-2.265 2.14c0 .404.117.78.32 1.103l-3.676 5.219a2.416 2.416 0 0 0-1.902.285zM26 13v-2H5v2zm0-6V6H5v1z" fill="#333"/></svg>