<svg xmlns="http://www.w3.org/2000/svg" width="61" height="60"><path d="M52.729 14.48c-4.21 0-7.688 3.17-8.2 7.24H42.39V8.28h-2.068v9.31H37.22V3.62c0-2-1.623-3.62-3.618-3.62a3.62 3.62 0 0 0-3.619 3.62v37.24c0 2 1.623 3.62 3.619 3.62a3.62 3.62 0 0 0 3.618-3.62V26.9h3.102v9.31h2.068V23.79h2.139c.512 4.08 3.99 7.24 8.2 7.24 4.56 0 8.271-3.71 8.271-8.27 0-4.57-3.711-8.28-8.271-8.28zM17.059 0a3.62 3.62 0 0 0-3.618 3.62v37.24c0 2 1.623 3.62 3.618 3.62a3.62 3.62 0 0 0 3.619-3.62V3.62c0-2-1.623-3.62-3.619-3.62zm8.272 0a3.62 3.62 0 0 0-3.619 3.62v37.24c0 2 1.623 3.62 3.619 3.62a3.62 3.62 0 0 0 3.618-3.62V3.62c0-2-1.623-3.62-3.618-3.62zm9.822 40.86c0 .86-.696 1.55-1.551 1.55s-1.551-.69-1.551-1.55V3.62c0-.86.696-1.55 1.551-1.55s1.551.69 1.551 1.55zm-16.543 0c0 .86-.696 1.55-1.551 1.55s-1.551-.69-1.551-1.55V3.62c0-.86.696-1.55 1.551-1.55s1.551.69 1.551 1.55zm8.271 0c0 .86-.696 1.55-1.55 1.55-.856 0-1.551-.69-1.551-1.55V3.62c0-.86.695-1.55 1.551-1.55.854 0 1.55.69 1.55 1.55zm24.814-24.22v5.08h-5.077a6.221 6.221 0 0 1 5.077-5.08zm-5.077 7.15h5.077v5.08a6.21 6.21 0 0 1-5.077-5.08zm12.221-2.07h-5.076v-5.08a6.22 6.22 0 0 1 5.076 5.08zm-5.076 7.15v-5.08h5.076a6.207 6.207 0 0 1-5.076 5.08zM37.22 24.83v-5.18h3.102v5.18zM12.407 43.22V3.62c0-2-1.624-3.62-3.619-3.62a3.621 3.621 0 0 0-3.619 3.62v13.97H2.068V8.28H0v27.93h2.068V26.9h3.101v16.32a3.088 3.088 0 0 0-1.033 2.3c0 .92.411 1.74 1.051 2.31l.88 9.68A2.721 2.721 0 0 0 8.788 60a2.721 2.721 0 0 0 2.721-2.49l.88-9.68a3.088 3.088 0 0 0 1.052-2.31c0-.92-.405-1.73-1.034-2.3zm-5.17-39.6c0-.86.696-1.55 1.551-1.55s1.551.69 1.551 1.55v38.79H7.237zM9.45 57.33a.662.662 0 0 1-.662.6.662.662 0 0 1-.662-.6l-.791-8.71h2.907zm-7.382-32.5v-5.18h3.101v5.18zm4.135 20.69c0-.4.23-.73.556-.9.051-.03.103-.05.155-.07a.882.882 0 0 1 .323-.07h3.102c.115 0 .22.03.323.07l.156.06c.325.18.555.51.555.91 0 .57-.463 1.03-1.034 1.03H7.237c-.57 0-1.034-.46-1.034-1.03z" fill="#fff"/></svg>