<svg xmlns="http://www.w3.org/2000/svg" width="60" height="56"><path d="M60 54.92c0 .6-.486 1.08-1.086 1.08H1.086C.486 56 0 55.52 0 54.92c0-.59.486-1.08 1.086-1.08h1.066v-7.19c0-.39.204-.74.537-.93l2.171-1.26c.339-.2.758-.2 1.096 0l1.623.94 1.623-.94c.339-.2.758-.2 1.097 0l1.622.94 1.623-.94c.338-.2.758-.2 1.096 0l2.171 1.26c.333.19.537.54.537.93v7.19h13.727V38.65H16.832v2.97c0 .6-.486 1.08-1.086 1.08a1.08 1.08 0 0 1-1.085-1.08v-4.04c0-.6.486-1.08 1.085-1.08H32.16c.6 0 1.086.48 1.086 1.08v16.26h5.064v-7.19c0-.39.204-.74.537-.93l2.171-1.26c.338-.2.758-.2 1.096 0l1.623.94 1.622-.94c.339-.2.758-.2 1.097 0l.537.31v-2.1a5.116 5.116 0 0 1-2.128-.99 5.2 5.2 0 0 1-3.214 1.1c-2.874 0-5.213-2.32-5.213-5.17 0-1.91 1.034-3.62 2.656-4.52a5.164 5.164 0 0 1-.097-1.01c0-2.39 1.631-4.41 3.873-5 .116-2.76 2.408-4.96 5.209-4.96 2.8 0 5.092 2.2 5.208 4.96 2.242.59 3.874 2.61 3.874 5 0 .35-.033.68-.098 1.01a5.152 5.152 0 0 1 2.656 4.52c0 2.85-2.338 5.17-5.213 5.17a5.2 5.2 0 0 1-3.214-1.1c-.624.49-1.351.83-2.128.99v2.1l.537-.31c.339-.2.758-.2 1.097 0l1.623.94 1.622-.94c.339-.2.758-.2 1.097 0l2.171 1.26c.332.19.537.54.537.93v7.19h1.066c.6 0 1.086.49 1.086 1.08zM3.67 41.69v-27.3c0-.37.187-.71.497-.91L23.365 1.17a1.09 1.09 0 0 1 1.177 0L43.74 13.48c.31.2.497.54.497.91v6.07c0 .59-.486 1.07-1.086 1.07-.599 0-1.085-.48-1.085-1.07v-5.49L23.953 3.36 5.841 14.97v26.72c0 .6-.486 1.08-1.086 1.08a1.08 1.08 0 0 1-1.085-1.08zm6.054-21.26c-.6 0-1.086-.48-1.086-1.08 0-.59.486-1.08 1.086-1.08h9.495l-5.143-4.46a1.071 1.071 0 0 1-.104-1.52c.394-.45 1.08-.49 1.532-.1l7.016 6.08h.348V8.58c0-.6.486-1.08 1.085-1.08.6 0 1.086.48 1.086 1.08v9.69h.347l7.017-6.08a1.09 1.09 0 0 1 1.531.1 1.07 1.07 0 0 1-.104 1.52l-5.142 4.46h9.495c.599 0 1.085.49 1.085 1.08 0 .6-.486 1.08-1.085 1.08zm39.44 16.07v3.93c.496-.19.94-.5 1.284-.93.206-.25.516-.4.845-.4.328 0 .639.15.845.4a3.027 3.027 0 0 0 2.368 1.13c1.678 0 3.042-1.36 3.042-3.02 0-1.33-.855-2.49-2.128-2.89-.292-.09-.532-.3-.66-.58a1.064 1.064 0 0 1-.013-.87 3.017 3.017 0 0 0-2.651-4.2c-.31-.02-.599-.16-.794-.4a1.094 1.094 0 0 1-.225-.86c.029-.17.044-.34.044-.51a3.04 3.04 0 0 0-3.042-3.03 3.04 3.04 0 0 0-2.999 3.54c.052.3-.029.61-.224.86-.195.24-.484.38-.794.4a3.017 3.017 0 0 0-2.652 4.2c.12.28.116.6-.012.87-.128.28-.368.49-.661.58a3.02 3.02 0 0 0-2.128 2.89c0 1.66 1.365 3.02 3.043 3.02.924 0 1.787-.41 2.368-1.13a1.1 1.1 0 0 1 .845-.4c.328 0 .639.15.845.4.344.43.787.74 1.283.93V36.5c0-.6.486-1.08 1.086-1.08.599 0 1.085.48 1.085 1.08zM28.77 23.92c.6 0 1.086.48 1.086 1.08v6.65c0 .59-.486 1.07-1.086 1.07h-9.633c-.6 0-1.086-.48-1.086-1.07V25c0-.6.486-1.08 1.086-1.08zm-1.085 2.16h-7.463v4.49h7.463zm14.966 21.19l-1.085-.63-1.085.63v6.57h2.171v-6.57zm7.599-.63l-1.086.63v6.57h2.171v-6.57zm-36.158 0l-1.086.63v6.57h2.171v-6.57zm31.816 0l-1.086.63v6.57h2.171v-6.57zm-39.414.63l-1.086-.63-1.085.63v6.57h2.171zm4.341 0l-1.085-.63-1.085.63v6.57h2.17zm39.942-14.8v-.28c0-.59.486-1.08 1.086-1.08.599 0 1.085.49 1.085 1.08v.28c0 .6-.486 1.08-1.085 1.08-.6 0-1.086-.48-1.086-1.08zm-8.021 5.07v.28c0 .59-.486 1.07-1.085 1.07-.6 0-1.086-.48-1.086-1.07v-.28c0-.6.486-1.08 1.086-1.08.599 0 1.085.48 1.085 1.08zm12.921 9.73l-1.085-.63-1.086.63v6.57h2.171z" fill="#fff"/></svg>