<svg xmlns="http://www.w3.org/2000/svg" width="63.003" height="63"><defs><filter id="a" width="200%" height="200%" x="-50%" y="-50%"><feGaussianBlur stdDeviation=".5" result="SvgjsFeGaussianBlur1063Out" in="SourceGraphic"/></filter></defs><path d="M850.388 8608.63v-12.76c-.089.12-.178.25-.273.37a11.061 11.061 0 0 1-5.265 3.68h.578v8.7h-13.292l6.229-8.51c.112-.15.218-.3.315-.45 3.478.87 7.307-.29 9.675-3.29a9.452 9.452 0 0 0 1.842-7.76.824.824 0 0 0-.606-.63.82.82 0 0 0-.827.29l-4.014 5.09-5.219-1.02-2.18-4.86 4.016-5.09a.815.815 0 0 0-.66-1.32 9.37 9.37 0 0 0-7.104 3.57c-2.365 3-2.62 7-.979 10.2-.124.13-.246.27-.364.42l-8.059 9.62 1.951 1.96c.504.5.857 1.12 1.048 1.79h-.871a3.265 3.265 0 0 0-.762-1.21l-11.095-11.13-.288.97.751.22a2.2 2.2 0 0 1 1.313 1.07 2.215 2.215 0 0 1-.276 2.51c.058.52.014 1.05-.139 1.55l-.996 3.37 2.638 2.64h-4.545l1.959-6.61c.168-.57.154-1.14-.004-1.67a1.17 1.17 0 0 0-.199-2.17l-1.742-.52 4.734-15.99.149.05 1.226-2.39.481-3.71-2.044-.61-1.59 3.39-.256 2.67.152.04-4.734 15.99-1.813-.54c-.62-.19-1.276.17-1.46.79-.089.3-.052.61.079.87-.436.36-.775.84-.947 1.42l-2.659 9h-2.487v-8.71h3.294l.589-2c.148-.49.25-.63.546-1.05l-5.319-5.46c-.728 1-1.449 2.05-2.57 3.16l-1.5 1.51v12.55h-1.613v17.41c0 5.5 4.443 9.96 9.922 9.96h36.957c5.48 0 9.921-4.46 9.921-9.96v-17.41zm-50.323-18.71c.12-.06.236-.13.349-.19.057.08.117.15.187.22l6.592 6.61a2.226 2.226 0 0 1 1.677-.79c.214 0 .426.03.63.09l.822.25.511-1.73-7.326-7.35a2.132 2.132 0 0 0-.376-.29l.017-.08c.018-.07.04-.12.062-.18.016-.05.034-.09.051-.14.021-.05.042-.1.064-.16.036-.08.075-.18.125-.28l.137-.28.157-.28c.066-.12.141-.23.226-.36l.138-.21c.041-.05.084-.11.127-.17.107-.14.206-.27.314-.39l.076-.08c.143-.16.286-.32.452-.46.053-.05.093-.08.135-.12.056-.05.114-.11.174-.16l.322-.23c.01-.01.018-.01.025-.02.128-.1.283-.19.447-.28.066-.04.13-.07.195-.11.138-.09.28-.15.432-.21.076-.03.15-.06.226-.1.044-.01.089-.03.134-.05.048-.02.095-.05.143-.06l.353-.1c.07-.02.151-.04.233-.06.115-.04.226-.07.301-.08l.945-.14c.138-.02.26-.08.354-.17a.653.653 0 0 0 .18-.4.625.625 0 0 0-.448-.65l-.932-.27c-.162-.05-.334-.07-.5-.1l-.229-.03-.408-.06c-.128-.03-.248-.03-.355-.03-.042 0-.084 0-.128-.01h-.265a3.516 3.516 0 0 0-.791.01l-.181.02c-.273.02-.586.05-.9.12l-.504.1c-.155.04-.285.08-.415.12l-.159.05c-.365.1-.709.25-1.043.39l-.045.02c-.286.12-.546.26-.797.39l-.209.11c-.014.01-.025.02-.04.02-.081.05-.163.11-.243.15-.217.14-.444.27-.653.43l-.349.25a.208.208 0 0 0-.05.04l-.344.27c-.094.07-.179.15-.261.22-.621.1-1.218.39-1.697.87l-.738.74c-.34.35-.659.82-.922 1.36-1.158-.22-2.728 1.49-5.071 3.84l5.239 5.25c1.796-1.8 4.051-3.92 3.827-5.08zm41.078-.33l3.301.64 3.359-4.25a2.544 2.544 0 0 1 2.585-.9v-1.84h-4.96v3.99h-5.344zm-33.716 11.65c.196-.66.89-1.04 1.551-.84.66.19 1.036.89.839 1.55l-1.975 6.67h-2.601zm4.019 1.2c.196-.66.89-1.04 1.551-.85.658.2 1.034.9.838 1.56l-1.62 5.48h-2.601zm-.253-11.77l1.019-3.44h-4.447zm6.689-3.44l-1.919 6.48 6.19 6.21h3.318l5.518-6.59a11.25 11.25 0 0 1-.553-6.1z" fill-opacity=".24" filter="url(#a)" transform="translate(-789.998 -8574)"/><path d="M60.39 33.63V20.87c-.09.12-.178.25-.273.37a11.061 11.061 0 0 1-5.265 3.68h.578v8.7H42.138l6.229-8.51c.112-.15.218-.3.315-.45 3.478.87 7.307-.29 9.675-3.29a9.452 9.452 0 0 0 1.842-7.76.824.824 0 0 0-.606-.63.82.82 0 0 0-.827.29l-4.014 5.09-5.22-1.02-2.18-4.86 4.017-5.09a.815.815 0 0 0-.66-1.32 9.37 9.37 0 0 0-7.104 3.57c-2.365 3-2.62 7-.98 10.2-.124.13-.245.27-.364.42l-8.059 9.62 1.952 1.96c.504.5.856 1.12 1.048 1.79h-.871a3.265 3.265 0 0 0-.762-1.21L24.474 21.29l-.288.97.75.22a2.2 2.2 0 0 1 1.314 1.07 2.215 2.215 0 0 1-.277 2.51c.058.52.014 1.05-.139 1.55l-.996 3.37 2.638 2.64h-4.544l1.958-6.61c.168-.57.154-1.14-.004-1.67a1.17 1.17 0 0 0-.198-2.17l-1.742-.52L27.68 6.66l.149.05 1.226-2.39.48-3.71L27.493 0l-1.59 3.39-.256 2.67.152.04-4.734 15.99-1.813-.54c-.62-.19-1.276.17-1.46.79-.09.3-.052.61.079.87-.437.36-.775.84-.947 1.42l-2.66 9h-2.486v-8.71h3.294l.589-2c.148-.49.25-.63.546-1.05l-5.32-5.46c-.727 1-1.448 2.05-2.57 3.16l-1.5 1.51v12.55H5.205v17.41c0 5.5 4.443 9.96 9.922 9.96h36.957c5.48 0 9.92-4.46 9.92-9.96V33.63zM10.067 14.92c.12-.06.236-.13.349-.19.057.08.117.15.187.22l6.592 6.61a2.226 2.226 0 0 1 1.677-.79c.214 0 .426.03.63.09l.822.25.51-1.73-7.325-7.35a2.132 2.132 0 0 0-.376-.29l.017-.08c.018-.07.04-.12.062-.18.016-.05.034-.09.05-.14.022-.05.043-.1.065-.16.036-.08.075-.18.125-.28l.137-.28.157-.28c.066-.12.14-.23.226-.36.046-.07.09-.14.138-.21.04-.05.084-.11.127-.17.107-.14.206-.27.314-.39l.076-.08c.143-.16.286-.32.452-.46.053-.05.093-.08.135-.12.056-.05.114-.11.174-.16l.322-.23c.01-.01.018-.01.025-.02.128-.1.283-.19.447-.28.066-.04.13-.07.195-.11.138-.09.28-.15.432-.21.076-.03.15-.06.226-.1.044-.01.089-.03.134-.05.048-.02.095-.05.143-.06l.353-.1c.07-.02.15-.04.233-.06.115-.04.226-.07.3-.08l.946-.14c.138-.02.26-.08.354-.17a.653.653 0 0 0 .18-.4.625.625 0 0 0-.448-.65l-.932-.27c-.162-.05-.334-.07-.5-.1l-.23-.03-.407-.06c-.128-.03-.248-.03-.355-.03-.042 0-.084 0-.128-.01h-.265a3.516 3.516 0 0 0-.791.01l-.181.02c-.273.02-.586.05-.9.12l-.504.1c-.155.04-.285.08-.415.12l-.16.05c-.364.1-.708.25-1.042.39l-.045.02c-.286.12-.546.26-.797.39l-.21.11c-.013.01-.024.02-.04.02-.08.05-.162.11-.242.15-.217.14-.444.27-.653.43l-.35.25a.208.208 0 0 0-.05.04l-.343.27c-.094.07-.18.15-.261.22-.621.1-1.218.39-1.697.87l-.738.74c-.34.35-.66.82-.922 1.36C4.913 10.69 3.344 12.4 1 14.75L6.24 20c1.796-1.8 4.05-3.92 3.827-5.08zm41.078-.33l3.3.64 3.36-4.25a2.544 2.544 0 0 1 2.585-.9V8.24h-4.96v3.99h-5.344zM17.429 26.24c.196-.66.89-1.04 1.55-.84.66.19 1.037.89.84 1.55l-1.975 6.67h-2.601zm4.019 1.2c.196-.66.89-1.04 1.55-.85.659.2 1.035.9.839 1.56l-1.62 5.48h-2.601zm-.253-11.77l1.019-3.44h-4.447zm6.689-3.44l-1.92 6.48 6.19 6.21h3.319l5.518-6.59a11.25 11.25 0 0 1-.553-6.1z" fill="#fff"/></svg>