<svg xmlns="http://www.w3.org/2000/svg" width="55" height="55"><path d="M50.42 26.35h-4.44l.14-2.23c.09-1.49-.44-2.98-1.47-4.07a5.48 5.48 0 0 0-3.97-1.72c-1.5 0-2.95.63-3.98 1.72a5.463 5.463 0 0 0-1.46 4.07l.14 2.23h-6.73V4.58c0-2.53-2.06-4.58-4.59-4.58H4.58C2.06 0 0 2.05 0 4.58v5.66c0 .32.13.62.36.84.23.21.54.32.86.3l3.44-.21c.88-.06 1.72.24 2.36.85.65.6 1 1.42 1 2.3 0 .88-.35 1.7-1 2.31-.64.6-1.48.9-2.36.85l-3.44-.22c-.32-.02-.63.09-.86.31-.23.22-.36.52-.36.83v32.02C0 52.94 2.06 55 4.58 55h45.84c2.52 0 4.58-2.06 4.58-4.58V30.94c0-2.53-2.06-4.59-4.58-4.59zm2.29 24.07c0 1.26-1.03 2.29-2.29 2.29H28.65v-6.73l2.22.14c1.5.09 2.99-.44 4.08-1.47a5.48 5.48 0 0 0 1.72-3.97c0-1.5-.63-2.95-1.72-3.98a5.472 5.472 0 0 0-4.08-1.46l-2.22.13v-6.72h7.95c.31 0 .61-.14.83-.37.22-.23.33-.54.31-.85l-.22-3.45c-.05-.88.25-1.72.85-2.36.61-.64 1.43-1 2.31-1 .88 0 1.7.36 2.3 1 .6.64.91 1.48.85 2.36l-.21 3.45c-.02.31.09.62.3.85.22.23.52.37.84.37h5.66a2.29 2.29 0 0 1 2.29 2.29zM2.29 19.62l2.23.14c1.5.1 2.98-.44 4.07-1.46a5.463 5.463 0 0 0 1.72-3.98 5.457 5.457 0 0 0-5.79-5.44l-2.23.14V4.58c0-1.26 1.03-2.29 2.29-2.29h19.48a2.29 2.29 0 0 1 2.29 2.29v21.77H18.4c-.31 0-.61.13-.83.36-.22.24-.33.55-.31.86l.22 3.45c.05.88-.25 1.71-.85 2.36-.61.64-1.43.99-2.31.99-.88 0-1.7-.35-2.3-.99-.6-.65-.91-1.48-.85-2.36l.21-3.45c.02-.31-.09-.62-.3-.86-.22-.23-.52-.36-.84-.36H2.29zm24.43 24.3c-.24.22-.37.52-.37.84v7.95H4.58c-1.26 0-2.29-1.03-2.29-2.29V28.65h6.73l-.14 2.22c-.09 1.5.44 2.98 1.47 4.08a5.48 5.48 0 0 0 3.97 1.72c1.5 0 2.95-.63 3.98-1.72a5.486 5.486 0 0 0 1.46-4.08l-.14-2.22h6.73v7.94c0 .32.13.62.37.84.23.22.54.33.85.31l3.45-.22a3.145 3.145 0 0 1 3.35 3.16c0 .88-.35 1.7-.99 2.3-.64.6-1.48.91-2.36.85l-3.45-.22c-.31-.01-.62.1-.85.31zm-11.82 4.2H8.02c-.63 0-1.15-.51-1.15-1.14V42.4c0-.64-.51-1.15-1.14-1.15-.63 0-1.15.51-1.15 1.15v4.58c0 1.89 1.55 3.44 3.44 3.44h6.88c.63 0 1.14-.52 1.14-1.15 0-.63-.51-1.15-1.14-1.15zm34.37-8.02c-.63 0-1.15.52-1.15 1.15v5.73c0 .63-.51 1.14-1.14 1.14h-3.44c-.63 0-1.14.52-1.14 1.15 0 .63.51 1.15 1.14 1.15h3.44c1.89 0 3.44-1.55 3.44-3.44v-5.73c0-.63-.52-1.15-1.15-1.15zM17.19 6.87h3.43c.64 0 1.15.52 1.15 1.15v5.73c0 .63.51 1.14 1.15 1.14.63 0 1.14-.51 1.14-1.14V8.02c0-1.9-1.54-3.44-3.44-3.44h-3.43c-.64 0-1.15.52-1.15 1.15 0 .63.51 1.14 1.15 1.14zm3.43 41.25h-.22a1.15 1.15 0 0 0 0 2.3h.22a1.15 1.15 0 0 0 0-2.3zm2.3-30.02c-.64 0-1.15.52-1.15 1.15v.23c0 .63.51 1.14 1.15 1.14.63 0 1.14-.51 1.14-1.14v-.23c0-.63-.51-1.15-1.14-1.15zm27.5 17.42v.23c0 .63-.52 1.14-1.15 1.14-.63 0-1.15-.51-1.15-1.14v-.23c0-.63.52-1.15 1.15-1.15.63 0 1.15.52 1.15 1.15z" fill="#fff"/></svg>