<svg xmlns="http://www.w3.org/2000/svg" width="187" height="187"><path d="M142.17 123.7c-6.107-6.03-13.734-6.03-19.804 0-4.631 4.59-9.261 9.18-13.814 13.85-1.246 1.29-2.296 1.56-3.814.7-2.996-1.63-6.187-2.95-9.066-4.74-13.425-8.45-24.671-19.3-34.633-31.52-4.942-6.07-9.339-12.57-12.413-19.89-.623-1.47-.506-2.45.7-3.65 4.631-4.48 9.145-9.07 13.698-13.66 6.342-6.38 6.342-13.85-.039-20.28-3.619-3.65-7.238-7.23-10.857-10.89-3.735-3.74-7.432-7.51-11.207-11.21-6.109-5.95-13.736-5.95-19.806.04-4.67 4.59-9.145 9.3-13.892 13.82C2.826 40.43.608 45.53.141 51.48c-.74 9.69 1.634 18.83 4.981 27.74 6.848 18.45 17.277 34.83 29.923 49.85 17.083 20.31 37.474 36.38 61.327 47.98 10.74 5.21 21.869 9.22 33.971 9.88 8.327.47 15.567-1.63 21.367-8.13 3.96-4.43 8.44-8.48 12.64-12.72 6.23-6.31 6.27-13.93.08-20.16-7.39-7.43-14.83-14.83-22.26-22.22zm-7.43-31.01l14.36-2.45c-2.26-13.19-8.484-25.14-17.94-34.64-10.001-10-22.647-16.3-36.578-18.24l-2.024 14.43c10.779 1.52 20.585 6.38 28.329 14.13 7.316 7.31 12.102 16.57 13.853 26.77zm22.45-62.42C140.616 13.7 119.642 3.23 96.489 0l-2.024 14.44c20.001 2.8 38.135 11.86 52.455 26.14 13.58 13.59 22.49 30.75 25.72 49.62L187 87.75c-3.77-21.87-14.09-41.72-29.81-57.48z" fill="#9fc246"/></svg>