<svg xmlns="http://www.w3.org/2000/svg" width="60.999" height="61.5"><defs><filter id="a" width="200%" height="200%" x="-50%" y="-50%"><feGaussianBlur stdDeviation=".5" result="SvgjsFeGaussianBlur1045Out" in="SourceGraphic"/></filter></defs><path d="M564.856 8303.03c-1.927-1.9-4.333-1.9-6.249 0-1.461 1.45-2.922 2.9-4.358 4.37-.393.4-.724.49-1.203.22-.946-.52-1.952-.93-2.861-1.5-4.236-2.66-7.784-6.09-10.927-9.94-1.559-1.92-2.946-3.97-3.916-6.28-.197-.46-.16-.77.221-1.15 1.461-1.41 2.885-2.86 4.321-4.31 2.002-2.01 2.002-4.37-.012-6.4-1.142-1.15-2.283-2.28-3.425-3.43-1.179-1.18-2.345-2.37-3.536-3.54-1.928-1.88-4.334-1.88-6.249.01-1.474 1.45-2.885 2.94-4.383 4.36-1.388 1.32-2.087 2.92-2.235 4.8-.233 3.06.516 5.94 1.572 8.76 2.161 5.81 5.451 10.98 9.441 15.72 5.39 6.41 11.823 11.48 19.349 15.14 3.389 1.65 6.9 2.91 10.718 3.12 2.628.15 4.911-.52 6.74-2.57 1.253-1.4 2.664-2.67 3.991-4.01 1.964-1.99 1.976-4.4.024-6.36-2.333-2.35-4.678-4.68-7.023-7.01zm-2.345-9.79l4.531-.77c-.712-4.16-2.677-7.93-5.66-10.93-3.155-3.15-7.145-5.14-11.541-5.75l-.638 4.55c3.401.48 6.495 2.01 8.938 4.46a15.595 15.595 0 0 1 4.37 8.44zm7.084-19.69c-5.23-5.23-11.847-8.53-19.152-9.55l-.639 4.55c6.311.89 12.032 3.75 16.55 8.25 4.285 4.29 7.097 9.7 8.115 15.66l4.531-.78c-1.191-6.9-4.445-13.16-9.405-18.13z" fill-opacity=".24" filter="url(#a)" transform="translate(-519 -8263)"/><path d="M45.855 39.03c-1.927-1.9-4.333-1.9-6.249 0-1.46 1.45-2.922 2.9-4.358 4.37-.393.4-.724.49-1.203.22-.946-.52-1.952-.93-2.86-1.5-4.237-2.66-7.785-6.09-10.928-9.94-1.559-1.92-2.946-3.97-3.916-6.28-.197-.46-.16-.77.221-1.15 1.461-1.41 2.885-2.86 4.321-4.31 2.002-2.01 2.002-4.37-.012-6.4-1.142-1.15-2.283-2.28-3.425-3.43-1.179-1.18-2.345-2.37-3.536-3.54-1.928-1.88-4.334-1.88-6.249.01-1.474 1.45-2.885 2.94-4.383 4.36-1.388 1.32-2.087 2.92-2.235 4.8C.81 19.3 1.56 22.18 2.615 25c2.161 5.81 5.451 10.98 9.441 15.72 5.39 6.41 11.823 11.48 19.35 15.14 3.388 1.65 6.9 2.91 10.717 3.12 2.628.15 4.911-.52 6.74-2.57 1.253-1.4 2.664-2.67 3.991-4.01 1.964-1.99 1.976-4.4.024-6.36-2.333-2.35-4.678-4.68-7.023-7.01zm-2.345-9.79l4.531-.77c-.712-4.16-2.677-7.93-5.66-10.93-3.155-3.15-7.145-5.14-11.54-5.75l-.639 4.55c3.401.48 6.495 2.01 8.938 4.46a15.595 15.595 0 0 1 4.37 8.44zm7.084-19.69C45.364 4.32 38.747 1.02 31.442 0l-.639 4.55c6.311.89 12.032 3.75 16.55 8.25 4.285 4.29 7.097 9.7 8.115 15.66L60 27.68c-1.19-6.9-4.445-13.16-9.405-18.13z" fill="#fff"/></svg>