<svg xmlns="http://www.w3.org/2000/svg" width="51.01" height="63.995"><defs><filter id="a" width="200%" height="200%" x="-50%" y="-50%"><feGaussianBlur stdDeviation=".5" result="SvgjsFeGaussianBlur1027Out" in="SourceGraphic"/></filter></defs><path d="M1109.94 8264.01h-42.88c-1.7 0-3.07 1.38-3.07 3.09v55.8c0 1.71 1.37 3.1 3.07 3.1h42.88c1.69 0 3.06-1.39 3.06-3.1v-55.8c0-1.71-1.37-3.09-3.06-3.09zm-37.78 25.81c0-.56.45-1.02 1.01-1.02h30.66c.55 0 1.01.46 1.01 1.02v.03c0 .56-.46 1.02-1.01 1.02h-30.66c-.56 0-1.01-.46-1.01-1.02zm0-7.23c0-.56.45-1.02 1.01-1.02h30.66c.55 0 1.01.46 1.01 1.02v.02c0 .57-.46 1.03-1.01 1.03h-30.66c-.56 0-1.01-.46-1.01-1.03zm0 13.43c0-.56.45-1.02 1.01-1.02h30.66c.55 0 1.01.46 1.01 1.02v.02c0 .57-.46 1.03-1.01 1.03h-30.66c-.56 0-1.01-.46-1.01-1.03zm0 6.2c0-.56.45-1.02 1.01-1.02h30.66c.55 0 1.01.46 1.01 1.02v.02c0 .57-.46 1.03-1.01 1.03h-30.66c-.56 0-1.01-.46-1.01-1.03zm0 7.26v-.03c0-.56.45-1.02 1.01-1.02h30.66c.55 0 1.01.46 1.01 1.02v.03c0 .56-.46 1.02-1.01 1.02h-30.66c-.56 0-1.01-.46-1.01-1.02zm7.15-36.19c0-.56.45-1.02 1.01-1.02h16.36c.56 0 1.01.46 1.01 1.02v1.06c0 .56-.45 1.02-1.01 1.02h-16.36c-.56 0-1.01-.46-1.01-1.02zm24.8 44.14c-.72-.73-.72-.73-2.34-.73-.85 0-1.49.21-2.23.46-.79.27-1.69.57-2.87.57-1.65 0-2.17-1.04-2.45-1.6-.22-.46-.22-.47-.62-.47-.96 0-1.02 2.05-1.02 2.07h-2.04c0-1.43.64-4.13 3.06-4.13 1.66 0 2.17 1.04 2.45 1.6.22.45.23.46.62.46.85 0 1.49-.21 2.23-.46.79-.27 1.69-.57 2.87-.57 2.23 0 2.51.04 3.79 1.34z" fill-opacity=".24" filter="url(#a)" transform="translate(-1062.495 -8263)"/><path d="M47.445.01H4.565c-1.7 0-3.07 1.38-3.07 3.09v55.8c0 1.71 1.37 3.1 3.07 3.1h42.88c1.69 0 3.06-1.39 3.06-3.1V3.1c0-1.71-1.37-3.09-3.06-3.09zM9.665 25.82c0-.56.45-1.02 1.01-1.02h30.66c.55 0 1.01.46 1.01 1.02v.03c0 .56-.46 1.02-1.01 1.02h-30.66c-.56 0-1.01-.46-1.01-1.02zm0-7.23c0-.56.45-1.02 1.01-1.02h30.66c.55 0 1.01.46 1.01 1.02v.02c0 .57-.46 1.03-1.01 1.03h-30.66c-.56 0-1.01-.46-1.01-1.03zm0 13.43c0-.56.45-1.02 1.01-1.02h30.66c.55 0 1.01.46 1.01 1.02v.02c0 .57-.46 1.03-1.01 1.03h-30.66c-.56 0-1.01-.46-1.01-1.03zm0 6.2c0-.56.45-1.02 1.01-1.02h30.66c.55 0 1.01.46 1.01 1.02v.02c0 .57-.46 1.03-1.01 1.03h-30.66c-.56 0-1.01-.46-1.01-1.03zm0 7.26v-.03c0-.56.45-1.02 1.01-1.02h30.66c.55 0 1.01.46 1.01 1.02v.03c0 .56-.46 1.02-1.01 1.02h-30.66c-.56 0-1.01-.46-1.01-1.02zm7.15-36.19c0-.56.45-1.02 1.01-1.02h16.36c.56 0 1.01.46 1.01 1.02v1.06c0 .56-.45 1.02-1.01 1.02h-16.36c-.56 0-1.01-.46-1.01-1.02zm24.8 44.14c-.72-.73-.72-.73-2.34-.73-.85 0-1.49.21-2.23.46-.79.27-1.69.57-2.87.57-1.65 0-2.17-1.04-2.45-1.6-.22-.46-.22-.47-.62-.47-.96 0-1.02 2.05-1.02 2.07h-2.04c0-1.43.64-4.13 3.06-4.13 1.66 0 2.17 1.04 2.45 1.6.22.45.23.46.62.46.85 0 1.49-.21 2.23-.46.79-.27 1.69-.57 2.87-.57 2.23 0 2.51.04 3.79 1.34z" fill="#fff"/></svg>