<svg xmlns="http://www.w3.org/2000/svg" width="33" height="59"><path d="M31.8 53.8l-7.04-20.99c-.31-.93-.94-1.67-1.73-2.14l-2.22-6.66a6.882 6.882 0 0 0 2.17-5.03V1.94a.92.92 0 0 0-.34-.72.891.891 0 0 0-.77-.2c-.09.01-2.31.45-4.49 2.56-2.62 2.54-3.71 6.04-4.1 9.21-1.16-5.09-1.32-10.8-1.32-10.87a.946.946 0 0 0-.66-.88.955.955 0 0 0-1.05.36c-.16.23-3.92 5.77-1.17 16.69v.89c0 1.95.82 3.72 2.12 4.99l-2.23 6.7a3.96 3.96 0 0 0-1.72 2.14L.21 53.8a3.947 3.947 0 0 0 2.49 5 3.946 3.946 0 0 0 4.99-2.5l6.15-18.35h4.32l6.15 18.35a3.946 3.946 0 0 0 4.99 2.5 3.963 3.963 0 0 0 2.5-5zM5.91 55.71c-.28.84-1.07 1.41-1.96 1.41-.22 0-.44-.04-.66-.11a2.062 2.062 0 0 1-1.3-2.61l7.04-20.99c.29-.87 1.1-1.42 1.96-1.42.22 0 .44.04.65.11.53.17.95.54 1.2 1.03.24.5.28 1.06.11 1.58zm5.05-36.73v-.07h2.13v.07a2.945 2.945 0 1 0 1.88-2.75v-.26c0-4.8 1.26-8.59 3.64-10.96.9-.89 1.81-1.43 2.49-1.75v15.72c0 2.79-2.27 5.07-5.07 5.07-2.79 0-5.07-2.28-5.07-5.07zm-.58-12.62c.05.52.11 1.07.18 1.64.46 3.72 1.14 6.75 2.03 9.03h-1.83c-1.09-4.68-.89-8.24-.38-10.67zm4.35 28.95c.32-.95.27-1.96-.14-2.87L16 28.19l1.42 4.25c-.41.91-.47 1.92-.15 2.87l.26.76h-3.06zm.08-9.49l-1.65 4.94c-.28-.18-.59-.33-.92-.45-.37-.12-.74-.18-1.1-.19l1.66-4.99c.62.32 1.3.56 2.01.69zm6.06 4.3c-.37.01-.74.07-1.1.2-.34.11-.65.26-.93.44l-1.65-4.93a6.6 6.6 0 0 0 2.02-.68zm-4.84-12.21c.59 0 1.07.48 1.07 1.07 0 .58-.48 1.06-1.07 1.06-.58 0-1.06-.48-1.06-1.06 0-.59.48-1.07 1.06-1.07zm12.68 39.1c-.21.07-.43.11-.66.11-.89 0-1.67-.57-1.96-1.42l-7.04-20.99c-.17-.52-.13-1.08.11-1.58.25-.49.68-.86 1.2-1.03.21-.07.43-.11.65-.11.87 0 1.68.55 1.96 1.42l7.05 20.99c.36 1.08-.23 2.25-1.31 2.61z" fill="#fff"/></svg>