<svg xmlns="http://www.w3.org/2000/svg" width="49.002" height="54"><defs><filter id="a" width="200%" height="200%" x="-50%" y="-50%"><feGaussianBlur stdDeviation=".5" result="SvgjsFeGaussianBlur1084Out" in="SourceGraphic"/></filter></defs><path d="M981.348 1308.69c.82-1.89.96-4.01.39-6-.939-3.29-3.697-5.73-7.095-6.31-1.043-1.8-2.651-3.2-4.569-3.9a7.048 7.048 0 0 0-.607-1.54 6.962 6.962 0 0 0-4.135-3.38 6.945 6.945 0 0 0-5.301.55c-.007.01-.014.01-.021.02a10.7 10.7 0 0 0-4.796-1.13c-4.936 0-9.333 3.45-10.86 8.46-3.42 1.29-5.765 4.8-5.765 8.74 0 .97.136 1.91.406 2.82-1.912 1.9-2.996 4.56-2.996 7.39 0 2.42.809 4.76 2.278 6.58.74.92 1.622 1.69 2.598 2.26.884 3.27 4.366 5.21 7.799 4.32a6.75 6.75 0 0 0 1.936-.84.966.966 0 0 0 .297-1.33.962.962 0 0 0-1.325-.3c-.424.27-.89.48-1.385.6-1.792.47-3.598-.14-4.66-1.41l.445.09a.967.967 0 0 0 1.099-.81.96.96 0 0 0-.797-1.1c-3.629-.58-6.365-4.05-6.365-8.06 0-2.5 1.025-4.82 2.812-6.38.302-.26.41-.69.27-1.07a7.82 7.82 0 0 1-.492-2.76c0-3.28 2.017-6.19 4.907-7.06a.98.98 0 0 0 .652-.68c1.156-4.43 4.917-7.53 9.146-7.53 2.537 0 4.923 1.08 6.718 3.03.36.4.967.42 1.357.06s.414-.97.055-1.36c-.426-.47-.88-.89-1.358-1.27a5.021 5.021 0 0 1 2.797.02 5.032 5.032 0 0 1 2.995 2.45c.26.48.439 1 .533 1.53.064.37.328.66.681.76 2.521.73 4.45 2.99 4.914 5.76.088.53.584.88 1.106.79a.967.967 0 0 0 .788-1.11 9.853 9.853 0 0 0-.214-.97c2.06.78 3.703 2.48 4.306 4.6.351 1.23.359 2.51.036 3.72a3.75 3.75 0 0 0-.064-.06.96.96 0 0 0-1.357.03.975.975 0 0 0 .032 1.37c1.615 1.55 2.542 3.78 2.542 6.13 0 4.01-2.737 7.48-6.366 8.06a.968.968 0 0 0 .302 1.91c.254-.05.505-.1.753-.16-1.054 1.31-2.893 1.95-4.719 1.48a4.615 4.615 0 0 1-1.386-.6.963.963 0 0 0-1.027 1.63c.594.38 1.246.66 1.936.84.563.15 1.128.22 1.682.22 2.848 0 5.422-1.84 6.135-4.61.009-.04.017-.07.022-.11a9.594 9.594 0 0 0 2.31-2.08c1.469-1.82 2.278-4.16 2.278-6.58a10.656 10.656 0 0 0-1.653-5.72zm-24.409 11.95c-.53 0-.96.43-.96.97v2.19a7.561 7.561 0 0 1-2.252-1.89.948.948 0 0 0-1.35-.15.96.96 0 0 0-.147 1.35 9.318 9.318 0 0 0 3.749 2.82v6.85a8.552 8.552 0 0 0-2.84 2.09h-5.473c-.53 0-.96.44-.96.97s.43.96.96.96h5.917a.95.95 0 0 0 .748-.36 6.612 6.612 0 0 1 2.932-2.1c.382-.14.636-.5.636-.91v-11.82c0-.54-.43-.97-.96-.97zm11.567-.35a6.973 6.973 0 0 0 6.465-4.35.96.96 0 1 0-1.775-.74 5.062 5.062 0 1 1-8.571 1.35.96.96 0 0 0-1.233-.21 7.406 7.406 0 0 1-3.892 1.09 7.413 7.413 0 0 1-3.893-1.09.96.96 0 0 0-1.233.21 5.06 5.06 0 0 1-3.88 1.81 5.054 5.054 0 0 1-4.69-3.16.96.96 0 1 0-1.775.74 6.97 6.97 0 0 0 6.465 4.35c1.799 0 3.509-.69 4.801-1.92a9.4 9.4 0 0 0 4.205.99c1.466 0 2.904-.34 4.204-.99a6.95 6.95 0 0 0 4.802 1.92zm-1.105 11.96a2.147 2.147 0 0 0-2.037-.45c-.093.03-.183.05-.27.08a4.112 4.112 0 0 0-1.668-2.32.95.95 0 0 0-1.332.27.957.957 0 0 0 .263 1.33c.232.16.429.36.583.58a2.16 2.16 0 0 0-1.798.54c-.812.72-1.226 1.98-1.056 3.23.267 1.96 1.834 3.49 3.567 3.49.215 0 .427-.02.632-.07.205.05.417.07.632.07 1.733 0 3.3-1.53 3.567-3.49.17-1.25-.265-2.56-1.083-3.26zm-.104-21.29a.96.96 0 0 0-.96.96 2.79 2.79 0 0 0 2.782 2.8 2.79 2.79 0 0 0 2.783-2.8.96.96 0 0 0-1.92 0c0 .48-.387.87-.863.87a.867.867 0 0 1-.862-.87.96.96 0 0 0-.96-.96zm.645-12.75c-.53 0-.96.43-.96.97 0 .47-.386.86-.862.86a.865.865 0 0 1-.862-.86c0-.54-.43-.97-.96-.97s-.96.43-.96.97c0 1.54 1.248 2.79 2.782 2.79a2.788 2.788 0 0 0 2.782-2.79c0-.54-.429-.97-.96-.97zm-20.569 8.25a2.79 2.79 0 0 0 2.782-2.8.96.96 0 0 0-1.92 0c0 .48-.387.87-.862.87a.867.867 0 0 1-.862-.87.96.96 0 0 0-1.92 0 2.79 2.79 0 0 0 2.782 2.8zm19.209 28.79c-.132.97-.911 1.82-1.665 1.82a.977.977 0 0 1-.3-.05.946.946 0 0 0-.664 0 .977.977 0 0 1-.3.05c-.754 0-1.532-.85-1.665-1.82-.09-.67.148-1.28.419-1.52.121-.1.195-.09.266-.07 1.012.28 1.952.38 3.246-.01.055-.02.116-.04.235.07.28.24.517.88.428 1.53zm10.668-.38h-5.884c-.53 0-.96.43-.96.97 0 .53.43.96.96.96h5.884c.53 0 .96-.43.96-.96 0-.54-.43-.97-.96-.97zm-14.23-13.26v2.19a7.565 7.565 0 0 0 2.253-1.89.947.947 0 0 1 1.349-.15c.414.33.48.94.148 1.35a9.328 9.328 0 0 1-3.75 2.82v.9c0 .53-.429.97-.959.97a.969.969 0 0 1-.961-.97v-5.22c0-.54.43-.97.961-.97.53 0 .959.43.959.97z" fill-opacity=".24" filter="url(#a)" transform="translate(-934.999 -1286)"/><path d="M46.349 21.69c.82-1.89.96-4.01.39-6-.939-3.29-3.697-5.73-7.095-6.31-1.043-1.8-2.651-3.2-4.569-3.9a7.048 7.048 0 0 0-.607-1.54A6.962 6.962 0 0 0 30.333.56a6.945 6.945 0 0 0-5.301.55c-.007.01-.014.01-.021.02A10.7 10.7 0 0 0 20.215 0c-4.936 0-9.333 3.45-10.86 8.46-3.42 1.29-5.765 4.8-5.765 8.74 0 .97.136 1.91.406 2.82C2.084 21.92 1 24.58 1 27.41c0 2.42.809 4.76 2.278 6.58.74.92 1.622 1.69 2.598 2.26.884 3.27 4.366 5.21 7.799 4.32a6.75 6.75 0 0 0 1.936-.84.966.966 0 0 0 .297-1.33.962.962 0 0 0-1.325-.3c-.424.27-.89.48-1.385.6-1.792.47-3.598-.14-4.66-1.41l.445.09a.967.967 0 0 0 1.099-.81.96.96 0 0 0-.797-1.1c-3.629-.58-6.365-4.05-6.365-8.06 0-2.5 1.025-4.82 2.812-6.38.302-.26.41-.69.27-1.07a7.82 7.82 0 0 1-.492-2.76c0-3.28 2.017-6.19 4.907-7.06a.98.98 0 0 0 .652-.68c1.156-4.43 4.917-7.53 9.146-7.53 2.537 0 4.923 1.08 6.718 3.03.36.4.967.42 1.357.06s.414-.97.055-1.36c-.426-.47-.88-.89-1.358-1.27a5.021 5.021 0 0 1 2.797.02 5.032 5.032 0 0 1 2.995 2.45c.26.48.439 1 .533 1.53.064.37.328.66.681.76 2.521.73 4.45 2.99 4.914 5.76.088.53.584.88 1.106.79a.967.967 0 0 0 .788-1.11 9.853 9.853 0 0 0-.214-.97c2.06.78 3.703 2.48 4.306 4.6.351 1.23.359 2.51.036 3.72a3.75 3.75 0 0 0-.064-.06.96.96 0 0 0-1.357.03.975.975 0 0 0 .032 1.37c1.615 1.55 2.542 3.78 2.542 6.13 0 4.01-2.737 7.48-6.366 8.06a.968.968 0 0 0 .302 1.91c.254-.05.505-.1.753-.16-1.054 1.31-2.893 1.95-4.719 1.48a4.615 4.615 0 0 1-1.386-.6.963.963 0 0 0-1.027 1.63c.594.38 1.246.66 1.936.84.563.15 1.128.22 1.682.22 2.848 0 5.422-1.84 6.135-4.61.009-.04.017-.07.022-.11a9.594 9.594 0 0 0 2.31-2.08c1.469-1.82 2.278-4.16 2.278-6.58a10.656 10.656 0 0 0-1.653-5.72zM21.94 33.64c-.53 0-.96.43-.96.97v2.19a7.561 7.561 0 0 1-2.252-1.89.948.948 0 0 0-1.35-.15.96.96 0 0 0-.147 1.35 9.318 9.318 0 0 0 3.749 2.82v6.85a8.552 8.552 0 0 0-2.84 2.09h-5.473c-.53 0-.96.44-.96.97s.43.96.96.96h5.917a.95.95 0 0 0 .748-.36 6.612 6.612 0 0 1 2.932-2.1c.382-.14.636-.5.636-.91V34.61c0-.54-.43-.97-.96-.97zm11.567-.35a6.973 6.973 0 0 0 6.465-4.35.96.96 0 1 0-1.775-.74 5.062 5.062 0 1 1-8.571 1.35.96.96 0 0 0-1.233-.21 7.406 7.406 0 0 1-3.892 1.09 7.413 7.413 0 0 1-3.893-1.09.96.96 0 0 0-1.233.21 5.06 5.06 0 0 1-3.88 1.81 5.054 5.054 0 0 1-4.69-3.16.96.96 0 1 0-1.775.74 6.97 6.97 0 0 0 6.465 4.35c1.799 0 3.509-.69 4.801-1.92a9.4 9.4 0 0 0 4.205.99c1.466 0 2.904-.34 4.204-.99a6.95 6.95 0 0 0 4.802 1.92zm-1.105 11.96a2.147 2.147 0 0 0-2.037-.45c-.093.03-.183.05-.27.08a4.112 4.112 0 0 0-1.668-2.32.95.95 0 0 0-1.332.27.957.957 0 0 0 .263 1.33c.232.16.429.36.583.58a2.16 2.16 0 0 0-1.798.54c-.812.72-1.226 1.98-1.056 3.23.267 1.96 1.834 3.49 3.567 3.49.215 0 .427-.02.632-.07.205.05.417.07.632.07 1.733 0 3.3-1.53 3.567-3.49.17-1.25-.265-2.56-1.083-3.26zm-.104-21.29a.96.96 0 0 0-.96.96 2.79 2.79 0 0 0 2.782 2.8 2.79 2.79 0 0 0 2.783-2.8.96.96 0 0 0-1.92 0c0 .48-.387.87-.863.87a.867.867 0 0 1-.862-.87.96.96 0 0 0-.96-.96zm.645-12.75c-.53 0-.96.43-.96.97 0 .47-.386.86-.862.86a.865.865 0 0 1-.862-.86c0-.54-.43-.97-.96-.97s-.96.43-.96.97c0 1.54 1.248 2.79 2.782 2.79a2.788 2.788 0 0 0 2.782-2.79c0-.54-.429-.97-.96-.97zm-20.569 8.25a2.79 2.79 0 0 0 2.782-2.8.96.96 0 0 0-1.92 0c0 .48-.387.87-.862.87a.867.867 0 0 1-.862-.87.96.96 0 0 0-1.92 0 2.79 2.79 0 0 0 2.782 2.8zm19.209 28.79c-.132.97-.911 1.82-1.665 1.82a.977.977 0 0 1-.3-.05.946.946 0 0 0-.664 0 .977.977 0 0 1-.3.05c-.754 0-1.532-.85-1.665-1.82-.09-.67.148-1.28.419-1.52.121-.1.195-.09.266-.07 1.012.28 1.952.38 3.246-.01.055-.02.116-.04.235.07.28.24.517.88.428 1.53zm10.668-.38h-5.884c-.53 0-.96.43-.96.97 0 .53.43.96.96.96h5.884c.53 0 .96-.43.96-.96 0-.54-.43-.97-.96-.97zm-14.23-13.26v2.19a7.565 7.565 0 0 0 2.253-1.89.947.947 0 0 1 1.349-.15c.414.33.48.94.148 1.35a9.328 9.328 0 0 1-3.75 2.82v.9c0 .53-.429.97-.959.97a.969.969 0 0 1-.961-.97v-5.22c0-.54.43-.97.961-.97.53 0 .959.43.959.97z" fill="#fff"/></svg>