<svg xmlns="http://www.w3.org/2000/svg" width="26" height="26.5"><defs><filter id="a" width="200%" height="200%" x="-50%" y="-50%"><feGaussianBlur stdDeviation=".5" result="SvgjsFeGaussianBlur1153Out" in="SourceGraphic"/></filter></defs><path d="M1104 5521a9 9 0 1 0-18.001.001A9 9 0 0 0 1104 5521zm-9 6.75c-3.72 0-6.75-3.03-6.75-6.75s3.03-6.75 6.75-6.75 6.75 3.03 6.75 6.75-3.03 6.75-6.75 6.75zm14.34 4.41l-5.51-5.51c-.82 1.28-1.9 2.36-3.18 3.18l5.51 5.51c.88.88 2.3.88 3.18 0 .88-.88.88-2.3 0-3.18zm-19.59-11.16h1.5c0-2.07 1.68-3.75 3.75-3.75v-1.5c-2.89 0-5.25 2.35-5.25 5.25z" fill-opacity=".24" filter="url(#a)" transform="translate(-1085 -5511)"/><path d="M19 9a9 9 0 1 0-18.001.001A9 9 0 0 0 19 9zm-9 6.75c-3.72 0-6.75-3.03-6.75-6.75S6.28 2.25 10 2.25 16.75 5.28 16.75 9s-3.03 6.75-6.75 6.75zm14.34 4.41l-5.51-5.51c-.82 1.28-1.9 2.36-3.18 3.18l5.51 5.51c.88.88 2.3.88 3.18 0 .88-.88.88-2.3 0-3.18zM4.75 9h1.5c0-2.07 1.68-3.75 3.75-3.75v-1.5C7.11 3.75 4.75 6.1 4.75 9z" fill="#fff"/></svg>