<svg id="SvgjsSvg1071" xmlns="http://www.w3.org/2000/svg" version="1.1" xmlns:xlink="http://www.w3.org/1999/xlink" xmlns:svgjs="http://svgjs.com/svgjs" width="69" height="63"><defs id="SvgjsDefs1072"><filter id="SvgjsFilter1074" width="200%" height="200%" x="-50%" y="-50%"><feGaussianBlur id="SvgjsFeGaussianBlur1075" stdDeviation="0.5 " result="SvgjsFeGaussianBlur1075Out" in="SourceGraphic"></feGaussianBlur></filter></defs><path id="SvgjsPath1073" d="M1359.5 8585.4C1353.36 8585.4 1348.33 8590.46 1348.33 8596.64L1348.33 8636L1370.6699999999998 8636L1370.6699999999998 8596.64C1370.6699999999998 8590.46 1365.6399999999999 8585.4 1359.4999999999998 8585.4ZM1350.4 8588.21L1346.21 8581.019999999999C1342.19 8584.779999999999 1339.4 8589.729999999998 1339.4 8594.339999999998L1339.4 8594.399999999998L1347.22 8594.399999999998L1347.22 8595.519999999999L1339.4 8595.519999999999L1339.4 8604.519999999999L1347.22 8604.519999999999L1347.22 8596.64C1347.22 8596.25 1347.22 8595.859999999999 1347.27 8595.41C1347.55 8592.539999999999 1348.84 8589.95 1350.68 8587.99ZM1385.18 8615.37C1385.24 8615.37 1385.29 8615.37 1385.3500000000001 8615.37C1385.5700000000002 8615.37 1385.8000000000002 8615.37 1386.0200000000002 8615.310000000001C1386.13 8615.310000000001 1386.2400000000002 8615.310000000001 1386.3000000000002 8615.310000000001C1386.4700000000003 8615.310000000001 1386.6900000000003 8615.250000000002 1386.8600000000001 8615.250000000002C1387.0300000000002 8615.250000000002 1387.2500000000002 8615.250000000002 1387.42 8615.310000000001C1387.53 8615.310000000001 1387.64 8615.310000000001 1387.7 8615.310000000001C1387.92 8615.310000000001 1388.14 8615.37 1388.3700000000001 8615.37C1388.42 8615.37 1388.48 8615.37 1388.5300000000002 8615.37C1389.2000000000003 8615.310000000001 1390.1000000000001 8614.92 1390.1000000000001 8609.35C1390.1000000000001 8600.640000000001 1388.2500000000002 8588.49 1386.8000000000002 8587.99C1385.41 8588.44 1383.5600000000002 8600.58 1383.5600000000002 8609.35C1383.5600000000002 8611.99 1383.7300000000002 8613.68 1384.18 8614.58C1384.46 8615.14 1384.74 8615.31 1385.18 8615.37ZM1379.71 8623.63L1379.88 8624.75L1380.0500000000002 8625.88L1380.7200000000003 8629.759999999998L1381.7200000000003 8635.999999999998L1390.8800000000003 8635.999999999998L1392.8900000000003 8623.629999999997ZM1326.11 8623.63L1328.12 8636L1337.28 8636L1338.28 8629.76L1338.95 8625.880000000001L1339.1200000000001 8624.750000000002L1339.2900000000002 8623.630000000001ZM1359.5 8584.28L1359.5 8575C1355.26 8575 1350.73 8577.14 1347.05 8580.28L1351.29 8587.480000000001C1353.47 8585.510000000002 1356.32 8584.28 1359.5 8584.28ZM1372.51 8580.4C1369.27 8577.42 1365.08 8575.39 1360.62 8575.06L1360.62 8584.33C1363.52 8584.61 1366.1399999999999 8585.91 1368.1499999999999 8587.87ZM1373.35 8581.13L1368.9399999999998 8588.66C1370.2799999999997 8590.24 1371.1699999999998 8592.2 1371.5599999999997 8594.34L1379.5999999999997 8594.34C1379.5999999999997 8589.84 1377.1399999999996 8584.95 1373.3499999999997 8581.130000000001ZM1367.32 8609.01L1360.62 8609.01L1360.62 8588.83L1361.29 8589C1364.86 8589.84 1367.32 8592.99 1367.32 8596.64ZM1351.68 8596.64C1351.68 8596.359999999999 1351.68 8596.08 1351.74 8595.859999999999C1352.07 8592.539999999999 1354.42 8589.789999999999 1357.66 8588.999999999998L1358.3300000000002 8588.829999999998L1358.3300000000002 8609.009999999998L1351.68 8609.009999999998ZM1367.32 8616.88L1351.6799999999998 8616.88L1351.6799999999998 8610.14L1367.32 8610.14ZM1367.32 8632.63L1360.62 8632.63L1360.62 8618.009999999998L1367.32 8618.009999999998ZM1358.38 8632.63L1351.68 8632.63L1351.68 8618.009999999998L1358.38 8618.009999999998ZM1339.4 8629.87L1339.4 8636L1347.22 8636L1347.22 8625.88L1340.07 8625.88ZM1371.78 8625.88L1371.78 8636L1379.6 8636L1379.6 8629.87L1378.9299999999998 8625.880000000001ZM1361.73 8590.29L1361.73 8607.890000000001L1366.2 8607.890000000001L1366.2 8596.640000000001C1366.2 8596.250000000002 1366.14 8595.910000000002 1366.0900000000001 8595.580000000002C1365.7 8593.160000000002 1364.0800000000002 8591.140000000001 1361.7300000000002 8590.29ZM1357.27 8590.29C1354.59 8591.25 1352.8 8593.78 1352.8 8596.640000000001L1352.8 8607.890000000001L1357.27 8607.890000000001ZM1380 8615L1380 8606L1372 8606L1372 8615ZM1347 8615L1347 8606L1339 8606L1339 8615ZM1371.78 8604.52L1379.6 8604.52L1379.6 8595.52L1371.73 8595.52C1371.78 8595.91 1371.78 8596.25 1371.78 8596.640000000001ZM1339.4 8619.13L1340.52 8619.13L1340.6299999999999 8622.509999999998L1340.52 8623.63L1340.24 8624.75L1347.22 8624.75L1347.22 8615.76L1339.4 8615.76ZM1378.48 8619.13L1379.6 8619.13L1379.6 8615.759999999998L1371.78 8615.759999999998L1371.78 8624.749999999998L1378.76 8624.749999999998L1378.48 8622.509999999998ZM1366.2 8611.26L1352.8 8611.26L1352.8 8615.76L1366.2 8615.76ZM1366 8632L1366 8619L1362 8619L1362 8632ZM1357 8632L1357 8619L1353 8619L1353 8632ZM1379.6 8620.26L1379.6 8622.51L1393 8622.51L1393 8620.26ZM1339.4 8622.51L1339.4 8620.26L1326 8620.26L1326 8622.51ZM1386.3 8619.13L1387.4199999999998 8619.13L1387.4199999999998 8616.429999999998C1387.0299999999997 8616.429999999998 1386.6899999999998 8616.429999999998 1386.3 8616.429999999998ZM1332.7 8619.13L1333.82 8619.13L1333.82 8616.429999999998C1333.4299999999998 8616.429999999998 1333.09 8616.429999999998 1332.7 8616.429999999998ZM1331.58 8615.37C1331.6399999999999 8615.37 1331.6899999999998 8615.37 1331.75 8615.37C1331.97 8615.37 1332.2 8615.37 1332.42 8615.310000000001C1332.53 8615.310000000001 1332.64 8615.310000000001 1332.7 8615.310000000001C1332.8700000000001 8615.310000000001 1333.0900000000001 8615.250000000002 1333.26 8615.250000000002C1333.43 8615.250000000002 1333.65 8615.250000000002 1333.82 8615.310000000001C1333.9299999999998 8615.310000000001 1334.04 8615.310000000001 1334.1 8615.310000000001C1334.32 8615.310000000001 1334.54 8615.37 1334.77 8615.37C1334.82 8615.37 1334.8799999999999 8615.37 1334.93 8615.37C1335.27 8615.37 1335.6000000000001 8615.25 1335.88 8614.640000000001C1336.22 8613.900000000001 1336.5 8612.390000000001 1336.5 8609.35C1336.5 8608.17 1336.44 8606.93 1336.38 8605.640000000001C1336.38 8605.250000000002 1336.3300000000002 8604.910000000002 1336.3300000000002 8604.52C1336.16 8601.42 1335.7700000000002 8598.27 1335.38 8595.52C1335.3200000000002 8595.130000000001 1335.2700000000002 8594.79 1335.21 8594.4C1334.6000000000001 8590.8 1333.8700000000001 8588.21 1333.26 8587.99C1331.86 8588.44 1330.02 8600.58 1330.02 8609.35C1330.02 8611.99 1330.24 8613.68 1330.6299999999999 8614.58C1330.86 8615.14 1331.1399999999999 8615.31 1331.58 8615.37Z " fill="#000000" fill-opacity="0.24" filter="url(#SvgjsFilter1074)" transform="matrix(1,0,0,1,-1325,-8574)"></path><path id="SvgjsPath1076" d="M1359.5 8584.4C1353.36 8584.4 1348.33 8589.46 1348.33 8595.64L1348.33 8635L1370.6699999999998 8635L1370.6699999999998 8595.64C1370.6699999999998 8589.46 1365.6399999999999 8584.4 1359.4999999999998 8584.4ZM1350.4 8587.21L1346.21 8580.019999999999C1342.19 8583.779999999999 1339.4 8588.729999999998 1339.4 8593.339999999998L1339.4 8593.399999999998L1347.22 8593.399999999998L1347.22 8594.519999999999L1339.4 8594.519999999999L1339.4 8603.519999999999L1347.22 8603.519999999999L1347.22 8595.64C1347.22 8595.25 1347.22 8594.859999999999 1347.27 8594.41C1347.55 8591.539999999999 1348.84 8588.95 1350.68 8586.99ZM1385.18 8614.37C1385.24 8614.37 1385.29 8614.37 1385.3500000000001 8614.37C1385.5700000000002 8614.37 1385.8000000000002 8614.37 1386.0200000000002 8614.310000000001C1386.13 8614.310000000001 1386.2400000000002 8614.310000000001 1386.3000000000002 8614.310000000001C1386.4700000000003 8614.310000000001 1386.6900000000003 8614.250000000002 1386.8600000000001 8614.250000000002C1387.0300000000002 8614.250000000002 1387.2500000000002 8614.250000000002 1387.42 8614.310000000001C1387.53 8614.310000000001 1387.64 8614.310000000001 1387.7 8614.310000000001C1387.92 8614.310000000001 1388.14 8614.37 1388.3700000000001 8614.37C1388.42 8614.37 1388.48 8614.37 1388.5300000000002 8614.37C1389.2000000000003 8614.310000000001 1390.1000000000001 8613.92 1390.1000000000001 8608.35C1390.1000000000001 8599.640000000001 1388.2500000000002 8587.49 1386.8000000000002 8586.99C1385.41 8587.44 1383.5600000000002 8599.58 1383.5600000000002 8608.35C1383.5600000000002 8610.99 1383.7300000000002 8612.68 1384.18 8613.58C1384.46 8614.14 1384.74 8614.31 1385.18 8614.37ZM1379.71 8622.63L1379.88 8623.75L1380.0500000000002 8624.88L1380.7200000000003 8628.759999999998L1381.7200000000003 8634.999999999998L1390.8800000000003 8634.999999999998L1392.8900000000003 8622.629999999997ZM1326.11 8622.63L1328.12 8635L1337.28 8635L1338.28 8628.76L1338.95 8624.880000000001L1339.1200000000001 8623.750000000002L1339.2900000000002 8622.630000000001ZM1359.5 8583.28L1359.5 8574C1355.26 8574 1350.73 8576.14 1347.05 8579.28L1351.29 8586.480000000001C1353.47 8584.510000000002 1356.32 8583.28 1359.5 8583.28ZM1372.51 8579.4C1369.27 8576.42 1365.08 8574.39 1360.62 8574.06L1360.62 8583.33C1363.52 8583.61 1366.1399999999999 8584.91 1368.1499999999999 8586.87ZM1373.35 8580.13L1368.9399999999998 8587.66C1370.2799999999997 8589.24 1371.1699999999998 8591.2 1371.5599999999997 8593.34L1379.5999999999997 8593.34C1379.5999999999997 8588.84 1377.1399999999996 8583.95 1373.3499999999997 8580.130000000001ZM1367.32 8608.01L1360.62 8608.01L1360.62 8587.83L1361.29 8588C1364.86 8588.84 1367.32 8591.99 1367.32 8595.64ZM1351.68 8595.64C1351.68 8595.359999999999 1351.68 8595.08 1351.74 8594.859999999999C1352.07 8591.539999999999 1354.42 8588.789999999999 1357.66 8587.999999999998L1358.3300000000002 8587.829999999998L1358.3300000000002 8608.009999999998L1351.68 8608.009999999998ZM1367.32 8615.88L1351.6799999999998 8615.88L1351.6799999999998 8609.14L1367.32 8609.14ZM1367.32 8631.63L1360.62 8631.63L1360.62 8617.009999999998L1367.32 8617.009999999998ZM1358.38 8631.63L1351.68 8631.63L1351.68 8617.009999999998L1358.38 8617.009999999998ZM1339.4 8628.87L1339.4 8635L1347.22 8635L1347.22 8624.88L1340.07 8624.88ZM1371.78 8624.88L1371.78 8635L1379.6 8635L1379.6 8628.87L1378.9299999999998 8624.880000000001ZM1361.73 8589.29L1361.73 8606.890000000001L1366.2 8606.890000000001L1366.2 8595.640000000001C1366.2 8595.250000000002 1366.14 8594.910000000002 1366.0900000000001 8594.580000000002C1365.7 8592.160000000002 1364.0800000000002 8590.140000000001 1361.7300000000002 8589.29ZM1357.27 8589.29C1354.59 8590.25 1352.8 8592.78 1352.8 8595.640000000001L1352.8 8606.890000000001L1357.27 8606.890000000001ZM1380 8614L1380 8605L1372 8605L1372 8614ZM1347 8614L1347 8605L1339 8605L1339 8614ZM1371.78 8603.52L1379.6 8603.52L1379.6 8594.52L1371.73 8594.52C1371.78 8594.91 1371.78 8595.25 1371.78 8595.640000000001ZM1339.4 8618.13L1340.52 8618.13L1340.6299999999999 8621.509999999998L1340.52 8622.63L1340.24 8623.75L1347.22 8623.75L1347.22 8614.76L1339.4 8614.76ZM1378.48 8618.13L1379.6 8618.13L1379.6 8614.759999999998L1371.78 8614.759999999998L1371.78 8623.749999999998L1378.76 8623.749999999998L1378.48 8621.509999999998ZM1366.2 8610.26L1352.8 8610.26L1352.8 8614.76L1366.2 8614.76ZM1366 8631L1366 8618L1362 8618L1362 8631ZM1357 8631L1357 8618L1353 8618L1353 8631ZM1379.6 8619.26L1379.6 8621.51L1393 8621.51L1393 8619.26ZM1339.4 8621.51L1339.4 8619.26L1326 8619.26L1326 8621.51ZM1386.3 8618.13L1387.4199999999998 8618.13L1387.4199999999998 8615.429999999998C1387.0299999999997 8615.429999999998 1386.6899999999998 8615.429999999998 1386.3 8615.429999999998ZM1332.7 8618.13L1333.82 8618.13L1333.82 8615.429999999998C1333.4299999999998 8615.429999999998 1333.09 8615.429999999998 1332.7 8615.429999999998ZM1331.58 8614.37C1331.6399999999999 8614.37 1331.6899999999998 8614.37 1331.75 8614.37C1331.97 8614.37 1332.2 8614.37 1332.42 8614.310000000001C1332.53 8614.310000000001 1332.64 8614.310000000001 1332.7 8614.310000000001C1332.8700000000001 8614.310000000001 1333.0900000000001 8614.250000000002 1333.26 8614.250000000002C1333.43 8614.250000000002 1333.65 8614.250000000002 1333.82 8614.310000000001C1333.9299999999998 8614.310000000001 1334.04 8614.310000000001 1334.1 8614.310000000001C1334.32 8614.310000000001 1334.54 8614.37 1334.77 8614.37C1334.82 8614.37 1334.8799999999999 8614.37 1334.93 8614.37C1335.27 8614.37 1335.6000000000001 8614.25 1335.88 8613.640000000001C1336.22 8612.900000000001 1336.5 8611.390000000001 1336.5 8608.35C1336.5 8607.17 1336.44 8605.93 1336.38 8604.640000000001C1336.38 8604.250000000002 1336.3300000000002 8603.910000000002 1336.3300000000002 8603.52C1336.16 8600.42 1335.7700000000002 8597.27 1335.38 8594.52C1335.3200000000002 8594.130000000001 1335.2700000000002 8593.79 1335.21 8593.4C1334.6000000000001 8589.8 1333.8700000000001 8587.21 1333.26 8586.99C1331.86 8587.44 1330.02 8599.58 1330.02 8608.35C1330.02 8610.99 1330.24 8612.68 1330.6299999999999 8613.58C1330.86 8614.14 1331.1399999999999 8614.31 1331.58 8614.37Z " fill="#ffffff" transform="matrix(1,0,0,1,-1325,-8574)"></path></svg>