<svg id="SvgjsSvg1047" xmlns="http://www.w3.org/2000/svg" version="1.1" xmlns:xlink="http://www.w3.org/1999/xlink" xmlns:svgjs="http://svgjs.com/svgjs" width="71.0033208992927" height="64"><defs id="SvgjsDefs1048"><filter id="SvgjsFilter1050" width="200%" height="200%" x="-50%" y="-50%"><feGaussianBlur id="SvgjsFeGaussianBlur1051" stdDeviation="0.5 " result="SvgjsFeGaussianBlur1051Out" in="SourceGraphic"></feGaussianBlur></filter></defs><path id="SvgjsPath1049" d="M1349.33 8278.86C1345.8899999999999 8278.85 1343.09 8276.01 1343.09 8272.53C1343.09 8270.74 1343.82 8269.12 1345 8267.970000000001L1343.55 8266.590000000002C1343.29 8266.360000000002 1342.97 8266.250000000002 1342.6399999999999 8266.250000000002C1342.29 8266.250000000002 1341.9299999999998 8266.390000000001 1341.6599999999999 8266.670000000002L1324.4099999999999 8284.150000000001C1323.9099999999999 8284.650000000001 1323.86 8285.45 1324.29 8286.010000000002L1330.6299999999999 8293.340000000002C1330.76 8293.510000000002 1330.85 8293.710000000003 1330.8899999999999 8293.920000000002C1331.1499999999999 8295.120000000003 1331.59 8296.390000000001 1332.1799999999998 8297.720000000001L1332.7799999999997 8297.11C1333.8199999999997 8296.060000000001 1335.1999999999998 8295.480000000001 1336.6799999999998 8295.480000000001C1338.1499999999999 8295.480000000001 1339.5299999999997 8296.060000000001 1340.57 8297.11C1340.58 8297.12 1340.58 8297.130000000001 1340.59 8297.130000000001L1340.61 8297.150000000001C1341.33 8297.880000000001 1341.81 8298.78 1342.05 8299.750000000002C1342.87 8299.280000000002 1343.8 8299.020000000002 1344.78 8299.020000000002C1346.25 8299.020000000002 1347.6299999999999 8299.600000000002 1348.67 8300.650000000001L1348.7 8300.680000000002C1349.74 8301.730000000001 1350.31 8303.130000000003 1350.31 8304.620000000003C1350.31 8305.310000000003 1350.19 8305.980000000003 1349.95 8306.610000000002C1351.14 8306.770000000002 1352.24 8307.310000000003 1353.1000000000001 8308.190000000002L1353.13 8308.210000000003C1353.89 8308.990000000003 1354.38 8309.940000000002 1354.6000000000001 8310.940000000002L1367.1100000000001 8323.600000000002C1367.7800000000002 8324.280000000002 1368.68 8324.630000000003 1369.5700000000002 8324.630000000003C1370.2800000000002 8324.630000000003 1370.9900000000002 8324.410000000003 1371.5800000000002 8323.930000000002C1373.16 8322.670000000002 1373.2600000000002 8320.320000000002 1371.88 8318.920000000002L1359.7700000000002 8306.670000000002C1359.1500000000003 8306.040000000003 1359.1500000000003 8305.010000000002 1359.7700000000002 8304.380000000001C1360.0900000000001 8304.060000000001 1360.5000000000002 8303.900000000001 1360.9200000000003 8303.900000000001C1361.3300000000004 8303.900000000001 1361.7500000000002 8304.060000000001 1362.0600000000004 8304.380000000001L1377.4600000000005 8319.960000000001C1378.1300000000006 8320.640000000001 1379.0300000000004 8321.000000000002 1379.9200000000005 8321.000000000002C1380.6300000000006 8321.000000000002 1381.3400000000006 8320.770000000002 1381.9300000000005 8320.300000000001C1383.5100000000004 8319.04 1383.6100000000006 8316.68 1382.2200000000005 8315.29L1366.7600000000004 8299.630000000001C1366.1200000000003 8298.990000000002 1366.1200000000003 8297.95 1366.7600000000004 8297.310000000001C1367.0700000000004 8296.990000000002 1367.4800000000005 8296.840000000002 1367.8900000000006 8296.840000000002C1368.3000000000006 8296.840000000002 1368.7100000000005 8296.990000000002 1369.0200000000007 8297.310000000001L1381.0500000000006 8309.490000000002C1381.7200000000007 8310.170000000002 1382.6200000000006 8310.530000000002 1383.5100000000007 8310.530000000002C1384.2200000000007 8310.530000000002 1384.9300000000007 8310.300000000003 1385.5200000000007 8309.830000000002C1387.1000000000006 8308.560000000001 1387.2000000000007 8306.210000000001 1385.8200000000006 8304.810000000001L1360.3200000000006 8279.000000000002ZM1375.34 8265.41C1375.07 8265.14 1374.7099999999998 8265 1374.35 8265C1374.03 8265 1373.7099999999998 8265.11 1373.4499999999998 8265.34L1372.2899999999997 8266C1372.2899999999997 8266.01 1372.2899999999997 8266.01 1372.2899999999997 8266.01L1349.3499999999997 8269.2C1347.5399999999997 8269.2 1346.0699999999997 8270.7 1346.0699999999997 8272.53C1346.0699999999997 8274.35 1347.5399999999997 8275.85 1349.3499999999997 8275.85L1361.5799999999997 8276.01C1361.5799999999997 8276.01 1380.5399999999997 8295.2 1384.7599999999998 8299.47C1388.0699999999997 8295.199999999999 1391.0199999999998 8290.73 1391.8599999999997 8286.84C1391.9099999999996 8286.630000000001 1391.9899999999998 8286.44 1392.1199999999997 8286.27L1392.7099999999996 8284.76C1393.1399999999996 8284.19 1393.0899999999997 8283.4 1392.5899999999997 8282.9ZM1340.11 8311.93C1340.76 8311.93 1341.4099999999999 8311.68 1341.9099999999999 8311.18L1346.6 8306.44C1347.59 8305.43 1347.59 8303.810000000001 1346.6 8302.810000000001L1346.57 8302.78C1346.07 8302.28 1345.4299999999998 8302.03 1344.78 8302.03C1344.1299999999999 8302.03 1343.48 8302.28 1342.98 8302.78L1338.29 8307.53C1337.3 8308.53 1337.3 8310.150000000001 1338.29 8311.16L1338.32 8311.18C1338.82 8311.68 1339.46 8311.93 1340.11 8311.93ZM1344.4 8317.05C1344.9 8317.55 1345.5500000000002 8317.8 1346.2 8317.8C1346.8500000000001 8317.8 1347.49 8317.55 1347.99 8317.05L1351.02 8313.97C1352.01 8312.97 1352.01 8311.349999999999 1351.02 8310.34L1351 8310.32C1350.5 8309.82 1349.85 8309.57 1349.21 8309.57C1348.56 8309.57 1347.91 8309.82 1347.41 8310.32L1344.38 8313.39C1343.39 8314.39 1343.39 8316.019999999999 1344.38 8317.019999999999ZM1332.93 8304.9C1333.42 8305.41 1334.0700000000002 8305.66 1334.72 8305.66C1335.3700000000001 8305.66 1336.02 8305.41 1336.51 8304.9L1338.49 8302.9C1339.48 8301.9 1339.48 8300.27 1338.49 8299.27L1338.47 8299.24C1337.97 8298.74 1337.32 8298.49 1336.68 8298.49C1336.03 8298.49 1335.38 8298.74 1334.88 8299.24L1332.9 8301.25C1331.91 8302.25 1331.91 8303.88 1332.9 8304.88ZM1357.91 8327C1358.88 8327 1359.8600000000001 8326.58 1360.52 8325.72C1361.58 8324.369999999999 1361.3899999999999 8322.42 1360.19 8321.199999999999L1359.13 8320.119999999999C1359.0400000000002 8321.41 1358.5100000000002 8322.679999999998 1357.5400000000002 8323.66L1356.16 8325.06C1355.89 8325.32 1355.6100000000001 8325.56 1355.3100000000002 8325.76L1355.5700000000002 8326.02C1356.2100000000003 8326.67 1357.0600000000002 8327 1357.91 8327ZM1354.05 8322.93L1355.43 8321.53C1356.42 8320.53 1356.42 8318.91 1355.43 8317.900000000001L1355.41 8317.880000000001C1354.91 8317.380000000001 1354.26 8317.130000000001 1353.6100000000001 8317.130000000001C1352.96 8317.130000000001 1352.3200000000002 8317.380000000001 1351.8200000000002 8317.880000000001L1350.44 8319.28C1349.45 8320.28 1349.45 8321.900000000001 1350.44 8322.900000000001L1350.47 8322.930000000002C1350.96 8323.430000000002 1351.6100000000001 8323.680000000002 1352.26 8323.680000000002C1352.91 8323.680000000002 1353.56 8323.430000000002 1354.05 8322.930000000002Z " fill="#000000" fill-opacity="0.24" filter="url(#SvgjsFilter1050)" transform="matrix(1,0,0,1,-1322.9983395503536,-8264)"></path><path id="SvgjsPath1052" d="M1349.33 8277.86C1345.8899999999999 8277.85 1343.09 8275.01 1343.09 8271.53C1343.09 8269.74 1343.82 8268.12 1345 8266.970000000001L1343.55 8265.590000000002C1343.29 8265.360000000002 1342.97 8265.250000000002 1342.6399999999999 8265.250000000002C1342.29 8265.250000000002 1341.9299999999998 8265.390000000001 1341.6599999999999 8265.670000000002L1324.4099999999999 8283.150000000001C1323.9099999999999 8283.650000000001 1323.86 8284.45 1324.29 8285.010000000002L1330.6299999999999 8292.340000000002C1330.76 8292.510000000002 1330.85 8292.710000000003 1330.8899999999999 8292.920000000002C1331.1499999999999 8294.120000000003 1331.59 8295.390000000001 1332.1799999999998 8296.720000000001L1332.7799999999997 8296.11C1333.8199999999997 8295.060000000001 1335.1999999999998 8294.480000000001 1336.6799999999998 8294.480000000001C1338.1499999999999 8294.480000000001 1339.5299999999997 8295.060000000001 1340.57 8296.11C1340.58 8296.12 1340.58 8296.130000000001 1340.59 8296.130000000001L1340.61 8296.150000000001C1341.33 8296.880000000001 1341.81 8297.78 1342.05 8298.750000000002C1342.87 8298.280000000002 1343.8 8298.020000000002 1344.78 8298.020000000002C1346.25 8298.020000000002 1347.6299999999999 8298.600000000002 1348.67 8299.650000000001L1348.7 8299.680000000002C1349.74 8300.730000000001 1350.31 8302.130000000003 1350.31 8303.620000000003C1350.31 8304.310000000003 1350.19 8304.980000000003 1349.95 8305.610000000002C1351.14 8305.770000000002 1352.24 8306.310000000003 1353.1000000000001 8307.190000000002L1353.13 8307.210000000003C1353.89 8307.990000000003 1354.38 8308.940000000002 1354.6000000000001 8309.940000000002L1367.1100000000001 8322.600000000002C1367.7800000000002 8323.280000000002 1368.68 8323.630000000003 1369.5700000000002 8323.630000000003C1370.2800000000002 8323.630000000003 1370.9900000000002 8323.410000000003 1371.5800000000002 8322.930000000002C1373.16 8321.670000000002 1373.2600000000002 8319.320000000002 1371.88 8317.920000000002L1359.7700000000002 8305.670000000002C1359.1500000000003 8305.040000000003 1359.1500000000003 8304.010000000002 1359.7700000000002 8303.380000000001C1360.0900000000001 8303.060000000001 1360.5000000000002 8302.900000000001 1360.9200000000003 8302.900000000001C1361.3300000000004 8302.900000000001 1361.7500000000002 8303.060000000001 1362.0600000000004 8303.380000000001L1377.4600000000005 8318.960000000001C1378.1300000000006 8319.640000000001 1379.0300000000004 8320.000000000002 1379.9200000000005 8320.000000000002C1380.6300000000006 8320.000000000002 1381.3400000000006 8319.770000000002 1381.9300000000005 8319.300000000001C1383.5100000000004 8318.04 1383.6100000000006 8315.68 1382.2200000000005 8314.29L1366.7600000000004 8298.630000000001C1366.1200000000003 8297.990000000002 1366.1200000000003 8296.95 1366.7600000000004 8296.310000000001C1367.0700000000004 8295.990000000002 1367.4800000000005 8295.840000000002 1367.8900000000006 8295.840000000002C1368.3000000000006 8295.840000000002 1368.7100000000005 8295.990000000002 1369.0200000000007 8296.310000000001L1381.0500000000006 8308.490000000002C1381.7200000000007 8309.170000000002 1382.6200000000006 8309.530000000002 1383.5100000000007 8309.530000000002C1384.2200000000007 8309.530000000002 1384.9300000000007 8309.300000000003 1385.5200000000007 8308.830000000002C1387.1000000000006 8307.560000000001 1387.2000000000007 8305.210000000001 1385.8200000000006 8303.810000000001L1360.3200000000006 8278.000000000002ZM1375.34 8264.41C1375.07 8264.14 1374.7099999999998 8264 1374.35 8264C1374.03 8264 1373.7099999999998 8264.11 1373.4499999999998 8264.34L1372.2899999999997 8265C1372.2899999999997 8265.01 1372.2899999999997 8265.01 1372.2899999999997 8265.01L1349.3499999999997 8268.2C1347.5399999999997 8268.2 1346.0699999999997 8269.7 1346.0699999999997 8271.53C1346.0699999999997 8273.35 1347.5399999999997 8274.85 1349.3499999999997 8274.85L1361.5799999999997 8275.01C1361.5799999999997 8275.01 1380.5399999999997 8294.2 1384.7599999999998 8298.47C1388.0699999999997 8294.199999999999 1391.0199999999998 8289.73 1391.8599999999997 8285.84C1391.9099999999996 8285.630000000001 1391.9899999999998 8285.44 1392.1199999999997 8285.27L1392.7099999999996 8283.76C1393.1399999999996 8283.19 1393.0899999999997 8282.4 1392.5899999999997 8281.9ZM1340.11 8310.93C1340.76 8310.93 1341.4099999999999 8310.68 1341.9099999999999 8310.18L1346.6 8305.44C1347.59 8304.43 1347.59 8302.810000000001 1346.6 8301.810000000001L1346.57 8301.78C1346.07 8301.28 1345.4299999999998 8301.03 1344.78 8301.03C1344.1299999999999 8301.03 1343.48 8301.28 1342.98 8301.78L1338.29 8306.53C1337.3 8307.53 1337.3 8309.150000000001 1338.29 8310.16L1338.32 8310.18C1338.82 8310.68 1339.46 8310.93 1340.11 8310.93ZM1344.4 8316.05C1344.9 8316.55 1345.5500000000002 8316.8 1346.2 8316.8C1346.8500000000001 8316.8 1347.49 8316.55 1347.99 8316.05L1351.02 8312.97C1352.01 8311.97 1352.01 8310.349999999999 1351.02 8309.34L1351 8309.32C1350.5 8308.82 1349.85 8308.57 1349.21 8308.57C1348.56 8308.57 1347.91 8308.82 1347.41 8309.32L1344.38 8312.39C1343.39 8313.39 1343.39 8315.019999999999 1344.38 8316.019999999999ZM1332.93 8303.9C1333.42 8304.41 1334.0700000000002 8304.66 1334.72 8304.66C1335.3700000000001 8304.66 1336.02 8304.41 1336.51 8303.9L1338.49 8301.9C1339.48 8300.9 1339.48 8299.27 1338.49 8298.27L1338.47 8298.24C1337.97 8297.74 1337.32 8297.49 1336.68 8297.49C1336.03 8297.49 1335.38 8297.74 1334.88 8298.24L1332.9 8300.25C1331.91 8301.25 1331.91 8302.88 1332.9 8303.88ZM1357.91 8326C1358.88 8326 1359.8600000000001 8325.58 1360.52 8324.72C1361.58 8323.369999999999 1361.3899999999999 8321.42 1360.19 8320.199999999999L1359.13 8319.119999999999C1359.0400000000002 8320.41 1358.5100000000002 8321.679999999998 1357.5400000000002 8322.66L1356.16 8324.06C1355.89 8324.32 1355.6100000000001 8324.56 1355.3100000000002 8324.76L1355.5700000000002 8325.02C1356.2100000000003 8325.67 1357.0600000000002 8326 1357.91 8326ZM1354.05 8321.93L1355.43 8320.53C1356.42 8319.53 1356.42 8317.91 1355.43 8316.900000000001L1355.41 8316.880000000001C1354.91 8316.380000000001 1354.26 8316.130000000001 1353.6100000000001 8316.130000000001C1352.96 8316.130000000001 1352.3200000000002 8316.380000000001 1351.8200000000002 8316.880000000001L1350.44 8318.28C1349.45 8319.28 1349.45 8320.900000000001 1350.44 8321.900000000001L1350.47 8321.930000000002C1350.96 8322.430000000002 1351.6100000000001 8322.680000000002 1352.26 8322.680000000002C1352.91 8322.680000000002 1353.56 8322.430000000002 1354.05 8321.930000000002Z " fill="#ffffff" transform="matrix(1,0,0,1,-1322.9983395503536,-8264)"></path></svg>