<svg id="SvgjsSvg1059" xmlns="http://www.w3.org/2000/svg" version="1.1" xmlns:xlink="http://www.w3.org/1999/xlink" xmlns:svgjs="http://svgjs.com/svgjs" width="63.003000000000156" height="63"><defs id="SvgjsDefs1060"><filter id="SvgjsFilter1062" width="200%" height="200%" x="-50%" y="-50%"><feGaussianBlur id="SvgjsFeGaussianBlur1063" stdDeviation="0.5 " result="SvgjsFeGaussianBlur1063Out" in="SourceGraphic"></feGaussianBlur></filter></defs><path id="SvgjsPath1061" d="M850.388 8608.63L850.388 8595.869999999999C850.299 8595.99 850.21 8596.119999999999 850.115 8596.24C848.735 8597.99 846.903 8599.25 844.85 8599.92L845.428 8599.92L845.428 8608.62L832.136 8608.62L838.365 8600.11C838.477 8599.960000000001 838.583 8599.810000000001 838.6800000000001 8599.66C842.158 8600.53 845.9870000000001 8599.369999999999 848.355 8596.369999999999C850.0840000000001 8594.179999999998 850.756 8591.349999999999 850.197 8588.609999999999C850.135 8588.3 849.896 8588.06 849.591 8587.98C849.283 8587.91 848.961 8588.02 848.764 8588.27L844.75 8593.36L839.531 8592.34L837.351 8587.48L841.367 8582.39C841.5649999999999 8582.14 841.598 8581.8 841.458 8581.519999999999C841.3149999999999 8581.239999999998 841.0219999999999 8581.06 840.707 8581.069999999998C837.921 8581.149999999998 835.332 8582.449999999997 833.603 8584.639999999998C831.2379999999999 8587.639999999998 830.983 8591.639999999998 832.6239999999999 8594.839999999998C832.4999999999999 8594.969999999998 832.3779999999999 8595.109999999999 832.2599999999999 8595.259999999998L824.2009999999999 8604.88L826.1519999999999 8606.839999999998C826.656 8607.339999999998 827.0089999999999 8607.96 827.1999999999999 8608.63L826.329 8608.63C826.1709999999999 8608.189999999999 825.918 8607.769999999999 825.567 8607.42L814.472 8596.29L814.184 8597.26L814.935 8597.48C815.501 8597.65 815.968 8598.029999999999 816.2479999999999 8598.55C816.5289999999999 8599.07 816.5909999999999 8599.67 816.4229999999999 8600.24C816.3329999999999 8600.539999999999 816.1779999999999 8600.82 815.9719999999999 8601.06C816.0299999999999 8601.58 815.9859999999999 8602.109999999999 815.8329999999999 8602.609999999999L814.8369999999999 8605.98L817.4749999999999 8608.619999999999L812.93 8608.619999999999L814.8889999999999 8602.009999999998C815.0569999999999 8601.439999999999 815.0429999999999 8600.869999999999 814.8849999999999 8600.339999999998C815.1619999999999 8600.199999999999 815.3829999999999 8599.949999999999 815.4789999999999 8599.63C815.6619999999999 8599.009999999998 815.3079999999999 8598.349999999999 814.6859999999999 8598.17L812.944 8597.65L817.678 8581.66L817.827 8581.71L819.053 8579.32L819.534 8575.61L817.49 8575L815.9 8578.39L815.644 8581.06L815.796 8581.1L811.062 8597.09L809.249 8596.55C808.629 8596.359999999999 807.9730000000001 8596.72 807.789 8597.34C807.6999999999999 8597.64 807.737 8597.95 807.8679999999999 8598.210000000001C807.4319999999999 8598.570000000002 807.093 8599.050000000001 806.9209999999999 8599.630000000001L804.262 8608.630000000001L801.775 8608.630000000001L801.775 8599.920000000002L805.069 8599.920000000002L805.658 8597.920000000002C805.806 8597.430000000002 805.908 8597.290000000003 806.2040000000001 8596.870000000003L800.8850000000001 8591.410000000003C800.1570000000002 8592.410000000003 799.4360000000001 8593.460000000003 798.315 8594.570000000003L796.815 8596.080000000004L796.815 8608.630000000003L795.202 8608.630000000003L795.202 8626.040000000003C795.202 8631.540000000003 799.645 8636.000000000002 805.124 8636.000000000002L842.081 8636.000000000002C847.561 8636.000000000002 852.0020000000001 8631.540000000003 852.0020000000001 8626.040000000003L852.0020000000001 8608.630000000003ZM800.065 8589.92C800.1850000000001 8589.86 800.301 8589.79 800.4140000000001 8589.73C800.4710000000001 8589.81 800.5310000000001 8589.88 800.6010000000001 8589.949999999999L807.1930000000001 8596.56C807.6050000000001 8596.08 808.2120000000001 8595.769999999999 808.8700000000001 8595.769999999999C809.0840000000002 8595.769999999999 809.2960000000002 8595.8 809.5000000000001 8595.859999999999L810.3220000000001 8596.109999999999L810.8330000000001 8594.38L803.5070000000001 8587.029999999999C803.3910000000001 8586.919999999998 803.2660000000001 8586.82 803.1310000000001 8586.739999999998L803.1480000000001 8586.659999999998C803.1660000000002 8586.589999999998 803.1880000000001 8586.539999999997 803.2100000000002 8586.479999999998C803.2260000000001 8586.429999999998 803.2440000000001 8586.389999999998 803.2610000000002 8586.339999999998C803.2820000000002 8586.289999999999 803.3030000000002 8586.239999999998 803.3250000000002 8586.179999999998C803.3610000000001 8586.099999999999 803.4000000000002 8585.999999999998 803.4500000000002 8585.899999999998L803.5870000000001 8585.619999999997L803.7440000000001 8585.339999999997C803.8100000000002 8585.219999999996 803.8850000000001 8585.109999999997 803.9700000000001 8584.979999999996C804.0160000000002 8584.909999999996 804.0610000000001 8584.839999999997 804.1080000000002 8584.769999999997C804.1490000000002 8584.719999999998 804.1920000000001 8584.659999999996 804.2350000000001 8584.599999999997C804.3420000000001 8584.459999999997 804.4410000000001 8584.329999999996 804.5490000000001 8584.209999999997L804.6250000000001 8584.129999999997C804.7680000000001 8583.969999999998 804.9110000000001 8583.809999999998 805.0770000000001 8583.669999999998C805.1300000000001 8583.619999999999 805.1700000000001 8583.589999999998 805.2120000000001 8583.549999999997C805.2680000000001 8583.499999999998 805.3260000000001 8583.439999999997 805.3860000000001 8583.389999999998L805.7080000000001 8583.159999999998C805.7180000000001 8583.149999999998 805.7260000000001 8583.149999999998 805.7330000000001 8583.139999999998C805.8610000000001 8583.039999999997 806.0160000000001 8582.949999999997 806.1800000000001 8582.859999999997C806.2460000000001 8582.819999999996 806.3100000000001 8582.789999999997 806.3750000000001 8582.749999999996C806.5130000000001 8582.659999999996 806.6550000000001 8582.599999999997 806.8070000000001 8582.539999999997C806.8830000000002 8582.509999999997 806.9570000000001 8582.479999999998 807.0330000000001 8582.439999999997C807.0770000000001 8582.429999999997 807.1220000000002 8582.409999999996 807.1670000000001 8582.389999999998C807.2150000000001 8582.369999999997 807.2620000000002 8582.339999999998 807.3100000000002 8582.329999999998L807.6630000000001 8582.229999999998C807.7330000000002 8582.209999999997 807.8140000000001 8582.189999999997 807.8960000000001 8582.169999999998C808.0110000000001 8582.129999999997 808.1220000000001 8582.099999999999 808.1970000000001 8582.089999999998L809.1420000000002 8581.949999999999C809.2800000000002 8581.929999999998 809.4020000000002 8581.869999999999 809.4960000000002 8581.779999999999C809.5980000000002 8581.669999999998 809.6670000000003 8581.529999999999 809.6760000000002 8581.38C809.6970000000001 8581.08 809.5100000000001 8580.81 809.2280000000002 8580.73L808.2960000000002 8580.46C808.1340000000001 8580.41 807.9620000000002 8580.39 807.7960000000002 8580.359999999999C807.7220000000002 8580.349999999999 807.6470000000002 8580.339999999998 807.5670000000001 8580.329999999998L807.1590000000001 8580.269999999999C807.0310000000001 8580.239999999998 806.9110000000001 8580.239999999998 806.8040000000001 8580.239999999998C806.7620000000001 8580.239999999998 806.7200000000001 8580.239999999998 806.676 8580.229999999998C806.5690000000001 8580.229999999998 806.4910000000001 8580.229999999998 806.4110000000001 8580.229999999998C806.1740000000001 8580.209999999997 805.9050000000001 8580.199999999997 805.62 8580.239999999998L805.439 8580.259999999998C805.1659999999999 8580.279999999999 804.853 8580.309999999998 804.539 8580.38L804.035 8580.48C803.88 8580.52 803.75 8580.56 803.62 8580.6L803.461 8580.65C803.096 8580.75 802.7520000000001 8580.9 802.418 8581.039999999999L802.373 8581.06C802.0870000000001 8581.18 801.827 8581.32 801.576 8581.449999999999L801.3670000000001 8581.56C801.3530000000001 8581.57 801.3420000000001 8581.58 801.3270000000001 8581.58C801.2460000000001 8581.63 801.1640000000001 8581.69 801.0840000000001 8581.73C800.8670000000001 8581.869999999999 800.6400000000001 8582 800.431 8582.16L800.082 8582.41C800.075 8582.41 800.0409999999999 8582.44 800.032 8582.45L799.688 8582.720000000001C799.5939999999999 8582.79 799.509 8582.87 799.427 8582.94C798.806 8583.04 798.2090000000001 8583.33 797.73 8583.810000000001L796.992 8584.550000000001C796.6519999999999 8584.900000000001 796.333 8585.37 796.0699999999999 8585.910000000002C794.9119999999999 8585.690000000002 793.342 8587.400000000001 790.9989999999999 8589.750000000002L796.2379999999999 8595.000000000002C798.034 8593.200000000003 800.289 8591.080000000002 800.0649999999999 8589.920000000002ZM841.143 8589.59L844.4440000000001 8590.23L847.8030000000001 8585.98C848.4160000000002 8585.199999999999 849.4360000000001 8584.85 850.3880000000001 8585.08L850.3880000000001 8583.24L845.4280000000001 8583.24L845.4280000000001 8587.23L840.0840000000001 8587.23ZM807.427 8601.24C807.623 8600.58 808.317 8600.199999999999 808.9780000000001 8600.4C809.638 8600.59 810.014 8601.289999999999 809.8170000000001 8601.949999999999L807.8420000000001 8608.619999999999L805.2410000000001 8608.619999999999ZM811.446 8602.44C811.642 8601.78 812.336 8601.4 812.9970000000001 8601.59C813.6550000000001 8601.79 814.0310000000001 8602.49 813.835 8603.15L812.215 8608.63L809.614 8608.63ZM811.193 8590.67L812.212 8587.23L807.765 8587.23ZM817.882 8587.23L815.963 8593.71L822.153 8599.919999999998L825.471 8599.919999999998L830.989 8593.329999999998C830.2320000000001 8591.359999999999 830.0600000000001 8589.249999999998 830.436 8587.229999999998Z " fill="#000000" fill-opacity="0.24" filter="url(#SvgjsFilter1062)" transform="matrix(1,0,0,1,-789.9984999999999,-8574)"></path><path id="SvgjsPath1064" d="M850.388 8607.63L850.388 8594.869999999999C850.299 8594.99 850.21 8595.119999999999 850.115 8595.24C848.735 8596.99 846.903 8598.25 844.85 8598.92L845.428 8598.92L845.428 8607.62L832.136 8607.62L838.365 8599.11C838.477 8598.960000000001 838.583 8598.810000000001 838.6800000000001 8598.66C842.158 8599.53 845.9870000000001 8598.369999999999 848.355 8595.369999999999C850.0840000000001 8593.179999999998 850.756 8590.349999999999 850.197 8587.609999999999C850.135 8587.3 849.896 8587.06 849.591 8586.98C849.283 8586.91 848.961 8587.02 848.764 8587.27L844.75 8592.36L839.531 8591.34L837.351 8586.48L841.367 8581.39C841.5649999999999 8581.14 841.598 8580.8 841.458 8580.519999999999C841.3149999999999 8580.239999999998 841.0219999999999 8580.06 840.707 8580.069999999998C837.921 8580.149999999998 835.332 8581.449999999997 833.603 8583.639999999998C831.2379999999999 8586.639999999998 830.983 8590.639999999998 832.6239999999999 8593.839999999998C832.4999999999999 8593.969999999998 832.3779999999999 8594.109999999999 832.2599999999999 8594.259999999998L824.2009999999999 8603.88L826.1519999999999 8605.839999999998C826.656 8606.339999999998 827.0089999999999 8606.96 827.1999999999999 8607.63L826.329 8607.63C826.1709999999999 8607.189999999999 825.918 8606.769999999999 825.567 8606.42L814.472 8595.29L814.184 8596.26L814.935 8596.48C815.501 8596.65 815.968 8597.029999999999 816.2479999999999 8597.55C816.5289999999999 8598.07 816.5909999999999 8598.67 816.4229999999999 8599.24C816.3329999999999 8599.539999999999 816.1779999999999 8599.82 815.9719999999999 8600.06C816.0299999999999 8600.58 815.9859999999999 8601.109999999999 815.8329999999999 8601.609999999999L814.8369999999999 8604.98L817.4749999999999 8607.619999999999L812.93 8607.619999999999L814.8889999999999 8601.009999999998C815.0569999999999 8600.439999999999 815.0429999999999 8599.869999999999 814.8849999999999 8599.339999999998C815.1619999999999 8599.199999999999 815.3829999999999 8598.949999999999 815.4789999999999 8598.63C815.6619999999999 8598.009999999998 815.3079999999999 8597.349999999999 814.6859999999999 8597.17L812.944 8596.65L817.678 8580.66L817.827 8580.71L819.053 8578.32L819.534 8574.61L817.49 8574L815.9 8577.39L815.644 8580.06L815.796 8580.1L811.062 8596.09L809.249 8595.55C808.629 8595.359999999999 807.9730000000001 8595.72 807.789 8596.34C807.6999999999999 8596.64 807.737 8596.95 807.8679999999999 8597.210000000001C807.4319999999999 8597.570000000002 807.093 8598.050000000001 806.9209999999999 8598.630000000001L804.262 8607.630000000001L801.775 8607.630000000001L801.775 8598.920000000002L805.069 8598.920000000002L805.658 8596.920000000002C805.806 8596.430000000002 805.908 8596.290000000003 806.2040000000001 8595.870000000003L800.8850000000001 8590.410000000003C800.1570000000002 8591.410000000003 799.4360000000001 8592.460000000003 798.315 8593.570000000003L796.815 8595.080000000004L796.815 8607.630000000003L795.202 8607.630000000003L795.202 8625.040000000003C795.202 8630.540000000003 799.645 8635.000000000002 805.124 8635.000000000002L842.081 8635.000000000002C847.561 8635.000000000002 852.0020000000001 8630.540000000003 852.0020000000001 8625.040000000003L852.0020000000001 8607.630000000003ZM800.065 8588.92C800.1850000000001 8588.86 800.301 8588.79 800.4140000000001 8588.73C800.4710000000001 8588.81 800.5310000000001 8588.88 800.6010000000001 8588.949999999999L807.1930000000001 8595.56C807.6050000000001 8595.08 808.2120000000001 8594.769999999999 808.8700000000001 8594.769999999999C809.0840000000002 8594.769999999999 809.2960000000002 8594.8 809.5000000000001 8594.859999999999L810.3220000000001 8595.109999999999L810.8330000000001 8593.38L803.5070000000001 8586.029999999999C803.3910000000001 8585.919999999998 803.2660000000001 8585.82 803.1310000000001 8585.739999999998L803.1480000000001 8585.659999999998C803.1660000000002 8585.589999999998 803.1880000000001 8585.539999999997 803.2100000000002 8585.479999999998C803.2260000000001 8585.429999999998 803.2440000000001 8585.389999999998 803.2610000000002 8585.339999999998C803.2820000000002 8585.289999999999 803.3030000000002 8585.239999999998 803.3250000000002 8585.179999999998C803.3610000000001 8585.099999999999 803.4000000000002 8584.999999999998 803.4500000000002 8584.899999999998L803.5870000000001 8584.619999999997L803.7440000000001 8584.339999999997C803.8100000000002 8584.219999999996 803.8850000000001 8584.109999999997 803.9700000000001 8583.979999999996C804.0160000000002 8583.909999999996 804.0610000000001 8583.839999999997 804.1080000000002 8583.769999999997C804.1490000000002 8583.719999999998 804.1920000000001 8583.659999999996 804.2350000000001 8583.599999999997C804.3420000000001 8583.459999999997 804.4410000000001 8583.329999999996 804.5490000000001 8583.209999999997L804.6250000000001 8583.129999999997C804.7680000000001 8582.969999999998 804.9110000000001 8582.809999999998 805.0770000000001 8582.669999999998C805.1300000000001 8582.619999999999 805.1700000000001 8582.589999999998 805.2120000000001 8582.549999999997C805.2680000000001 8582.499999999998 805.3260000000001 8582.439999999997 805.3860000000001 8582.389999999998L805.7080000000001 8582.159999999998C805.7180000000001 8582.149999999998 805.7260000000001 8582.149999999998 805.7330000000001 8582.139999999998C805.8610000000001 8582.039999999997 806.0160000000001 8581.949999999997 806.1800000000001 8581.859999999997C806.2460000000001 8581.819999999996 806.3100000000001 8581.789999999997 806.3750000000001 8581.749999999996C806.5130000000001 8581.659999999996 806.6550000000001 8581.599999999997 806.8070000000001 8581.539999999997C806.8830000000002 8581.509999999997 806.9570000000001 8581.479999999998 807.0330000000001 8581.439999999997C807.0770000000001 8581.429999999997 807.1220000000002 8581.409999999996 807.1670000000001 8581.389999999998C807.2150000000001 8581.369999999997 807.2620000000002 8581.339999999998 807.3100000000002 8581.329999999998L807.6630000000001 8581.229999999998C807.7330000000002 8581.209999999997 807.8140000000001 8581.189999999997 807.8960000000001 8581.169999999998C808.0110000000001 8581.129999999997 808.1220000000001 8581.099999999999 808.1970000000001 8581.089999999998L809.1420000000002 8580.949999999999C809.2800000000002 8580.929999999998 809.4020000000002 8580.869999999999 809.4960000000002 8580.779999999999C809.5980000000002 8580.669999999998 809.6670000000003 8580.529999999999 809.6760000000002 8580.38C809.6970000000001 8580.08 809.5100000000001 8579.81 809.2280000000002 8579.73L808.2960000000002 8579.46C808.1340000000001 8579.41 807.9620000000002 8579.39 807.7960000000002 8579.359999999999C807.7220000000002 8579.349999999999 807.6470000000002 8579.339999999998 807.5670000000001 8579.329999999998L807.1590000000001 8579.269999999999C807.0310000000001 8579.239999999998 806.9110000000001 8579.239999999998 806.8040000000001 8579.239999999998C806.7620000000001 8579.239999999998 806.7200000000001 8579.239999999998 806.676 8579.229999999998C806.5690000000001 8579.229999999998 806.4910000000001 8579.229999999998 806.4110000000001 8579.229999999998C806.1740000000001 8579.209999999997 805.9050000000001 8579.199999999997 805.62 8579.239999999998L805.439 8579.259999999998C805.1659999999999 8579.279999999999 804.853 8579.309999999998 804.539 8579.38L804.035 8579.48C803.88 8579.52 803.75 8579.56 803.62 8579.6L803.461 8579.65C803.096 8579.75 802.7520000000001 8579.9 802.418 8580.039999999999L802.373 8580.06C802.0870000000001 8580.18 801.827 8580.32 801.576 8580.449999999999L801.3670000000001 8580.56C801.3530000000001 8580.57 801.3420000000001 8580.58 801.3270000000001 8580.58C801.2460000000001 8580.63 801.1640000000001 8580.69 801.0840000000001 8580.73C800.8670000000001 8580.869999999999 800.6400000000001 8581 800.431 8581.16L800.082 8581.41C800.075 8581.41 800.0409999999999 8581.44 800.032 8581.45L799.688 8581.720000000001C799.5939999999999 8581.79 799.509 8581.87 799.427 8581.94C798.806 8582.04 798.2090000000001 8582.33 797.73 8582.810000000001L796.992 8583.550000000001C796.6519999999999 8583.900000000001 796.333 8584.37 796.0699999999999 8584.910000000002C794.9119999999999 8584.690000000002 793.342 8586.400000000001 790.9989999999999 8588.750000000002L796.2379999999999 8594.000000000002C798.034 8592.200000000003 800.289 8590.080000000002 800.0649999999999 8588.920000000002ZM841.143 8588.59L844.4440000000001 8589.23L847.8030000000001 8584.98C848.4160000000002 8584.199999999999 849.4360000000001 8583.85 850.3880000000001 8584.08L850.3880000000001 8582.24L845.4280000000001 8582.24L845.4280000000001 8586.23L840.0840000000001 8586.23ZM807.427 8600.24C807.623 8599.58 808.317 8599.199999999999 808.9780000000001 8599.4C809.638 8599.59 810.014 8600.289999999999 809.8170000000001 8600.949999999999L807.8420000000001 8607.619999999999L805.2410000000001 8607.619999999999ZM811.446 8601.44C811.642 8600.78 812.336 8600.4 812.9970000000001 8600.59C813.6550000000001 8600.79 814.0310000000001 8601.49 813.835 8602.15L812.215 8607.63L809.614 8607.63ZM811.193 8589.67L812.212 8586.23L807.765 8586.23ZM817.882 8586.23L815.963 8592.71L822.153 8598.919999999998L825.471 8598.919999999998L830.989 8592.329999999998C830.2320000000001 8590.359999999999 830.0600000000001 8588.249999999998 830.436 8586.229999999998Z " fill="#ffffff" transform="matrix(1,0,0,1,-789.9984999999999,-8574)"></path></svg>