<svg id="SvgjsSvg1053" xmlns="http://www.w3.org/2000/svg" version="1.1" xmlns:xlink="http://www.w3.org/1999/xlink" xmlns:svgjs="http://svgjs.com/svgjs" width="77.00061319123597" height="53.49979239887762"><defs id="SvgjsDefs1054"><filter id="SvgjsFilter1056" width="200%" height="200%" x="-50%" y="-50%"><feGaussianBlur id="SvgjsFeGaussianBlur1057" stdDeviation="0.5 " result="SvgjsFeGaussianBlur1057Out" in="SourceGraphic"></feGaussianBlur></filter></defs><path id="SvgjsPath1055" d="M583.02 8614.92C578.8 8617.23 572.995 8619.36 567.207 8620.26C562.057 8621.06 552.3679999999999 8619.130000000001 552.3679999999999 8616.85C552.3679999999999 8615.99 560.866 8618.98 566.0049999999999 8617.62C569.9469999999999 8616.58 569.3879999999999 8612.92 567.2439999999999 8612.44C565.112 8611.960000000001 552.6239999999999 8607.43 547.2909999999999 8607.27C544.7779999999999 8607.2 538.5749999999999 8608.140000000001 535.573 8608.62C534.545 8608.79 533.9 8608.77 533.836 8609.740000000002C533.537 8614.280000000002 532.948 8623.550000000001 532.6270000000001 8628.390000000001C532.6210000000001 8628.500000000002 532.764 8629.87 533.9100000000001 8628.900000000001C535.1630000000001 8627.840000000002 536.922 8626.670000000002 538.5480000000001 8627.03C541.1000000000001 8627.61 563.1760000000002 8631.62 566.2220000000001 8630.92C570.5780000000001 8629.91 582.9090000000001 8622.67 585.2740000000001 8620.42C588.9380000000001 8616.92 586.0900000000001 8613.24 583.0200000000001 8614.92ZM527.744 8608.44L516.179 8607.880000000001C515.286 8607.84 514.374 8608.500000000002 514.1519999999999 8609.36L512.049 8628.29C511.827 8629.150000000001 512.377 8629.880000000001 513.27 8629.910000000002L526.087 8629.910000000002C526.981 8629.950000000003 527.7669999999999 8629.250000000002 527.836 8628.37L529.243 8610.130000000001C529.311 8609.250000000002 528.6370000000001 8608.490000000002 527.744 8608.44ZM520.936 8627.4C519.169 8627.4 517.738 8625.98 517.738 8624.23C517.738 8622.48 519.1700000000001 8621.06 520.936 8621.06C522.702 8621.06 524.133 8622.48 524.133 8624.23C524.133 8625.98 522.701 8627.4 520.936 8627.4ZM580.518 8599.25L581.339 8596.51C581.839 8594.84 580.883 8593.09 579.2030000000001 8592.59C577.5230000000001 8592.1 575.7560000000001 8593.05 575.2570000000001 8594.710000000001L574.45 8597.400000000001C574.45 8597.400000000001 574.325 8598.050000000001 573.59 8597.830000000002C573.086 8597.680000000002 571.576 8597.240000000002 571.576 8597.240000000002C571.576 8597.240000000002 570.889 8597.130000000001 571.091 8596.460000000001C571.386 8595.470000000001 572.272 8592.52 572.272 8592.52C572.772 8590.85 571.816 8589.1 570.1360000000001 8588.61C568.4560000000001 8588.11 566.6890000000001 8589.060000000001 566.19 8590.730000000001C566.19 8590.730000000001 565.3040000000001 8593.680000000002 565.008 8594.660000000002C564.802 8595.350000000002 564.12 8595.04 564.12 8595.04L555.22 8592.410000000002C554.595 8592.230000000001 554.585 8591.29 554.5400000000001 8590.830000000002C554.0840000000001 8586.120000000003 550.82 8581.920000000002 545.9770000000001 8580.500000000002C539.6050000000001 8578.620000000003 532.878 8582.230000000001 530.9810000000001 8588.540000000003C529.0860000000001 8594.860000000002 532.7280000000001 8601.530000000002 539.1000000000001 8603.410000000003C544.1640000000001 8604.910000000003 549.4490000000002 8602.930000000004 552.3590000000002 8598.890000000003C552.5060000000002 8598.680000000004 552.8020000000001 8598.260000000004 553.4110000000002 8598.440000000002L578.5340000000002 8605.850000000002C580.2130000000002 8606.350000000002 581.9800000000002 8605.400000000001 582.4800000000002 8603.740000000002C582.8890000000002 8602.37 582.3200000000003 8600.95 581.1770000000002 8600.2C580.9260000000003 8600.04 580.3820000000003 8599.7 580.5180000000003 8599.25ZM540.306 8599.39C536.1700000000001 8598.17 533.806 8593.84 535.0360000000001 8589.74C536.267 8585.64 540.634 8583.3 544.7700000000001 8584.52C548.907 8585.74 551.2710000000001 8590.07 550.0400000000001 8594.17C548.8090000000001 8598.27 544.4430000000001 8600.61 540.306 8599.39Z " fill="#000000" fill-opacity="0.24" filter="url(#SvgjsFilter1056)" transform="matrix(1,0,0,1,-510.999693404382,-8579)"></path><path id="SvgjsPath1058" d="M583.02 8613.92C578.8 8616.23 572.995 8618.36 567.207 8619.26C562.057 8620.06 552.3679999999999 8618.130000000001 552.3679999999999 8615.85C552.3679999999999 8614.99 560.866 8617.98 566.0049999999999 8616.62C569.9469999999999 8615.58 569.3879999999999 8611.92 567.2439999999999 8611.44C565.112 8610.960000000001 552.6239999999999 8606.43 547.2909999999999 8606.27C544.7779999999999 8606.2 538.5749999999999 8607.140000000001 535.573 8607.62C534.545 8607.79 533.9 8607.77 533.836 8608.740000000002C533.537 8613.280000000002 532.948 8622.550000000001 532.6270000000001 8627.390000000001C532.6210000000001 8627.500000000002 532.764 8628.87 533.9100000000001 8627.900000000001C535.1630000000001 8626.840000000002 536.922 8625.670000000002 538.5480000000001 8626.03C541.1000000000001 8626.61 563.1760000000002 8630.62 566.2220000000001 8629.92C570.5780000000001 8628.91 582.9090000000001 8621.67 585.2740000000001 8619.42C588.9380000000001 8615.92 586.0900000000001 8612.24 583.0200000000001 8613.92ZM527.744 8607.44L516.179 8606.880000000001C515.286 8606.84 514.374 8607.500000000002 514.1519999999999 8608.36L512.049 8627.29C511.827 8628.150000000001 512.377 8628.880000000001 513.27 8628.910000000002L526.087 8628.910000000002C526.981 8628.950000000003 527.7669999999999 8628.250000000002 527.836 8627.37L529.243 8609.130000000001C529.311 8608.250000000002 528.6370000000001 8607.490000000002 527.744 8607.44ZM520.936 8626.4C519.169 8626.4 517.738 8624.98 517.738 8623.23C517.738 8621.48 519.1700000000001 8620.06 520.936 8620.06C522.702 8620.06 524.133 8621.48 524.133 8623.23C524.133 8624.98 522.701 8626.4 520.936 8626.4ZM580.518 8598.25L581.339 8595.51C581.839 8593.84 580.883 8592.09 579.2030000000001 8591.59C577.5230000000001 8591.1 575.7560000000001 8592.05 575.2570000000001 8593.710000000001L574.45 8596.400000000001C574.45 8596.400000000001 574.325 8597.050000000001 573.59 8596.830000000002C573.086 8596.680000000002 571.576 8596.240000000002 571.576 8596.240000000002C571.576 8596.240000000002 570.889 8596.130000000001 571.091 8595.460000000001C571.386 8594.470000000001 572.272 8591.52 572.272 8591.52C572.772 8589.85 571.816 8588.1 570.1360000000001 8587.61C568.4560000000001 8587.11 566.6890000000001 8588.060000000001 566.19 8589.730000000001C566.19 8589.730000000001 565.3040000000001 8592.680000000002 565.008 8593.660000000002C564.802 8594.350000000002 564.12 8594.04 564.12 8594.04L555.22 8591.410000000002C554.595 8591.230000000001 554.585 8590.29 554.5400000000001 8589.830000000002C554.0840000000001 8585.120000000003 550.82 8580.920000000002 545.9770000000001 8579.500000000002C539.6050000000001 8577.620000000003 532.878 8581.230000000001 530.9810000000001 8587.540000000003C529.0860000000001 8593.860000000002 532.7280000000001 8600.530000000002 539.1000000000001 8602.410000000003C544.1640000000001 8603.910000000003 549.4490000000002 8601.930000000004 552.3590000000002 8597.890000000003C552.5060000000002 8597.680000000004 552.8020000000001 8597.260000000004 553.4110000000002 8597.440000000002L578.5340000000002 8604.850000000002C580.2130000000002 8605.350000000002 581.9800000000002 8604.400000000001 582.4800000000002 8602.740000000002C582.8890000000002 8601.37 582.3200000000003 8599.95 581.1770000000002 8599.2C580.9260000000003 8599.04 580.3820000000003 8598.7 580.5180000000003 8598.25ZM540.306 8598.39C536.1700000000001 8597.17 533.806 8592.84 535.0360000000001 8588.74C536.267 8584.64 540.634 8582.3 544.7700000000001 8583.52C548.907 8584.74 551.2710000000001 8589.07 550.0400000000001 8593.17C548.8090000000001 8597.27 544.4430000000001 8599.61 540.306 8598.39Z " fill="#ffffff" transform="matrix(1,0,0,1,-510.999693404382,-8579)"></path></svg>