<svg id="SvgjsSvg1065" xmlns="http://www.w3.org/2000/svg" version="1.1" xmlns:xlink="http://www.w3.org/1999/xlink" xmlns:svgjs="http://svgjs.com/svgjs" width="59.997258481276276" height="66.99875000000065"><defs id="SvgjsDefs1066"><filter id="SvgjsFilter1068" width="200%" height="200%" x="-50%" y="-50%"><feGaussianBlur id="SvgjsFeGaussianBlur1069" stdDeviation="0.5 " result="SvgjsFeGaussianBlur1069Out" in="SourceGraphic"></feGaussianBlur></filter></defs><path id="SvgjsPath1067" d="M1102.27 8627.12C1098.06 8624.460000000001 1097.34 8620.95 1097.5 8618.44C1097.62 8616.460000000001 1098.22 8614.720000000001 1099.28 8613.26C1097.34 8612.17 1095.91 8611.460000000001 1095.34 8611.18C1095.1599999999999 8611.1 1095.05 8610.92 1095.05 8610.74L1095.05 8600.1C1096.4099999999999 8599.210000000001 1097.3 8597.69 1097.3 8595.960000000001L1097.3 8584.93C1097.3 8579.45 1092.81 8575 1087.27 8575L1084.8799999999999 8575C1079.34 8575 1074.85 8579.45 1074.85 8584.93L1074.85 8595.960000000001C1074.85 8597.69 1075.74 8599.2 1077.09 8600.1L1077.09 8610.74C1077.09 8610.92 1076.99 8611.1 1076.81 8611.18C1075.29 8611.92 1067.86 8615.64 1060.96 8621.24C1059.72 8622.26 1059 8623.77 1059 8625.369999999999L1059 8632.929999999998L1082.52 8632.929999999998L1084.85 8622.389999999998C1080.1499999999999 8615.909999999998 1085.1999999999998 8615.599999999997 1086.08 8615.589999999998C1086.96 8615.599999999999 1092.01 8615.909999999998 1087.31 8622.389999999998L1089.6399999999999 8632.929999999998L1097.4499999999998 8632.929999999998C1097.4899999999998 8632.769999999999 1097.5299999999997 8632.619999999999 1097.5599999999997 8632.499999999998C1097.7899999999997 8631.669999999998 1097.9999999999998 8630.899999999998 1098.2499999999998 8630.129999999997C1098.3799999999999 8629.679999999997 1098.5999999999997 8629.109999999997 1099.0199999999998 8628.559999999998C1099.7199999999998 8627.629999999997 1100.7899999999997 8627.099999999999 1101.9399999999998 8627.099999999999C1102.0399999999997 8627.099999999999 1102.1599999999999 8627.109999999999 1102.2699999999998 8627.119999999999ZM1113.16 8622.8C1111.92 8622.109999999999 1110.5900000000001 8621.59 1109.26 8621.05C1108.51 8620.75 1107.77 8620.369999999999 1107.1299999999999 8619.859999999999C1105.85 8618.859999999999 1106.1 8617.239999999998 1107.59 8616.589999999998C1108 8616.419999999998 1108.4399999999998 8616.349999999999 1108.8999999999999 8616.319999999998C1110.62 8616.229999999998 1112.2499999999998 8616.539999999997 1113.81 8617.289999999997C1114.58 8617.659999999998 1114.84 8617.539999999997 1115.11 8616.739999999998C1115.3799999999999 8615.899999999998 1115.62 8615.039999999997 1115.87 8614.179999999998C1116.03 8613.599999999999 1115.83 8613.229999999998 1115.29 8612.989999999998C1114.28 8612.559999999998 1113.26 8612.239999999998 1112.19 8612.079999999998C1110.78 8611.859999999999 1110.78 8611.849999999999 1110.78 8610.449999999999C1110.77 8608.47 1110.77 8608.47 1108.78 8608.49C1108.49 8608.49 1108.19 8608.47 1107.91 8608.49C1106.98 8608.51 1106.8100000000002 8608.67 1106.7900000000002 8609.6C1106.7700000000002 8610.01 1106.7900000000002 8610.43 1106.7900000000002 8610.86C1106.7900000000002 8612.09 1106.7700000000002 8612.08 1105.5800000000002 8612.51C1102.69 8613.550000000001 1100.9 8615.49 1100.7100000000003 8618.630000000001C1100.5300000000002 8621.390000000001 1102.0000000000002 8623.27 1104.3000000000002 8624.62C1105.7200000000003 8625.460000000001 1107.2700000000002 8625.960000000001 1108.7800000000002 8626.6C1109.3600000000001 8626.86 1109.9100000000003 8627.15 1110.4100000000003 8627.550000000001C1111.8600000000004 8628.730000000001 1111.5900000000004 8630.69 1109.8900000000003 8631.43C1108.9700000000003 8631.83 1108.0000000000002 8631.92 1107.0200000000004 8631.800000000001C1105.4900000000005 8631.61 1104.0100000000004 8631.210000000001 1102.6500000000005 8630.500000000002C1101.8300000000006 8630.090000000002 1101.6000000000006 8630.190000000002 1101.3300000000006 8631.060000000001C1101.0900000000006 8631.810000000001 1100.8900000000006 8632.570000000002 1100.6800000000005 8633.330000000002C1100.4000000000005 8634.350000000002 1100.5100000000004 8634.590000000002 1101.4800000000005 8635.060000000001C1102.7300000000005 8635.660000000002 1104.0700000000004 8635.970000000001 1105.4200000000005 8636.180000000002C1106.4900000000005 8636.340000000002 1106.5200000000004 8636.400000000001 1106.5300000000004 8637.500000000002C1106.5300000000004 8637.990000000002 1106.5400000000004 8638.490000000002 1106.5400000000004 8638.980000000001C1106.5600000000004 8639.61 1106.8500000000004 8639.980000000001 1107.5000000000005 8639.990000000002C1108.2500000000005 8640.000000000002 1108.9800000000005 8640.000000000002 1109.7200000000005 8639.990000000002C1110.3300000000004 8639.980000000001 1110.6400000000006 8639.650000000001 1110.6400000000006 8639.04C1110.6400000000006 8638.35 1110.6800000000005 8637.67 1110.6400000000006 8637C1110.6200000000006 8636.3 1110.9100000000005 8635.96 1111.5900000000006 8635.78C1113.1300000000006 8635.37 1114.4500000000005 8634.550000000001 1115.4600000000005 8633.320000000002C1118.2200000000005 8629.940000000002 1117.1500000000005 8624.980000000001 1113.1600000000005 8622.800000000001Z " fill="#000000" fill-opacity="0.24" filter="url(#SvgjsFilter1068)" transform="matrix(1,0,0,1,-1058.0013707593619,-8574)"></path><path id="SvgjsPath1070" d="M1102.27 8626.12C1098.06 8623.460000000001 1097.34 8619.95 1097.5 8617.44C1097.62 8615.460000000001 1098.22 8613.720000000001 1099.28 8612.26C1097.34 8611.17 1095.91 8610.460000000001 1095.34 8610.18C1095.1599999999999 8610.1 1095.05 8609.92 1095.05 8609.74L1095.05 8599.1C1096.4099999999999 8598.210000000001 1097.3 8596.69 1097.3 8594.960000000001L1097.3 8583.93C1097.3 8578.45 1092.81 8574 1087.27 8574L1084.8799999999999 8574C1079.34 8574 1074.85 8578.45 1074.85 8583.93L1074.85 8594.960000000001C1074.85 8596.69 1075.74 8598.2 1077.09 8599.1L1077.09 8609.74C1077.09 8609.92 1076.99 8610.1 1076.81 8610.18C1075.29 8610.92 1067.86 8614.64 1060.96 8620.24C1059.72 8621.26 1059 8622.77 1059 8624.369999999999L1059 8631.929999999998L1082.52 8631.929999999998L1084.85 8621.389999999998C1080.1499999999999 8614.909999999998 1085.1999999999998 8614.599999999997 1086.08 8614.589999999998C1086.96 8614.599999999999 1092.01 8614.909999999998 1087.31 8621.389999999998L1089.6399999999999 8631.929999999998L1097.4499999999998 8631.929999999998C1097.4899999999998 8631.769999999999 1097.5299999999997 8631.619999999999 1097.5599999999997 8631.499999999998C1097.7899999999997 8630.669999999998 1097.9999999999998 8629.899999999998 1098.2499999999998 8629.129999999997C1098.3799999999999 8628.679999999997 1098.5999999999997 8628.109999999997 1099.0199999999998 8627.559999999998C1099.7199999999998 8626.629999999997 1100.7899999999997 8626.099999999999 1101.9399999999998 8626.099999999999C1102.0399999999997 8626.099999999999 1102.1599999999999 8626.109999999999 1102.2699999999998 8626.119999999999ZM1113.16 8621.8C1111.92 8621.109999999999 1110.5900000000001 8620.59 1109.26 8620.05C1108.51 8619.75 1107.77 8619.369999999999 1107.1299999999999 8618.859999999999C1105.85 8617.859999999999 1106.1 8616.239999999998 1107.59 8615.589999999998C1108 8615.419999999998 1108.4399999999998 8615.349999999999 1108.8999999999999 8615.319999999998C1110.62 8615.229999999998 1112.2499999999998 8615.539999999997 1113.81 8616.289999999997C1114.58 8616.659999999998 1114.84 8616.539999999997 1115.11 8615.739999999998C1115.3799999999999 8614.899999999998 1115.62 8614.039999999997 1115.87 8613.179999999998C1116.03 8612.599999999999 1115.83 8612.229999999998 1115.29 8611.989999999998C1114.28 8611.559999999998 1113.26 8611.239999999998 1112.19 8611.079999999998C1110.78 8610.859999999999 1110.78 8610.849999999999 1110.78 8609.449999999999C1110.77 8607.47 1110.77 8607.47 1108.78 8607.49C1108.49 8607.49 1108.19 8607.47 1107.91 8607.49C1106.98 8607.51 1106.8100000000002 8607.67 1106.7900000000002 8608.6C1106.7700000000002 8609.01 1106.7900000000002 8609.43 1106.7900000000002 8609.86C1106.7900000000002 8611.09 1106.7700000000002 8611.08 1105.5800000000002 8611.51C1102.69 8612.550000000001 1100.9 8614.49 1100.7100000000003 8617.630000000001C1100.5300000000002 8620.390000000001 1102.0000000000002 8622.27 1104.3000000000002 8623.62C1105.7200000000003 8624.460000000001 1107.2700000000002 8624.960000000001 1108.7800000000002 8625.6C1109.3600000000001 8625.86 1109.9100000000003 8626.15 1110.4100000000003 8626.550000000001C1111.8600000000004 8627.730000000001 1111.5900000000004 8629.69 1109.8900000000003 8630.43C1108.9700000000003 8630.83 1108.0000000000002 8630.92 1107.0200000000004 8630.800000000001C1105.4900000000005 8630.61 1104.0100000000004 8630.210000000001 1102.6500000000005 8629.500000000002C1101.8300000000006 8629.090000000002 1101.6000000000006 8629.190000000002 1101.3300000000006 8630.060000000001C1101.0900000000006 8630.810000000001 1100.8900000000006 8631.570000000002 1100.6800000000005 8632.330000000002C1100.4000000000005 8633.350000000002 1100.5100000000004 8633.590000000002 1101.4800000000005 8634.060000000001C1102.7300000000005 8634.660000000002 1104.0700000000004 8634.970000000001 1105.4200000000005 8635.180000000002C1106.4900000000005 8635.340000000002 1106.5200000000004 8635.400000000001 1106.5300000000004 8636.500000000002C1106.5300000000004 8636.990000000002 1106.5400000000004 8637.490000000002 1106.5400000000004 8637.980000000001C1106.5600000000004 8638.61 1106.8500000000004 8638.980000000001 1107.5000000000005 8638.990000000002C1108.2500000000005 8639.000000000002 1108.9800000000005 8639.000000000002 1109.7200000000005 8638.990000000002C1110.3300000000004 8638.980000000001 1110.6400000000006 8638.650000000001 1110.6400000000006 8638.04C1110.6400000000006 8637.35 1110.6800000000005 8636.67 1110.6400000000006 8636C1110.6200000000006 8635.3 1110.9100000000005 8634.96 1111.5900000000006 8634.78C1113.1300000000006 8634.37 1114.4500000000005 8633.550000000001 1115.4600000000005 8632.320000000002C1118.2200000000005 8628.940000000002 1117.1500000000005 8623.980000000001 1113.1600000000005 8621.800000000001Z " fill="#ffffff" transform="matrix(1,0,0,1,-1058.0013707593619,-8574)"></path></svg>