<svg id="SvgjsSvg1041" xmlns="http://www.w3.org/2000/svg" version="1.1" xmlns:xlink="http://www.w3.org/1999/xlink" xmlns:svgjs="http://svgjs.com/svgjs" width="60.99866529583164" height="61.500084846207756"><defs id="SvgjsDefs1042"><filter id="SvgjsFilter1044" width="200%" height="200%" x="-50%" y="-50%"><feGaussianBlur id="SvgjsFeGaussianBlur1045" stdDeviation="0.5 " result="SvgjsFeGaussianBlur1045Out" in="SourceGraphic"></feGaussianBlur></filter></defs><path id="SvgjsPath1043" d="M564.856 8303.03C562.929 8301.130000000001 560.523 8301.130000000001 558.607 8303.03C557.146 8304.480000000001 555.685 8305.93 554.249 8307.400000000001C553.856 8307.800000000001 553.525 8307.890000000001 553.046 8307.62C552.1 8307.1 551.094 8306.69 550.1850000000001 8306.12C545.9490000000001 8303.460000000001 542.4010000000001 8300.03 539.258 8296.18C537.6990000000001 8294.26 536.312 8292.210000000001 535.342 8289.9C535.145 8289.44 535.182 8289.13 535.563 8288.75C537.024 8287.34 538.448 8285.89 539.884 8284.44C541.886 8282.43 541.886 8280.07 539.8720000000001 8278.04C538.73 8276.890000000001 537.589 8275.76 536.4470000000001 8274.61C535.2680000000001 8273.43 534.1020000000001 8272.24 532.9110000000002 8271.07C530.9830000000002 8269.19 528.5770000000002 8269.19 526.6620000000001 8271.08C525.1880000000001 8272.53 523.7770000000002 8274.02 522.2790000000001 8275.44C520.8910000000001 8276.76 520.1920000000001 8278.36 520.0440000000001 8280.24C519.8110000000001 8283.3 520.5600000000001 8286.18 521.6160000000001 8289C523.777 8294.81 527.0670000000001 8299.98 531.0570000000001 8304.72C536.4470000000001 8311.13 542.8800000000001 8316.199999999999 550.4060000000002 8319.859999999999C553.7950000000002 8321.509999999998 557.3060000000002 8322.769999999999 561.1240000000001 8322.98C563.7520000000002 8323.13 566.0350000000001 8322.46 567.8640000000001 8320.41C569.1170000000002 8319.01 570.5280000000001 8317.74 571.8550000000001 8316.4C573.8190000000002 8314.41 573.8310000000001 8312 571.8790000000001 8310.039999999999C569.5460000000002 8307.689999999999 567.2010000000001 8305.359999999999 564.8560000000001 8303.029999999999ZM562.511 8293.24L567.0419999999999 8292.47C566.3299999999999 8288.31 564.3649999999999 8284.539999999999 561.382 8281.539999999999C558.227 8278.39 554.237 8276.4 549.8409999999999 8275.789999999999L549.2029999999999 8280.339999999998C552.6039999999998 8280.819999999998 555.6979999999999 8282.349999999999 558.1409999999998 8284.799999999997C560.4489999999998 8287.099999999997 561.9589999999998 8290.029999999997 562.5109999999999 8293.239999999998ZM569.595 8273.55C564.365 8268.32 557.748 8265.019999999999 550.443 8264L549.804 8268.55C556.115 8269.439999999999 561.836 8272.3 566.3539999999999 8276.8C570.6389999999999 8281.09 573.4509999999999 8286.5 574.4689999999999 8292.46L578.9999999999999 8291.679999999998C577.8089999999999 8284.779999999999 574.5549999999998 8278.519999999999 569.5949999999999 8273.55Z " fill="#000000" fill-opacity="0.24" filter="url(#SvgjsFilter1044)" transform="matrix(1,0,0,1,-519.0006673520842,-8263)"></path><path id="SvgjsPath1046" d="M564.856 8302.03C562.929 8300.130000000001 560.523 8300.130000000001 558.607 8302.03C557.146 8303.480000000001 555.685 8304.93 554.249 8306.400000000001C553.856 8306.800000000001 553.525 8306.890000000001 553.046 8306.62C552.1 8306.1 551.094 8305.69 550.1850000000001 8305.12C545.9490000000001 8302.460000000001 542.4010000000001 8299.03 539.258 8295.18C537.6990000000001 8293.26 536.312 8291.210000000001 535.342 8288.9C535.145 8288.44 535.182 8288.13 535.563 8287.75C537.024 8286.34 538.448 8284.89 539.884 8283.44C541.886 8281.43 541.886 8279.07 539.8720000000001 8277.04C538.73 8275.890000000001 537.589 8274.76 536.4470000000001 8273.61C535.2680000000001 8272.43 534.1020000000001 8271.24 532.9110000000002 8270.07C530.9830000000002 8268.19 528.5770000000002 8268.19 526.6620000000001 8270.08C525.1880000000001 8271.53 523.7770000000002 8273.02 522.2790000000001 8274.44C520.8910000000001 8275.76 520.1920000000001 8277.36 520.0440000000001 8279.24C519.8110000000001 8282.3 520.5600000000001 8285.18 521.6160000000001 8288C523.777 8293.81 527.0670000000001 8298.98 531.0570000000001 8303.72C536.4470000000001 8310.13 542.8800000000001 8315.199999999999 550.4060000000002 8318.859999999999C553.7950000000002 8320.509999999998 557.3060000000002 8321.769999999999 561.1240000000001 8321.98C563.7520000000002 8322.13 566.0350000000001 8321.46 567.8640000000001 8319.41C569.1170000000002 8318.01 570.5280000000001 8316.74 571.8550000000001 8315.4C573.8190000000002 8313.41 573.8310000000001 8311 571.8790000000001 8309.039999999999C569.5460000000002 8306.689999999999 567.2010000000001 8304.359999999999 564.8560000000001 8302.029999999999ZM562.511 8292.24L567.0419999999999 8291.47C566.3299999999999 8287.31 564.3649999999999 8283.539999999999 561.382 8280.539999999999C558.227 8277.39 554.237 8275.4 549.8409999999999 8274.789999999999L549.2029999999999 8279.339999999998C552.6039999999998 8279.819999999998 555.6979999999999 8281.349999999999 558.1409999999998 8283.799999999997C560.4489999999998 8286.099999999997 561.9589999999998 8289.029999999997 562.5109999999999 8292.239999999998ZM569.595 8272.55C564.365 8267.32 557.748 8264.019999999999 550.443 8263L549.804 8267.55C556.115 8268.439999999999 561.836 8271.3 566.3539999999999 8275.8C570.6389999999999 8280.09 573.4509999999999 8285.5 574.4689999999999 8291.46L578.9999999999999 8290.679999999998C577.8089999999999 8283.779999999999 574.5549999999998 8277.519999999999 569.5949999999999 8272.55Z " fill="#ffffff" transform="matrix(1,0,0,1,-519.0006673520842,-8263)"></path></svg>