<svg id="SvgjsSvg1149" xmlns="http://www.w3.org/2000/svg" version="1.1" xmlns:xlink="http://www.w3.org/1999/xlink" xmlns:svgjs="http://svgjs.com/svgjs" width="26" height="26.5"><defs id="SvgjsDefs1150"><filter id="SvgjsFilter1152" width="200%" height="200%" x="-50%" y="-50%"><feGaussianBlur id="SvgjsFeGaussianBlur1153" stdDeviation="0.5 " result="SvgjsFeGaussianBlur1153Out" in="SourceGraphic"></feGaussianBlur></filter></defs><path id="SvgjsPath1151" d="M1104 5521C1104 5516.03 1099.97 5512 1095 5512C1090.03 5512 1086 5516.03 1086 5521C1086 5525.97 1090.03 5530 1095 5530C1099.97 5530 1104 5525.97 1104 5521ZM1095 5527.75C1091.28 5527.75 1088.25 5524.72 1088.25 5521C1088.25 5517.28 1091.28 5514.25 1095 5514.25C1098.72 5514.25 1101.75 5517.28 1101.75 5521C1101.75 5524.72 1098.72 5527.75 1095 5527.75ZM1109.34 5532.16L1103.83 5526.65C1103.01 5527.929999999999 1101.9299999999998 5529.009999999999 1100.6499999999999 5529.83L1106.1599999999999 5535.34C1107.04 5536.22 1108.4599999999998 5536.22 1109.34 5535.34C1110.22 5534.46 1110.22 5533.04 1109.34 5532.16ZM1089.75 5521L1091.25 5521C1091.25 5518.93 1092.93 5517.25 1095 5517.25L1095 5515.75C1092.11 5515.75 1089.75 5518.1 1089.75 5521Z " fill="#000000" fill-opacity="0.24" filter="url(#SvgjsFilter1152)" transform="matrix(1,0,0,1,-1085,-5511)"></path><path id="SvgjsPath1154" d="M1104 5520C1104 5515.03 1099.97 5511 1095 5511C1090.03 5511 1086 5515.03 1086 5520C1086 5524.97 1090.03 5529 1095 5529C1099.97 5529 1104 5524.97 1104 5520ZM1095 5526.75C1091.28 5526.75 1088.25 5523.72 1088.25 5520C1088.25 5516.28 1091.28 5513.25 1095 5513.25C1098.72 5513.25 1101.75 5516.28 1101.75 5520C1101.75 5523.72 1098.72 5526.75 1095 5526.75ZM1109.34 5531.16L1103.83 5525.65C1103.01 5526.929999999999 1101.9299999999998 5528.009999999999 1100.6499999999999 5528.83L1106.1599999999999 5534.34C1107.04 5535.22 1108.4599999999998 5535.22 1109.34 5534.34C1110.22 5533.46 1110.22 5532.04 1109.34 5531.16ZM1089.75 5520L1091.25 5520C1091.25 5517.93 1092.93 5516.25 1095 5516.25L1095 5514.75C1092.11 5514.75 1089.75 5517.1 1089.75 5520Z " fill="#ffffff" transform="matrix(1,0,0,1,-1085,-5511)"></path></svg>